<svg width="99" height="112" fill="none" xmlns="http://www.w3.org/2000/svg"><path d="M74.772 2H24.259A22.255 22.255 0 0 0 2 24.255v50.54a22.255 22.255 0 0 0 22.26 22.254h14.602l5.949 10.698a4.388 4.388 0 0 0 3.736 2.254 4.396 4.396 0 0 0 3.836-2.079l6.708-10.873h15.654A22.256 22.256 0 0 0 97 74.794V24.255A22.255 22.255 0 0 0 74.772 2z" stroke="#2F3645" stroke-width="3" stroke-miterlimit="10"/><path d="m43.65 23.506-24.733 43.12a6.973 6.973 0 0 0 .006 6.928 6.88 6.88 0 0 0 2.516 2.53 6.785 6.785 0 0 0 3.43.916h49.262a6.785 6.785 0 0 0 3.43-.916 6.88 6.88 0 0 0 2.516-2.53 6.974 6.974 0 0 0 .006-6.928l-24.528-43.12a6.88 6.88 0 0 0-2.508-2.566 6.786 6.786 0 0 0-6.889 0 6.88 6.88 0 0 0-2.508 2.566z" fill="#FEC420" stroke="#2F3645" stroke-width="5" stroke-linecap="round" stroke-linejoin="round"/><path d="M51.62 54h-4.24L46 41h7l-1.38 13z" fill="#2F3645"/><path d="M49.5 44a3.5 3.5 0 1 0 0-7 3.5 3.5 0 0 0 0 7zM49.5 56a1.5 1.5 0 1 0 0-3 1.5 1.5 0 0 0 0 3zM49.5 66a3.5 3.5 0 1 0 0-7 3.5 3.5 0 0 0 0 7z" fill="#2F3645"/></svg>