<svg width="113" height="120" fill="none" xmlns="http://www.w3.org/2000/svg"><path d="M83.772 10H33.259A22.255 22.255 0 0 0 11 32.255v50.54a22.255 22.255 0 0 0 22.26 22.254h14.602l5.949 10.698a4.388 4.388 0 0 0 3.736 2.254 4.396 4.396 0 0 0 3.836-2.079l6.708-10.873h15.654a22.244 22.244 0 0 0 15.737-6.518A22.25 22.25 0 0 0 106 82.794V32.255A22.255 22.255 0 0 0 83.772 10z" stroke="#2F3645" stroke-width="3" stroke-miterlimit="10"/><path d="m53.65 31.506-24.733 43.12a6.973 6.973 0 0 0 .006 6.928 6.88 6.88 0 0 0 2.516 2.53 6.785 6.785 0 0 0 3.43.916h49.262a6.785 6.785 0 0 0 3.43-.916 6.88 6.88 0 0 0 2.516-2.53 6.974 6.974 0 0 0 .006-6.928l-24.528-43.12a6.88 6.88 0 0 0-2.508-2.566 6.786 6.786 0 0 0-6.889 0 6.88 6.88 0 0 0-2.508 2.566z" fill="#FEC420" stroke="#2F3645" stroke-width="5" stroke-linecap="round" stroke-linejoin="round"/><path d="M61.62 62h-4.24L56 49h7l-1.38 13z" fill="#2F3645"/><path d="M59.5 64a1.5 1.5 0 1 0 0-3 1.5 1.5 0 0 0 0 3zM59.5 52a3.5 3.5 0 1 0 0-7 3.5 3.5 0 0 0 0 7zM59.5 74a3.5 3.5 0 1 0 0-7 3.5 3.5 0 0 0 0 7z" fill="#2F3645"/></svg>