<svg width="223" height="163" fill="none" xmlns="http://www.w3.org/2000/svg"><path d="m205.639 130.065-10.079-3.244c-23.722-7.626-43.236-7.626-66.945 0l-17.055 5.483-17.056-5.483c-23.743-7.631-43.236-7.631-66.96.003l-10.099 3.241a5.335 5.335 0 0 1-6.383-2.658 5.33 5.33 0 0 1-.58-2.416V17.094a5.337 5.337 0 0 1 3.706-5.066l13.356-4.292C51.268.092 70.76.092 94.49 7.726l17.055 5.482 17.056-5.483c23.722-7.633 43.22-7.633 66.944 0l13.356 4.303a5.333 5.333 0 0 1 3.713 5.077v107.888a5.33 5.33 0 0 1-4.494 5.267 5.328 5.328 0 0 1-2.482-.195z" fill="#fff" stroke="#2F3645" stroke-width="3" stroke-miterlimit="10"/><path d="M111.501 132.306V13.208" stroke="#2F3645" stroke-width="3" stroke-miterlimit="10"/><path d="m197.817 28.526-2.265-.729c-23.544-7.568-42.929-7.623-66.409-.17l-.53.17M197.817 41.776l-2.265-.73c-23.544-7.567-42.929-7.623-66.409-.17l-.53.17M197.817 57.235l-2.265-.73c-23.544-7.567-42.929-7.626-66.409-.172l-.53.172M197.817 70.484l-2.265-.73c-23.549-7.567-42.934-7.625-66.414-.166l-.531.172M95.247 81.346l-2.266-.73c-23.543-7.567-42.928-7.625-66.408-.172l-.53.173M95.247 94.596l-2.266-.73c-23.546-7.567-42.928-7.626-66.408-.172l-.53.172M95.247 107.845l-2.266-.73c-23.546-7.554-42.928-7.626-66.408-.172l-.53.172" stroke="#2F3645" stroke-width="3" stroke-miterlimit="10" stroke-linecap="round"/><path d="m197.817 127.553 7.825 2.512a5.319 5.319 0 0 0 4.77-.767 5.338 5.338 0 0 0 1.612-1.891 5.34 5.34 0 0 0 .578-2.416V26.683l4.39 1.302c2.387.709 4.008 2.759 4.008 5.075v107.899c0 3.615-3.814 6.18-7.544 5.074l-10.936-3.236c-25.706-7.626-46.836-7.626-72.539 0l-18.48 5.483-18.482-5.483c-25.703-7.626-46.833-7.626-72.536 0l-10.94 3.236C5.83 147.139 2 144.574 2 140.959v-107.9c0-2.315 1.62-4.365 4.008-5.074l4.48-1.326v98.334a5.335 5.335 0 0 0 4.482 5.258c.829.134 1.677.07 2.476-.186l10.08-3.244c23.723-7.626 43.235-7.626 66.946 0l17.056 5.483 11.453-3.682 5.603-1.801c23.721-7.626 43.236-7.626 66.944 0l2.289.732z" fill="#E6B9A6" stroke="#2F3645" stroke-width="3" stroke-miterlimit="10"/><path d="M216.796 150.115 195.18 119.93a5.861 5.861 0 0 0-6.989-2.335l-5.228-8.188a35.16 35.16 0 0 0 6.301-47.872 35.164 35.164 0 1 0-13.076 52.201l5.231 8.186a5.865 5.865 0 0 0-.817 7.323l21.613 30.188a5.859 5.859 0 0 0 8.091 1.782l4.708-3.005a5.858 5.858 0 0 0 1.782-8.095zm-80.303-52.472a28.801 28.801 0 1 1 48.538-31.017 28.801 28.801 0 0 1-48.538 31.017z" fill="#2F3645"/><path d="M143.605 93.12a3.222 3.222 0 1 0 0-6.443 3.222 3.222 0 0 0 0 6.444zM156.748 60.304a21.298 21.298 0 0 1 7.188.122 3.288 3.288 0 0 1 2.465 4.416 3.284 3.284 0 0 1-3.682 2.027 14.716 14.716 0 0 0-15.917 7.906 14.708 14.708 0 0 0-1.531 6.123 3.278 3.278 0 1 1-6.552-.236c.332-10.013 7.804-18.785 18.029-20.358z" fill="#2F3645"/><path d="M60.657 46.142c5.09 0 9.215-2.84 9.215-6.342 0-3.503-4.125-6.342-9.215-6.342-5.089 0-9.214 2.84-9.214 6.342s4.125 6.342 9.215 6.342zM76.965 31.126l7.584 6.915M76.965 38.041l7.584-6.915M36.809 31.126l7.58 6.915M36.809 38.041l7.58-6.915" stroke="#2F3645" stroke-width="3" stroke-miterlimit="10" stroke-linecap="round"/></svg>