<svg width="189" height="126" fill="none" xmlns="http://www.w3.org/2000/svg"><g clip-path="url(#a)"><path d="M94.542 63.49v38.192M94.542 102.933v-.157" stroke="#2F3645" stroke-width="3" stroke-miterlimit="10" stroke-linecap="round"/><path d="m180.567 102.809.039-77.583c4.262 1.202 7.194 4.417 7.365 8.275 0 .165.01.327.01.494v78.587c0 6.846-6.299 12.395-14.065 12.395H15.086c-7.77 0-14.065-5.551-14.065-12.395V33.886c.045-3.994 3.054-7.358 7.465-8.57l.038 80.306v.871c0 4.065 3.97 7.355 8.917 7.46h67.947c4.96 0 8.996 0 9.15-11.583v.405-1.096c0 12.274 4.097 12.274 9.152 12.274h67.959a10.231 10.231 0 0 0 6.235-2.184c1.656-1.35 2.681-3.209 2.681-5.276v-2.458" fill="#E6B9A6"/><path d="m180.567 102.809.039-77.583c4.262 1.202 7.194 4.417 7.365 8.275 0 .165.01.327.01.494v78.587c0 6.846-6.299 12.395-14.065 12.395H15.086c-7.77 0-14.065-5.551-14.065-12.395V33.886c.045-3.994 3.054-7.358 7.465-8.57l.038 80.306v.871c0 4.065 3.97 7.355 8.917 7.46h67.947c4.96 0 8.996 0 9.15-11.583v.405-1.096c0 12.274 4.097 12.274 9.152 12.274h67.959a10.231 10.231 0 0 0 6.235-2.184c1.656-1.35 2.681-3.209 2.681-5.276v-2.458M180.565 25.226v78.809" stroke="#2F3645" stroke-width="3" stroke-miterlimit="10"/><path d="M180.565 105.622a7.8 7.8 0 0 1-1.764 4.921c-.022.03-.045.057-.066.083a9.48 9.48 0 0 1-3.185 2.435 9.439 9.439 0 0 1-3.901.896M94.541 101.682v.567a.05.05 0 0 0 0 .025v.099M17.434 113.953c-4.946-.116-8.91-3.8-8.91-8.331V25.315" stroke="#2F3645" stroke-width="3" stroke-miterlimit="10"/><path d="M180.565 13.296v77.64c0 4.601-4.098 8.332-9.153 8.332l-67.717-3.938c-8.218 0-9.09 2.24-9.153 6.033v.885a.054.054 0 0 0 0 .026v.289-.214c-.045-4.352-.322-7.02-9.15-7.02l-67.721 3.94c-5.055 0-9.147-3.732-9.147-8.334V13.296c0-4.604 4.098-8.343 9.164-8.343l44.165-3.27 23.535-.662c5.055 0 9.153 5.703 9.153 10.305 0-4.602 4.099-10.305 9.154-10.305l23.397.663 44.327 3.277c5.048 0 9.146 3.731 9.146 8.335z" fill="#fff" stroke="#2F3645" stroke-width="3" stroke-linejoin="round"/><path d="M111 25c.789 2.513 3.895 6.857 10 4.134M73 25c-.79 2.513-3.895 6.857-10 4.134M82 52.315c1-6 22-5.5 24 0" stroke="#2F3645" stroke-width="3" stroke-linecap="round"/><circle cx="77" cy="36" r="5" fill="#2F3645"/><circle cx="108" cy="36" r="5" fill="#2F3645"/><path fill-rule="evenodd" clip-rule="evenodd" d="m65.731 43.357 5.25 10.416h-.013c.788 1.192 1.257 2.501 1.263 3.551-.532 4.232-2.786 5.709-6.343 5.73-3.556.023-6.19-1.998-6.536-5.65-.006-1.05.449-2.366 1.225-3.567l5.154-10.48z" fill="#76D5FF"/></g><defs><clipPath id="a"><path fill="#fff" d="M0 0h189v126H0z"/></clipPath></defs></svg>