<svg width="130" height="213" fill="none" xmlns="http://www.w3.org/2000/svg"><g clip-path="url(#a)" stroke="#2F3645" stroke-width="3"><path d="M11.961 207.706c-3.402-.079-6.133-2.593-6.133-5.685v-54.812" stroke-miterlimit="10"/><path d="M65.029 170.334v26.068M65.029 197.257v-.107" stroke-miterlimit="10" stroke-linecap="round"/><path d="M129.299 150.204v53.639c0 4.672-4.333 8.46-9.674 8.46H10.377c-5.345 0-9.675-3.789-9.675-8.46V150.13c.03-2.726 2.1-5.022 5.135-5.85l.026 54.813v.594c0 2.774 2.731 5.02 6.133 5.092h46.737c3.41 0 6.187 0 6.293-7.906v.276-.748c0 8.378 2.818 8.378 6.295 8.378h46.744a7.07 7.07 0 0 0 4.289-1.491c1.139-.922 1.844-2.191 1.844-3.601v-2.515l.027-52.953c2.931.82 4.948 3.015 5.066 5.648.005.112.008.223.008.337z" fill="#E6B9A6" stroke-miterlimit="10"/><path d="M124.198 144.219v53.79M124.198 199.092a5.296 5.296 0 0 1-1.259 3.415 6.507 6.507 0 0 1-2.19 1.662 6.537 6.537 0 0 1-2.684.612M65.029 196.402v.387a.037.037 0 0 0 0 .018v.067" stroke-miterlimit="10"/><path d="M124.198 136.076v52.992c0 3.141-2.819 5.687-6.295 5.687l-46.579-2.688c-5.652 0-6.251 1.529-6.295 4.118v.604a.037.037 0 0 0 0 .018v.197V196.858c-.031-2.97-.222-4.791-6.293-4.791l-46.581 2.688c-3.477 0-6.292-2.546-6.292-5.687v-52.992c0-3.142 2.82-5.695 6.303-5.695l30.378-2.231a168.41 168.41 0 0 1 12.313-.453h3.877c3.477 0 6.296 3.893 6.296 7.034 0-3.141 2.819-7.034 6.296-7.034h3.81c4.105 0 8.2.151 12.286.453l30.489 2.237c3.468 0 6.287 2.547 6.287 5.689z" fill="#fff" stroke-linejoin="round"/><path d="M65.02 153.457c2.812 0 5.092-1.563 5.092-3.491 0-1.928-2.28-3.491-5.092-3.491-2.813 0-5.092 1.563-5.092 3.491 0 1.928 2.28 3.491 5.092 3.491zM74.032 145.191l4.19 3.807M74.032 148.998l4.19-3.807M51.84 145.191l4.19 3.807M51.84 148.998l4.19-3.807" stroke-miterlimit="10" stroke-linecap="round"/></g><path d="M89.772 2H39.259A22.255 22.255 0 0 0 17 24.255v50.54a22.255 22.255 0 0 0 22.26 22.254h14.602l5.949 10.698a4.388 4.388 0 0 0 3.736 2.254 4.396 4.396 0 0 0 3.835-2.079l6.71-10.873h15.653A22.256 22.256 0 0 0 112 74.794V24.255A22.255 22.255 0 0 0 89.772 2z" stroke="#2F3645" stroke-width="3" stroke-miterlimit="10"/><path d="M65.67 20.136a11.915 11.915 0 1 1-.342 23.826 11.915 11.915 0 0 1 .343-23.826zm0-5.136a17.119 17.119 0 1 0 0 34.238 17.119 17.119 0 0 0 0-34.238z" fill="#2F3645"/><path fill="#FEC420" d="M81 67h5v7h-5z"/><path d="M65.67 80.842H39.445A5.444 5.444 0 0 1 34 75.398 17.12 17.12 0 0 1 51.12 58.28h22.083" stroke="#2F3645" stroke-width="5" stroke-linecap="round" stroke-linejoin="round"/><path d="M79.744 65.433a8.628 8.628 0 1 1 8.628 8.628" fill="#FEC420"/><path d="M79.744 65.433a8.628 8.628 0 1 1 8.628 8.628" stroke="#2F3645" stroke-width="5" stroke-linecap="round" stroke-linejoin="round"/><path d="M79.95 67.18 73.34 73.79a.65.65 0 0 0-.17.445v5.444a1.096 1.096 0 0 0 1.026 1.061h5.444a.548.548 0 0 0 .48-.171l6.608-6.608" fill="#FEC420"/><path d="M79.95 67.18 73.34 73.79a.65.65 0 0 0-.17.445v5.444a1.096 1.096 0 0 0 1.026 1.061h5.444a.548.548 0 0 0 .48-.171l6.608-6.608" stroke="#2F3645" stroke-width="5" stroke-linecap="round" stroke-linejoin="round"/><path d="M88.37 67.73a2.294 2.294 0 1 0 0-4.588 2.294 2.294 0 0 0 0 4.588z" fill="#2F3645"/><path d="M79.88 67.007a8.628 8.628 0 0 1 6.847-10.031M97 66.357a8.594 8.594 0 0 1-9.552 7.601" stroke="#2F3645" stroke-width="5" stroke-linecap="round" stroke-linejoin="round"/><defs><clipPath id="a"><path fill="#fff" transform="translate(0 127)" d="M0 0h130v86H0z"/></clipPath></defs></svg>