<svg width="130" height="213" fill="none" xmlns="http://www.w3.org/2000/svg"><g clip-path="url(#a)" stroke="#2F3645" stroke-width="3"><path d="M11.961 207.706c-3.402-.079-6.133-2.593-6.133-5.685v-54.812" stroke-miterlimit="10"/><path d="M65.029 170.334v26.068M65.029 197.257v-.107" stroke-miterlimit="10" stroke-linecap="round"/><path d="M129.299 150.204v53.639c0 4.672-4.333 8.46-9.674 8.46H10.377c-5.345 0-9.675-3.789-9.675-8.46V150.13c.03-2.726 2.1-5.022 5.135-5.85l.026 54.813v.594c0 2.774 2.731 5.02 6.133 5.092h46.737c3.41 0 6.187 0 6.293-7.906v.276-.748c0 8.378 2.819 8.378 6.295 8.378h46.744a7.07 7.07 0 0 0 4.289-1.491c1.139-.922 1.844-2.191 1.844-3.601v-2.515l.027-52.953c2.931.82 4.948 3.015 5.066 5.648.005.112.008.223.008.337z" fill="#E6B9A6" stroke-miterlimit="10"/><path d="M124.198 144.219v53.79M124.198 199.092a5.296 5.296 0 0 1-1.259 3.415 6.507 6.507 0 0 1-2.19 1.662 6.537 6.537 0 0 1-2.684.612M65.029 196.402v.387a.037.037 0 0 0 0 .018v.067" stroke-miterlimit="10"/><path d="M124.198 136.076v52.992c0 3.141-2.819 5.687-6.295 5.687l-46.579-2.688c-5.652 0-6.251 1.529-6.295 4.118v.604a.037.037 0 0 0 0 .018v.197V196.858c-.031-2.97-.222-4.791-6.293-4.791l-46.581 2.688c-3.477 0-6.292-2.546-6.292-5.687v-52.992c0-3.142 2.82-5.695 6.303-5.695l30.378-2.231c4.094-.301 8.198-.452 12.313-.453h3.877c3.477 0 6.296 3.893 6.296 7.034 0-3.141 2.819-7.034 6.296-7.034h3.811c4.104 0 8.2.151 12.285.453l30.489 2.237c3.468 0 6.287 2.547 6.287 5.689z" fill="#fff" stroke-linejoin="round"/><path d="M65.02 153.457c2.812 0 5.092-1.563 5.092-3.491 0-1.928-2.28-3.491-5.092-3.491-2.813 0-5.092 1.563-5.092 3.491 0 1.928 2.28 3.491 5.092 3.491zM74.032 145.191l4.19 3.807M74.032 148.998l4.19-3.807M51.84 145.191l4.19 3.807M51.84 148.998l4.19-3.807" stroke-miterlimit="10" stroke-linecap="round"/></g><path d="M88.772 2H38.259A22.255 22.255 0 0 0 16 24.255v50.54a22.255 22.255 0 0 0 22.26 22.254h14.602l5.949 10.698a4.388 4.388 0 0 0 3.736 2.254 4.396 4.396 0 0 0 3.835-2.079l6.71-10.873h15.653A22.256 22.256 0 0 0 111 74.794V24.255A22.255 22.255 0 0 0 88.772 2z" stroke="#2F3645" stroke-width="3" stroke-miterlimit="10"/><path d="M58.276 76.219H45.811A5.811 5.811 0 0 1 40 70.408V27.81A5.811 5.811 0 0 1 45.811 22h22.373M82.336 36.235v9.327" stroke="#2F3645" stroke-width="5" stroke-linecap="round" stroke-linejoin="round"/><path d="M79.46 38.387H68.591a2.673 2.673 0 0 1-2.673-2.673V24.818a2.673 2.673 0 0 1 4.562-1.976l11.041 10.955a2.702 2.702 0 0 1-2.063 4.59z" stroke="#2F3645" stroke-width="5" stroke-linecap="round" stroke-linejoin="round"/><path d="m72.107 54.951-7.235 12.494a5.811 5.811 0 0 0 5.056 8.717h14.528a5.81 5.81 0 0 0 5.055-8.717l-7.205-12.494a5.811 5.811 0 0 0-10.2 0z" fill="#FEC420" stroke="#2F3645" stroke-width="5" stroke-linecap="round" stroke-linejoin="round"/><path d="M78.355 66.834h-2.383l-.784-8.049h3.923l-.756 8.049z" fill="#2F3645"/><path d="M77.162 67.879a1.191 1.191 0 1 0 0-2.383 1.191 1.191 0 0 0 0 2.383zM77.164 60.646a1.976 1.976 0 1 0 0-3.952 1.976 1.976 0 0 0 0 3.952zM77.164 73.284a1.976 1.976 0 1 0 0-3.952 1.976 1.976 0 0 0 0 3.952z" fill="#2F3645"/><defs><clipPath id="a"><path fill="#fff" transform="translate(0 127)" d="M0 0h130v86H0z"/></clipPath></defs></svg>