<svg width="24" height="24" viewBox="0 0 24 24" fill="none" xmlns="http://www.w3.org/2000/svg">
<g clip-path="url(#clip0_2649_4860)">
<path d="M8.57002 13.62H15.79C17.2557 13.6224 18.6728 14.1456 19.7884 15.0963C20.9039 16.047 21.6452 17.3632 21.88 18.81C23.1287 17.0098 23.8608 14.9022 23.9969 12.7157C24.1329 10.5291 23.6678 8.347 22.6519 6.40596C21.6361 4.46492 20.1082 2.83903 18.234 1.70456C16.3598 0.570086 14.2108 -0.0296631 12.02 -0.0296631C9.82922 -0.0296631 7.68022 0.570086 5.80603 1.70456C3.93184 2.83903 2.40397 4.46492 1.3881 6.40596C0.372232 8.347 -0.0928813 10.5291 0.0431925 12.7157C0.179266 14.9022 0.911335 17.0098 2.16002 18.81C2.47006 17.3404 3.27647 16.0223 4.44376 15.0771C5.61105 14.132 7.06808 13.6175 8.57002 13.62Z" fill="#EEEDEB"/>
<path d="M21.88 18.81C21.6039 17.3189 20.8249 15.9675 19.673 14.9812C18.5211 13.9949 17.0659 13.4333 15.55 13.39H8.33003C6.82912 13.4471 5.39429 14.0222 4.26947 15.0176C3.14465 16.013 2.39927 17.3672 2.16003 18.85C3.26466 20.4424 4.73856 21.7436 6.45566 22.6423C8.17276 23.541 10.082 24.0104 12.02 24.0104C13.9581 24.0104 15.8673 23.541 17.5844 22.6423C19.3015 21.7436 20.7754 20.4424 21.88 18.85V18.81Z" fill="#2F3645"/>
<path d="M12.02 12.24C14.8477 12.24 17.14 9.9477 17.14 7.12C17.14 4.2923 14.8477 2 12.02 2C9.19233 2 6.90002 4.2923 6.90002 7.12C6.90002 9.9477 9.19233 12.24 12.02 12.24Z" fill="#2F3645"/>
</g>
<defs>
<clipPath id="clip0_2649_4860">
<rect width="24" height="24" fill="white"/>
</clipPath>
</defs>
</svg>
