<svg width="204" height="137" fill="none" xmlns="http://www.w3.org/2000/svg"><g clip-path="url(#a)" stroke="#2F3645" stroke-width="3" stroke-miterlimit="10"><path d="m188.69 119.041-9.282-2.983c-21.845-7.013-39.815-7.013-61.647 0l-15.706 5.042-15.706-5.042c-21.864-7.018-39.815-7.018-61.662.003l-9.299 2.98a4.901 4.901 0 0 1-2.281.173 4.904 4.904 0 0 1-4.13-4.839V15.149a4.904 4.904 0 0 1 3.412-4.66l12.299-3.947c21.846-7.03 39.797-7.03 61.649-.01l15.706 5.043 15.706-5.042c21.844-7.02 39.8-7.02 61.646 0l12.299 3.956a4.915 4.915 0 0 1 3.42 4.67v99.218a4.904 4.904 0 0 1-6.424 4.664z" fill="#fff"/><path d="M102.001 121.103V11.575"/><path d="m87.033 74.237-2.086-.67c-21.68-6.96-39.531-7.014-61.154-.159l-.488.159M87.033 86.422l-2.086-.67c-21.683-6.96-39.531-7.014-61.154-.16l-.488.16M87.033 98.607l-2.086-.671c-21.683-6.947-39.531-7.013-61.154-.159l-.488.159" stroke-linecap="round"/><path d="m181.486 116.731 7.206 2.311a4.914 4.914 0 0 0 5.877-2.445c.35-.688.533-1.45.533-2.222V23.967l4.042 1.198c2.198.651 3.691 2.537 3.691 4.666v99.229c0 3.325-3.513 5.684-6.947 4.667l-10.071-2.976c-23.671-7.014-43.129-7.014-66.798 0l-17.018 5.042-17.02-5.042c-23.669-7.014-43.127-7.014-66.796 0l-10.073 2.976c-3.42 1.017-6.947-1.342-6.947-4.667V29.831c0-2.13 1.493-4.015 3.69-4.666l4.126-1.22v90.432A4.9 4.9 0 0 0 11 118.334a4.909 4.909 0 0 0 4.39.708l9.281-2.984c21.847-7.013 39.815-7.013 61.65 0l15.706 5.042 10.547-3.385 5.159-1.657c21.844-7.013 39.814-7.013 61.646 0l2.108.673z" fill="#E6B9A6"/><path d="M39 31v6.438M70.224 31v6.438" stroke-linecap="round"/><path d="M164.202 51.8c0-3.062-.824-6.067-2.386-8.703a17.104 17.104 0 0 0-6.49-6.277 17.136 17.136 0 0 0-17.42.557 17.086 17.086 0 0 0-7.9 15.516 17.105 17.105 0 0 0 9.814 14.385v2.857a5.12 5.12 0 0 0 1.503 3.622c.962.96 2.266 1.5 3.627 1.5h4.257c1.361 0 2.665-.54 3.627-1.5a5.12 5.12 0 0 0 1.503-3.623v-2.856a17.109 17.109 0 0 0 7.188-6.305 17.07 17.07 0 0 0 2.677-9.173z" fill="#FEC420" stroke-linecap="round"/><path d="M150.575 75.267h-6.974c-.855 0-1.548.692-1.548 1.545 0 .854.693 1.546 1.548 1.546h6.974c.855 0 1.549-.692 1.549-1.546 0-.853-.694-1.545-1.549-1.545z" stroke-linecap="round"/><path d="M150.575 78.358h-6.974a1.547 1.547 0 1 0 0 3.09h6.974c.855 0 1.549-.691 1.549-1.545s-.694-1.545-1.549-1.545z" stroke-linecap="round"/><path d="M150.656 81.448a3.564 3.564 0 0 1-2.181 3.377 3.57 3.57 0 0 1-4.954-3.377h7.135zM142.48 54.74l3.31 19.549M151.633 55.3l-3.313 19.552M173.44 32.8l-4.858 3.517M175.644 38.598l-5.206 1.156M168.604 28.907l-2.716 4.578M121.449 32.8l4.859 3.517M119.244 38.598l5.205 1.156M126.283 28.907l2.716 4.578M63.02 35.49a3.072 3.072 0 0 0-3.07-3.066H49.176a3.072 3.072 0 0 0-2.835 1.894 3.06 3.06 0 0 0-.233 1.173c0 3.22 3.798 5.832 8.483 5.832 4.685 0 8.486-2.612 8.486-5.832" stroke-linecap="round"/></g><defs><clipPath id="a"><path fill="#fff" d="M0 0h204v137H0z"/></clipPath></defs></svg>