<svg width="238" height="178" fill="none" xmlns="http://www.w3.org/2000/svg"><path d="m214.902 153.539-9.251-2.977c-21.772-7-39.683-7-61.442 0l-15.654 5.032-15.654-5.032c-21.791-7.004-39.682-7.004-61.457.002l-9.268 2.975a4.896 4.896 0 0 1-4.38-.704 4.895 4.895 0 0 1-2.01-3.953V49.853a4.899 4.899 0 0 1 3.4-4.65l12.258-3.938c21.775-7.017 39.666-7.017 61.445-.01l15.654 5.032 15.653-5.032c21.772-7.007 39.668-7.007 61.442 0l12.258 3.949a4.898 4.898 0 0 1 3.409 4.66v99.02a4.902 4.902 0 0 1-2.015 3.96 4.895 4.895 0 0 1-4.388.695z" fill="#fff" stroke="#2F3645" stroke-width="3" stroke-miterlimit="10"/><path d="M128.501 155.596V46.287" stroke="#2F3645" stroke-width="3" stroke-miterlimit="10"/><path d="m207.723 60.346-2.08-.67c-21.608-6.945-39.4-6.996-60.95-.155l-.487.156M207.723 72.507l-2.08-.67c-21.608-6.946-39.4-6.997-60.95-.156l-.487.156M207.723 86.695l-2.08-.67c-21.608-6.945-39.4-6.998-60.95-.157l-.487.158M207.722 98.855l-2.079-.67c-21.613-6.945-39.405-6.998-60.955-.153l-.487.159M113.583 108.825l-2.079-.67c-21.61-6.945-39.4-6.999-60.95-.158l-.488.158M113.583 120.985l-2.079-.67c-21.612-6.945-39.4-6.999-60.95-.158l-.488.158M113.583 133.145l-2.079-.669c-21.612-6.934-39.4-6.999-60.95-.158l-.488.158" stroke="#2F3645" stroke-width="3" stroke-miterlimit="10" stroke-linecap="round"/><path d="m207.722 151.234 7.182 2.305a4.896 4.896 0 0 0 4.379-.704 4.895 4.895 0 0 0 2.009-3.953V58.654l4.029 1.196c2.191.65 3.679 2.532 3.679 4.657v99.031c0 3.318-3.501 5.672-6.924 4.657l-10.037-2.97c-23.593-7-42.986-7-66.577 0l-16.961 5.032-16.963-5.032c-23.59-7-42.984-7-66.574 0l-10.04 2.97C31.515 169.21 28 166.856 28 163.538V64.507c0-2.126 1.488-4.007 3.678-4.657l4.112-1.218v90.252a4.892 4.892 0 0 0 6.386 4.655l9.251-2.977c21.774-7 39.683-7 61.445 0l15.654 5.032 10.512-3.379 5.141-1.653c21.772-7 39.683-7 61.442 0l2.101.672z" fill="#E6B9A6" stroke="#2F3645" stroke-width="3" stroke-miterlimit="10"/><path d="M70.305 66.83H64M70.305 66.83 66.669 63M66.669 70.66l3.636-3.83M95.841 66.83h6.305M95.841 66.83l3.636 3.83M99.477 63l-3.636 3.83M89.968 69.524c0-.667-.265-1.308-.736-1.78a2.508 2.508 0 0 0-1.776-.738h-8.802c-.666 0-1.305.266-1.776.738a2.522 2.522 0 0 0-.735 1.78c0 2.645 3.106 4.79 6.94 4.79 3.834 0 6.938-2.145 6.938-4.79" stroke="#2F3645" stroke-width="3" stroke-miterlimit="10" stroke-linecap="round"/><path d="M198.108 33.297c-2.444-2.45-4.276-10.711-4.276-10.711s-8.241-1.837-10.832-4.437c2.543-2.55 10.988-4.588 10.988-4.588S195.62 5.501 198.114 3c2.485 2.5 4.427 10.862 4.427 10.862s8.141 1.736 10.682 4.287c-2.397 2.403-10.533 4.136-10.533 4.136s-1.947 8.362-4.582 11.012zM226.424 40.883c-1.523-1.529-2.669-6.67-2.669-6.67s-5.139-1.145-6.755-2.766c1.586-1.59 6.849-2.86 6.849-2.86s1.016-5.029 2.571-6.587c1.556 1.558 2.761 6.773 2.761 6.773s5.074 1.084 6.66 2.674c-1.488 1.485-6.564 2.567-6.564 2.567s-1.205 5.208-2.853 6.869zM12.424 174.883c-1.523-1.529-2.67-6.669-2.67-6.669S4.617 167.068 3 165.447c1.586-1.59 6.849-2.86 6.849-2.86s1.016-5.028 2.57-6.587c1.557 1.559 2.762 6.773 2.762 6.773s5.074 1.084 6.66 2.674c-1.488 1.485-6.564 2.567-6.564 2.567s-1.205 5.208-2.853 6.869z" fill="#FEC420" stroke="#2F3645" stroke-width="3" stroke-miterlimit="10" stroke-linecap="round"/></svg>