<svg width="178" height="130" fill="none" xmlns="http://www.w3.org/2000/svg"><path d="m163.796 103.75-8.009-2.577c-18.847-6.06-34.352-6.06-53.188 0l-13.552 4.356-13.55-4.356c-18.865-6.063-34.353-6.063-53.202.002l-8.023 2.575a4.237 4.237 0 0 1-5.532-4.031V13.993a4.24 4.24 0 0 1 2.944-4.026l10.611-3.41C41.145.484 56.632.484 75.485 6.55l13.552 4.356 13.551-4.356c18.847-6.065 34.339-6.065 53.189 0l10.611 3.418a4.24 4.24 0 0 1 2.95 4.034v85.72a4.23 4.23 0 0 1-3.571 4.184 4.221 4.221 0 0 1-1.971-.155z" fill="#fff" stroke="#2F3645" stroke-width="3" stroke-miterlimit="10"/><path d="M89.001 105.531V10.905" stroke="#2F3645" stroke-width="3" stroke-miterlimit="10"/><path d="m157.581 23.076-1.8-.58c-18.706-6.012-34.108-6.057-52.763-.135l-.422.135M157.581 33.603l-1.8-.58c-18.706-6.013-34.108-6.057-52.763-.135l-.422.135M157.581 45.885l-1.8-.58c-18.706-6.012-34.108-6.058-52.763-.136l-.422.137M157.581 56.412l-1.8-.58c-18.71-6.012-34.112-6.059-52.767-.132l-.422.137M76.087 65.042l-1.8-.58c-18.706-6.012-34.108-6.058-52.763-.136l-.422.137M76.087 75.57l-1.8-.58c-18.708-6.013-34.108-6.06-52.763-.137l-.422.137M76.087 86.096l-1.8-.58c-18.708-6.002-34.108-6.059-52.763-.137l-.422.137" stroke="#2F3645" stroke-width="3" stroke-miterlimit="10" stroke-linecap="round"/><path d="m157.581 101.755 6.217 1.995a4.221 4.221 0 0 0 3.79-.609 4.23 4.23 0 0 0 1.74-3.422V21.61l3.488 1.035c1.896.563 3.184 2.192 3.184 4.032v85.728c0 2.872-3.031 4.91-5.994 4.031l-8.689-2.571c-20.423-6.059-37.212-6.059-57.633 0l-14.683 4.356-14.685-4.356c-20.421-6.059-37.21-6.059-57.631 0l-8.691 2.571c-2.95.879-5.994-1.159-5.994-4.031V26.678c0-1.84 1.288-3.47 3.184-4.032l3.56-1.054v78.129a4.236 4.236 0 0 0 5.528 4.029l8.008-2.577c18.85-6.06 34.352-6.06 53.191 0l13.551 4.356 9.1-2.925 4.451-1.431c18.847-6.06 34.352-6.06 53.189 0l1.819.582z" stroke="#2F3645" stroke-width="3" stroke-miterlimit="10"/><path d="m172.66 119.68-17.174-23.983a4.657 4.657 0 0 0-5.553-1.854l-4.154-6.506a27.94 27.94 0 1 0-5.383 3.44l4.156 6.503a4.659 4.659 0 0 0-.649 5.819l17.172 23.985a4.659 4.659 0 0 0 6.428 1.416l3.741-2.388a4.656 4.656 0 0 0 1.416-6.432zm-63.802-41.69a22.882 22.882 0 1 1 38.563-24.647 22.882 22.882 0 0 1-38.563 24.647z" fill="#2F3645"/><path d="M114.508 74.397a2.56 2.56 0 1 0 0-5.12 2.56 2.56 0 0 0 0 5.12zM124.951 48.324a16.92 16.92 0 0 1 5.711.096 2.615 2.615 0 0 1 2.127 2.385c.027.383-.031.767-.169 1.124a2.61 2.61 0 0 1-2.925 1.61 11.692 11.692 0 0 0-13.863 11.147 2.606 2.606 0 0 1-3.341 2.407 2.603 2.603 0 0 1-1.865-2.594c.264-7.956 6.2-14.926 14.325-16.175z" fill="#2F3645"/><g opacity=".7" stroke="#2F3645" stroke-width="3" stroke-miterlimit="10" stroke-linecap="round"><path d="M38.567 32.614c5.73 5.006 14.758 5.04 20.532.074l.088-.075M29.014 25.836v8.2M68.74 25.836v8.2"/></g></svg>