<svg width="24" height="24" viewBox="0 0 24 24" fill="none" xmlns="http://www.w3.org/2000/svg">
<path d="M18.4414 11.3458C13.9452 7.80868 7.17029 8.42757 3.4707 13.2013L3.26855 13.4708L3.22656 13.5353C3.03531 13.8636 3.11977 14.2903 3.43359 14.5187C3.7476 14.7469 4.18012 14.6963 4.43359 14.4132L4.48145 14.3536L4.65527 14.1222C7.79384 10.0719 13.5092 9.50284 17.3711 12.4161L15.7285 14.0587C15.4138 14.3737 15.6367 14.9122 16.082 14.9122H20.375C20.651 14.9122 20.8748 14.6882 20.875 14.4122V10.1193C20.875 9.67381 20.3365 9.45076 20.0215 9.76575L18.4414 11.3458Z" fill="#303030"/>
</svg>
