<svg width="24" height="24" viewBox="0 0 24 24" fill="none" xmlns="http://www.w3.org/2000/svg">
<path d="M5.55859 11.3458C10.0548 7.80868 16.8297 8.42757 20.5293 13.2013L20.7314 13.4708L20.7734 13.5353C20.9647 13.8636 20.8802 14.2903 20.5664 14.5187C20.2524 14.7469 19.8199 14.6963 19.5664 14.4132L19.5186 14.3536L19.3447 14.1222C16.2062 10.0719 10.4908 9.50284 6.62891 12.4161L8.27148 14.0587C8.58615 14.3737 8.36328 14.9122 7.91797 14.9122H3.625C3.34897 14.9122 3.12518 14.6882 3.125 14.4122V10.1193C3.125 9.67381 3.66353 9.45076 3.97852 9.76575L5.55859 11.3458Z" fill="#303030"/>
</svg>
