<svg width="24" height="24" viewBox="0 0 24 24" fill="none" xmlns="http://www.w3.org/2000/svg">
<path d="M14 4.00055C15.2047 3.33131 17.2 3.60671 18.2695 3.82673C18.7058 3.91673 18.9999 4.308 19 4.75348V7.00055L19.1543 7.00446C20.7394 7.08478 22 8.39546 22 10.0006V13.4166C21.5955 12.9447 21.083 12.5682 20.5 12.3267V10.0006C20.5 9.17213 19.8284 8.50055 19 8.50055V12.025C18.9928 12.0249 18.9857 12.025 18.9785 12.025C18.4559 12.025 17.9572 12.127 17.5 12.3101V5.20954C17.0932 5.14257 16.6243 5.08717 16.1611 5.07966C15.5553 5.06983 15.1105 5.14543 14.8359 5.26032L14.7285 5.3111C14.4858 5.44597 14.1281 5.77746 13.7666 6.19001C13.6027 6.37709 13.4629 6.55138 13.3652 6.67829C13.3169 6.74111 13.2791 6.79182 13.2549 6.82477C13.2432 6.84074 13.2346 6.85283 13.2295 6.85993C13.2273 6.86303 13.2254 6.86561 13.2246 6.86677V6.86579L12 8.59919L10.7754 6.86579V6.86677L10.7705 6.85993C10.7654 6.85283 10.7568 6.84074 10.7451 6.82477C10.7209 6.79182 10.6831 6.74111 10.6348 6.67829C10.5371 6.55138 10.3973 6.37709 10.2334 6.19001C9.91723 5.82915 9.60418 5.53002 9.36816 5.37067L9.27148 5.3111C9.01359 5.16792 8.53117 5.06843 7.83887 5.07966C7.37569 5.08717 6.90685 5.14257 6.5 5.20954V14.315C7.35485 14.2617 8.50064 14.2658 9.45703 14.5718L9.80566 14.6978C10.6147 15.026 11.3867 15.5654 11.915 15.9703C11.9439 15.9924 11.972 16.0158 12 16.0377C12.028 16.0158 12.0561 15.9924 12.085 15.9703C12.6887 15.5076 13.6111 14.8701 14.543 14.5718L14.7578 14.5084C14.9481 14.4574 15.1444 14.4186 15.3428 14.3873C15.1233 14.88 15.0006 15.4255 15 15.9996V16.0006L14.7451 16.0933C13.9619 16.4136 13.116 17.0511 12.5732 17.5006H15.292C15.528 18.0815 15.8968 18.5943 16.3613 19.0006H5L4.8457 18.9966C3.26072 18.9163 2.00026 17.6054 2 16.0006V10.0006C2 8.39546 3.26057 7.08478 4.8457 7.00446L5 7.00055V4.75348C5.00006 4.308 5.29422 3.91673 5.73047 3.82673C6.79999 3.60671 8.79528 3.33131 10 4.00055C10.9612 4.53475 11.9909 5.98773 12 6.00055C12.0085 5.98853 12.9134 4.7109 13.8184 4.11091L14 4.00055ZM11.7744 17.7965L11.7197 17.7476C11.6783 17.7115 11.6311 17.6741 11.582 17.6324C11.6539 17.6935 11.7193 17.7479 11.7744 17.7965ZM5 8.50055C4.17157 8.50055 3.5 9.17213 3.5 10.0006V16.0006C3.50027 16.8288 4.17174 17.5006 5 17.5006H11.4248C10.882 17.0513 10.0376 16.4134 9.25488 16.0933L9 16.0006C8.17927 15.7379 7.0468 15.7652 6.19629 15.8424L6.08008 15.8463C5.54141 15.8386 5.06789 15.4396 5.00684 14.9088L5 14.7935V8.50055Z" fill="#303030"/>
<path d="M18.9785 13.0254C20.6236 13.0254 21.957 14.3588 21.957 16.0039C21.957 16.5607 21.8011 17.0796 21.5352 17.5254L22.7803 18.7627L22.832 18.8184C23.0713 19.1101 23.0549 19.542 22.7832 19.8154C22.5115 20.0885 22.0802 20.1074 21.7871 19.8701L21.7305 19.8184L20.4785 18.5742C20.0377 18.832 19.5261 18.9824 18.9785 18.9824C17.3336 18.9823 16.0001 17.6489 16 16.0039C16 14.3589 17.3335 13.0255 18.9785 13.0254ZM18.9785 14.5146C18.1561 14.5147 17.4893 15.1814 17.4893 16.0039C17.4893 16.8263 18.1561 17.4931 18.9785 17.4932C19.801 17.4932 20.4677 16.8264 20.4678 16.0039C20.4678 15.1814 19.8011 14.5146 18.9785 14.5146Z" fill="#303030"/>
</svg>
