<svg width="24" height="24" viewBox="0 0 24 24" fill="none" xmlns="http://www.w3.org/2000/svg">
<path d="M17.5 21.25L12.6624 18.68C12.5268 18.6145 12.3781 18.5804 12.2274 18.5804C12.0768 18.5804 11.9281 18.6145 11.7924 18.68L6.49243 21.25C6.33515 21.339 6.15669 21.3837 5.97604 21.3794C5.79538 21.375 5.61927 21.3218 5.46643 21.2254C5.3136 21.129 5.18975 20.993 5.10804 20.8318C5.02634 20.6706 4.98984 20.4903 5.00243 20.31V5.1C5.00111 4.82554 5.05387 4.5535 5.15769 4.29943C5.26151 4.04535 5.41435 3.81421 5.6075 3.61921C5.80064 3.42421 6.03031 3.26916 6.28338 3.16291C6.53645 3.05667 6.80796 3.00131 7.08243 3H16.92C17.1945 3.00131 17.466 3.05667 17.7191 3.16291C17.9721 3.26916 18.2018 3.42421 18.3949 3.61921C18.5881 3.81421 18.7409 4.04535 18.8447 4.29943C18.9486 4.5535 19.0013 4.82554 19 5.1V20.31C18.9985 20.4864 18.9527 20.6596 18.8666 20.8136C18.7805 20.9676 18.6571 21.0974 18.5076 21.1911C18.3581 21.2847 18.1875 21.3392 18.0113 21.3495C17.8352 21.3598 17.6594 21.3256 17.5 21.25Z" stroke="#303030" stroke-width="1.5" stroke-miterlimit="10"/>
<path d="M8 11L16 11" stroke="#303030" stroke-width="1.5" stroke-linecap="round" stroke-linejoin="round"/>
<path d="M12 7V14.86" stroke="#303030" stroke-width="1.5" stroke-linecap="round" stroke-linejoin="round"/>
</svg>
