<svg width="20" height="20" viewBox="0 0 20 20" fill="none" xmlns="http://www.w3.org/2000/svg">
<g clip-path="url(#clip0_2547_5113)">
<path d="M10 1.5C11.6811 1.5 13.3245 1.99852 14.7224 2.93251C16.1202 3.8665 17.2096 5.19402 17.853 6.74719C18.4963 8.30036 18.6647 10.0094 18.3367 11.6583C18.0087 13.3071 17.1992 14.8217 16.0104 16.0104C14.8217 17.1992 13.3071 18.0087 11.6583 18.3367C10.0094 18.6646 8.30037 18.4963 6.7472 17.853C5.19402 17.2096 3.8665 16.1202 2.93251 14.7223C1.99852 13.3245 1.5 11.6811 1.5 10C1.50265 7.74647 2.39903 5.586 3.99252 3.99252C5.58601 2.39903 7.74648 1.50265 10 1.5ZM10 0C8.02219 0 6.08879 0.58649 4.4443 1.6853C2.79981 2.78412 1.51809 4.3459 0.761209 6.17317C0.00433284 8.00043 -0.193701 10.0111 0.192152 11.9509C0.578004 13.8907 1.53041 15.6725 2.92894 17.0711C4.32746 18.4696 6.10929 19.422 8.0491 19.8079C9.98891 20.1937 11.9996 19.9957 13.8268 19.2388C15.6541 18.4819 17.2159 17.2002 18.3147 15.5557C19.4135 13.9112 20 11.9778 20 10C20 7.34784 18.9464 4.8043 17.0711 2.92893C15.1957 1.05357 12.6522 0 10 0Z" fill="#FF0000"/>
<path d="M4.01001 10.01H15.99" stroke="#FF0000" stroke-width="1.5" stroke-linecap="round" stroke-linejoin="round"/>
</g>
<defs>
<clipPath id="clip0_2547_5113">
<rect width="20" height="20" fill="white"/>
</clipPath>
</defs>
</svg>
