<svg width="24" height="24" viewBox="0 0 24 24" fill="none" xmlns="http://www.w3.org/2000/svg">
<path d="M18.0838 4.04652L19.9435 5.90622C20.131 6.09375 20.2364 6.34811 20.2364 6.61332C20.2364 6.87854 20.131 7.13289 19.9435 7.32043L17.4686 9.7953L14.1876 6.51433L16.6555 4.04652C16.7486 3.95153 16.8597 3.87606 16.9823 3.82454C17.1049 3.77302 17.2366 3.74649 17.3696 3.74649C17.5026 3.74649 17.6343 3.77302 17.7569 3.82454C17.8796 3.87606 17.9907 3.95153 18.0838 4.04652Z" stroke="#2F3645" stroke-width="1.5" stroke-linecap="round" stroke-linejoin="round"/>
<path d="M17.4636 9.79148L14.1897 6.51758L4.89124 15.816L8.16515 19.0899L17.4636 9.79148Z" stroke="#2F3645" stroke-width="1.52" stroke-linecap="round" stroke-linejoin="round"/>
<path d="M3.75 20.25L8.2 19.12L4.88 15.8L3.75 20.25Z" stroke="#2F3645" stroke-width="1.5" stroke-linecap="round" stroke-linejoin="round"/>
</svg>
