<svg width="4" height="20" viewBox="0 0 4 20" fill="none" xmlns="http://www.w3.org/2000/svg">
<g clip-path="url(#clip0_2547_5153)">
<path d="M1.79008 2.99996C2.45834 2.99996 3.00008 2.45822 3.00008 1.78996C3.00008 1.12169 2.45834 0.579956 1.79008 0.579956C1.12181 0.579956 0.580078 1.12169 0.580078 1.78996C0.580078 2.45822 1.12181 2.99996 1.79008 2.99996Z" fill="#2F3645" stroke="#2F3645" stroke-width="1.17" stroke-miterlimit="10"/>
<path d="M1.79008 11.14C2.45834 11.14 3.00008 10.5982 3.00008 9.92997C3.00008 9.26171 2.45834 8.71997 1.79008 8.71997C1.12181 8.71997 0.580078 9.26171 0.580078 9.92997C0.580078 10.5982 1.12181 11.14 1.79008 11.14Z" fill="#2F3645" stroke="#2F3645" stroke-width="1.17" stroke-miterlimit="10"/>
<path d="M1.79008 19.28C2.45834 19.28 3.00008 18.7382 3.00008 18.07C3.00008 17.4017 2.45834 16.86 1.79008 16.86C1.12181 16.86 0.580078 17.4017 0.580078 18.07C0.580078 18.7382 1.12181 19.28 1.79008 19.28Z" fill="#2F3645" stroke="#2F3645" stroke-width="1.17" stroke-miterlimit="10"/>
</g>
<defs>
<clipPath id="clip0_2547_5153">
<rect width="3.59" height="19.86" fill="white"/>
</clipPath>
</defs>
</svg>
