<svg width="24" height="24" viewBox="0 0 24 24" fill="none" xmlns="http://www.w3.org/2000/svg">
<path d="M11.13 4.54C12.4314 4.54 13.7036 4.92591 14.7856 5.64893C15.8677 6.37195 16.7111 7.39961 17.2091 8.60194C17.7071 9.80428 17.8375 11.1273 17.5836 12.4037C17.3297 13.6801 16.703 14.8525 15.7828 15.7728C14.8625 16.693 13.6901 17.3197 12.4137 17.5736C11.1373 17.8275 9.81428 17.6972 8.61194 17.1991C7.4096 16.7011 6.38195 15.8577 5.65893 14.7757C4.93591 13.6936 4.55 12.4214 4.55 11.12C4.55264 9.37569 5.24674 7.70358 6.48016 6.47016C7.71357 5.23674 9.38568 4.54264 11.13 4.54ZM11.13 3C9.52161 3 7.94936 3.47707 6.61217 4.37085C5.27499 5.26463 4.23295 6.53495 3.6179 8.0211C3.00286 9.50724 2.84244 11.1424 3.15695 12.7198C3.47146 14.2971 4.24676 15.7457 5.38476 16.8823C6.52277 18.0189 7.97233 18.7924 9.55005 19.105C11.1278 19.4176 12.7628 19.2551 14.2481 18.6383C15.7335 18.0214 17.0026 16.9778 17.8947 15.6395C18.7868 14.3012 19.262 12.7284 19.26 11.12C19.2573 8.96552 18.3996 6.90019 16.8752 5.37769C15.3509 3.85518 13.2845 3 11.13 3Z" fill="currentColor"/>
<path d="M16.51 16.49L22 21.97" stroke="currentColor" stroke-width="1.5" stroke-linecap="round" stroke-linejoin="round"/>
</svg>
