<svg width="24" height="24" viewBox="0 0 24 24" fill="none" xmlns="http://www.w3.org/2000/svg">
<path d="M12 3.67C13.6447 3.67198 15.2519 4.16137 16.6186 5.07634C17.9853 5.99131 19.0501 7.29082 19.6786 8.81069C20.3071 10.3306 20.471 12.0026 20.1496 13.6156C19.8283 15.2286 19.0361 16.7102 17.8731 17.8731C16.7102 19.0361 15.2286 19.8283 13.6156 20.1496C12.0026 20.471 10.3306 20.3071 8.81069 19.6786C7.29082 19.0501 5.99132 17.9853 5.07634 16.6186C4.16137 15.2519 3.67198 13.6447 3.67 12C3.67 9.79075 4.54763 7.67198 6.1098 6.1098C7.67198 4.54762 9.79075 3.67 12 3.67ZM12 2C10.0222 2 8.08879 2.58649 6.4443 3.6853C4.79981 4.78412 3.51809 6.3459 2.76121 8.17317C2.00433 10.0004 1.8063 12.0111 2.19215 13.9509C2.578 15.8907 3.53041 17.6725 4.92894 19.0711C6.32746 20.4696 8.10929 21.422 10.0491 21.8079C11.9889 22.1937 13.9996 21.9957 15.8268 21.2388C17.6541 20.4819 19.2159 19.2002 20.3147 17.5557C21.4135 15.9112 22 13.9778 22 12C22 9.34784 20.9464 6.8043 19.0711 4.92893C17.1957 3.05357 14.6522 2 12 2Z" fill="#2F3645"/>
<path d="M8.02002 12.86L10.53 15.37" stroke="#2F3645" stroke-width="1.5" stroke-linecap="round" stroke-linejoin="round"/>
<path d="M16.6601 9.23999L10.5701 15.33" stroke="#2F3645" stroke-width="1.5" stroke-linecap="round" stroke-linejoin="round"/>
</svg>
