<svg width="20" height="20" viewBox="0 0 20 20" fill="none" xmlns="http://www.w3.org/2000/svg">
<g clip-path="url(#clip0_2547_5147)">
<path d="M8.11999 1.54C9.42139 1.54 10.6936 1.92591 11.7756 2.64893C12.8577 3.37195 13.7011 4.39961 14.1991 5.60194C14.6971 6.80428 14.8274 8.1273 14.5736 9.40369C14.3197 10.6801 13.693 11.8525 12.7727 12.7728C11.8525 13.693 10.6801 14.3197 9.40368 14.5736C8.12729 14.8275 6.80427 14.6972 5.60193 14.1991C4.39959 13.7011 3.37194 12.8577 2.64892 11.7757C1.9259 10.6936 1.53999 9.4214 1.53999 8.12C1.54263 6.37569 2.23673 4.70358 3.47015 3.47016C4.70356 2.23674 6.37568 1.54264 8.11999 1.54ZM8.11999 0C6.5116 1.21669e-06 4.93935 0.477071 3.60216 1.37085C2.26498 2.26463 1.22294 3.53495 0.607895 5.0211C-0.00715035 6.50724 -0.167566 8.14243 0.146943 9.71977C0.461452 11.2971 1.23675 12.7457 2.37475 13.8823C3.51276 15.0189 4.96232 15.7924 6.54004 16.105C8.11777 16.4176 9.75275 16.2551 11.2381 15.6383C12.7235 15.0214 13.9926 13.9778 14.8847 12.6395C15.7768 11.3012 16.252 9.72839 16.25 8.12C16.2473 5.96552 15.3896 3.90019 13.8652 2.37769C12.3408 0.855177 10.2745 -1.62979e-06 8.11999 0Z" fill="#2F3645"/>
<path d="M13.5 13.49L18.99 18.97" stroke="#2F3645" stroke-width="1.5" stroke-linecap="round" stroke-linejoin="round"/>
</g>
<defs>
<clipPath id="clip0_2547_5147">
<rect width="19.74" height="19.72" fill="white"/>
</clipPath>
</defs>
</svg>
