<svg width="20" height="20" viewBox="0 0 20 20" fill="none" xmlns="http://www.w3.org/2000/svg">
<g clip-path="url(#clip0_2547_5119)">
<path d="M10 1.67C11.6447 1.67198 13.2519 2.16137 14.6186 3.07634C15.9853 3.99131 17.0501 5.29082 17.6786 6.81069C18.3071 8.33056 18.471 10.0026 18.1496 11.6156C17.8283 13.2286 17.0361 14.7102 15.8731 15.8731C14.7102 17.0361 13.2286 17.8283 11.6156 18.1496C10.0026 18.471 8.33057 18.3071 6.81069 17.6786C5.29082 17.0501 3.99132 15.9853 3.07634 14.6186C2.16137 13.2519 1.67198 11.6447 1.67 10C1.67 7.79075 2.54763 5.67198 4.1098 4.1098C5.67198 2.54762 7.79075 1.67 10 1.67ZM10 0C8.02219 0 6.08879 0.58649 4.4443 1.6853C2.79981 2.78412 1.51809 4.3459 0.761209 6.17317C0.00433284 8.00043 -0.193701 10.0111 0.192152 11.9509C0.578004 13.8907 1.53041 15.6725 2.92894 17.0711C4.32746 18.4696 6.10929 19.422 8.0491 19.8079C9.98891 20.1937 11.9996 19.9957 13.8268 19.2388C15.6541 18.4819 17.2159 17.2002 18.3147 15.5557C19.4135 13.9112 20 11.9778 20 10C20 7.34784 18.9464 4.8043 17.0711 2.92893C15.1957 1.05357 12.6522 0 10 0Z" fill="#2F3645"/>
<path d="M6.02002 10.8601L8.53002 13.3701" stroke="#2F3645" stroke-width="1.5" stroke-linecap="round" stroke-linejoin="round"/>
<path d="M14.6601 7.23999L8.57007 13.33" stroke="#2F3645" stroke-width="1.5" stroke-linecap="round" stroke-linejoin="round"/>
</g>
<defs>
<clipPath id="clip0_2547_5119">
<rect width="19.98" height="19.98" fill="white"/>
</clipPath>
</defs>
</svg>
