<svg width="24" height="24" viewBox="0 0 24 24" fill="none" xmlns="http://www.w3.org/2000/svg">
<path d="M11.7901 5.42C12.4583 5.42 13.0001 4.87826 13.0001 4.21C13.0001 3.54174 12.4583 3 11.7901 3C11.1218 3 10.5801 3.54174 10.5801 4.21C10.5801 4.87826 11.1218 5.42 11.7901 5.42Z" fill="currentColor" stroke="currentColor" stroke-width="1.17" stroke-miterlimit="10"/>
<path d="M11.7901 13.56C12.4583 13.56 13.0001 13.0183 13.0001 12.35C13.0001 11.6818 12.4583 11.14 11.7901 11.14C11.1218 11.14 10.5801 11.6818 10.5801 12.35C10.5801 13.0183 11.1218 13.56 11.7901 13.56Z" fill="currentColor" stroke="currentColor" stroke-width="1.17" stroke-miterlimit="10"/>
<path d="M11.7901 21.7C12.4583 21.7 13.0001 21.1583 13.0001 20.49C13.0001 19.8218 12.4583 19.28 11.7901 19.28C11.1218 19.28 10.5801 19.8218 10.5801 20.49C10.5801 21.1583 11.1218 21.7 11.7901 21.7Z" fill="currentColor" stroke="currentColor" stroke-width="1.17" stroke-miterlimit="10"/>
</svg>
