<svg width="24" height="24" viewBox="0 0 24 24" fill="none" xmlns="http://www.w3.org/2000/svg">
<path d="M17.3901 19.44V19.74C17.3822 20.2157 17.1863 20.6689 16.8453 21.0005C16.5042 21.3322 16.0458 21.5154 15.5701 21.51H5.91008C5.43344 21.5154 4.97391 21.3325 4.63128 21.0012C4.28865 20.6698 4.09058 20.2166 4.08008 19.74V6.74002C4.09576 6.26787 4.29642 5.82081 4.63878 5.49529C4.98113 5.16977 5.43774 4.99189 5.91008 5.00002H6.48008" stroke="#303030" stroke-width="1.56" stroke-linecap="round" stroke-linejoin="round"/>
<path d="M19.0501 7.47003H15.7401C15.6337 7.47003 15.5284 7.44908 15.4301 7.40837C15.3318 7.36767 15.2425 7.308 15.1673 7.23279C15.0921 7.15757 15.0324 7.06828 14.9917 6.97001C14.951 6.87173 14.9301 6.7664 14.9301 6.66003V3.35003C14.9251 3.18924 14.9681 3.0306 15.0536 2.89434C15.1391 2.75808 15.2633 2.65036 15.4102 2.58493C15.5572 2.51949 15.7203 2.4993 15.8788 2.52692C16.0373 2.55455 16.1839 2.62874 16.3001 2.74003L19.6001 6.04003C19.7293 6.14849 19.8215 6.29461 19.8637 6.45799C19.9059 6.62136 19.896 6.79384 19.8355 6.95134C19.7749 7.10883 19.6667 7.24348 19.5258 7.33647C19.385 7.42946 19.2187 7.47615 19.0501 7.47003Z" stroke="#303030" stroke-width="1.5" stroke-linecap="round" stroke-linejoin="round"/>
<path d="M19.9203 6.81999V17.2C19.9203 17.432 19.8744 17.6616 19.7854 17.8758C19.6963 18.09 19.5658 18.2845 19.4013 18.448C19.2368 18.6116 19.0416 18.741 18.8269 18.8289C18.6122 18.9168 18.3823 18.9613 18.1503 18.96H8.82029C8.58833 18.9613 8.35839 18.9168 8.1437 18.8289C7.92901 18.741 7.73381 18.6116 7.56932 18.448C7.40482 18.2845 7.27429 18.09 7.18522 17.8758C7.09614 17.6616 7.05029 17.432 7.05029 17.2V4.25999C7.05029 3.79056 7.23677 3.34035 7.56871 3.00841C7.90065 2.67647 8.35086 2.48999 8.82029 2.48999H15.6203" stroke="#303030" stroke-width="1.5" stroke-linecap="round" stroke-linejoin="round"/>
</svg>
