<svg width="24" height="24" viewBox="0 0 24 24" fill="none" xmlns="http://www.w3.org/2000/svg">
<path d="M11.9337 6.6133C13.3941 4.97373 15.4147 3.95059 17.339 4.32619L17.5528 4.37404L17.5704 4.37795L17.587 4.38283C18.368 4.61916 19.0911 5.01507 19.7101 5.54396C20.329 6.07288 20.8307 6.72375 21.1817 7.45607C21.5327 8.18829 21.7258 8.98522 21.7482 9.79591C21.7704 10.6068 21.621 11.4138 21.3107 12.1641L21.3028 12.1846L21.2931 12.2041C20.8208 13.1783 19.822 14.3169 19.0089 15.1631C18.5907 15.5983 18.2003 15.9783 17.9142 16.249C17.771 16.3845 17.6535 16.4932 17.5714 16.5684C17.5304 16.6059 17.498 16.6352 17.4757 16.6553C17.4646 16.6653 17.4553 16.6733 17.4493 16.6787C17.4465 16.6813 17.4441 16.6832 17.4425 16.6846C17.4417 16.6853 17.441 16.6861 17.4405 16.6865L17.4396 16.6875L17.4103 16.7129L12.7345 20.4629L12.715 20.4785C12.5086 20.6333 12.263 20.7246 12.0079 20.7451L11.8985 20.75C11.6048 20.75 11.3179 20.6552 11.0821 20.4785L11.0626 20.4629L6.38683 16.7129L6.38097 16.708L6.37413 16.7022L6.37316 16.7012L6.3712 16.7002C6.36958 16.6988 6.36727 16.6968 6.36437 16.6944C6.35857 16.6895 6.3506 16.6819 6.33995 16.6729C6.31856 16.6547 6.28742 16.6286 6.24815 16.5947C6.16949 16.5269 6.05692 16.429 5.92003 16.3067C5.64659 16.0624 5.2732 15.7192 4.87413 15.3242C4.10161 14.5597 3.14288 13.5139 2.69444 12.5928L2.67491 12.5537L2.66026 12.5127C1.38276 8.87185 3.25369 5.11396 6.27257 4.37404C8.2894 3.87858 10.4092 4.91193 11.9337 6.6133Z" fill="#303030"/>
</svg>
