<svg width="32" height="32" viewBox="0 0 32 32" fill="none" xmlns="http://www.w3.org/2000/svg">
<path d="M7.3335 12.6666H12.6668V7.33325H7.3335V12.6666ZM14.6668 13.052L14.659 13.2174C14.5762 14.0314 13.8881 14.6665 13.0522 14.6666H6.94808L6.78271 14.6588C6.02306 14.5814 5.41864 13.977 5.34131 13.2174L5.3335 13.052V6.94784C5.33359 6.11198 5.9687 5.42393 6.78271 5.34106L6.94808 5.33325H13.0522C13.9439 5.33335 14.6667 6.05617 14.6668 6.94784V13.052Z" fill="#303030"/>
<path d="M7.3335 24.6666H12.6668V19.3333H7.3335V24.6666ZM14.6668 25.052L14.659 25.2174C14.5762 26.0314 13.8881 26.6665 13.0522 26.6666H6.94808L6.78271 26.6588C6.02306 26.5814 5.41864 25.977 5.34131 25.2174L5.3335 25.052V18.9478C5.33359 18.112 5.9687 17.4239 6.78271 17.3411L6.94808 17.3333H13.0522C13.9439 17.3333 14.6667 18.0562 14.6668 18.9478V25.052Z" fill="#303030"/>
<path d="M19.3335 24.6666H24.6668V19.3333H19.3335V24.6666ZM26.6668 25.052L26.659 25.2174C26.5762 26.0314 25.8881 26.6665 25.0522 26.6666H18.9481L18.7827 26.6588C18.0231 26.5814 17.4186 25.977 17.3413 25.2174L17.3335 25.052V18.9478C17.3336 18.112 17.9687 17.4239 18.7827 17.3411L18.9481 17.3333H25.0522C25.9439 17.3333 26.6667 18.0562 26.6668 18.9478V25.052Z" fill="#303030"/>
<path d="M22.0001 13.7712L25.7713 10L22.0001 6.22876L18.2288 10L22.0001 13.7712ZM27.458 8.85832L27.5694 8.98077C28.0864 9.61496 28.049 10.5506 27.458 11.1417L23.1417 15.458L23.0193 15.5694C22.4274 16.0519 21.5727 16.0519 20.9808 15.5694L20.8584 15.458L16.5421 11.1417C15.9511 10.5506 15.9137 9.61496 16.4307 8.98077L16.5421 8.85832L20.8584 4.54202C21.4889 3.91159 22.5112 3.91159 23.1417 4.54202L27.458 8.85832Z" fill="#303030"/>
</svg>
