<svg width="24" height="24" viewBox="0 0 24 24" fill="none" xmlns="http://www.w3.org/2000/svg">
<path d="M7.4971 4H3.73964C3.19065 4 2.74561 4.49147 2.74561 5.09772V9.24712C2.74561 9.85338 3.19065 10.3448 3.73964 10.3448H7.4971C8.04609 10.3448 8.49113 9.85338 8.49113 9.24712V5.09772C8.49113 4.49147 8.04609 4 7.4971 4Z" stroke="#2F3645" stroke-width="1.5" stroke-linecap="round" stroke-linejoin="round"/>
<path d="M7.4971 13.7258H3.73964C3.19065 13.7258 2.74561 14.2173 2.74561 14.8236V18.973C2.74561 19.5792 3.19065 20.0707 3.73964 20.0707H7.4971C8.04609 20.0707 8.49113 19.5792 8.49113 18.973V14.8236C8.49113 14.2173 8.04609 13.7258 7.4971 13.7258Z" stroke="#2F3645" stroke-width="1.5" stroke-linecap="round" stroke-linejoin="round"/>
<path d="M12.0696 4.86719H21.2545" stroke="#2F3645" stroke-width="1.5" stroke-linecap="round" stroke-linejoin="round"/>
<path d="M12.0696 9.02759H17.3877" stroke="#2F3645" stroke-width="1.5" stroke-linecap="round" stroke-linejoin="round"/>
<path d="M12.0696 14.8126H21.2545" stroke="#2F3645" stroke-width="1.5" stroke-linecap="round" stroke-linejoin="round"/>
<path d="M12.0696 18.984H17.3877" stroke="#2F3645" stroke-width="1.5" stroke-linecap="round" stroke-linejoin="round"/>
</svg>
