<svg width="24" height="24" viewBox="0 0 24 24" fill="none" xmlns="http://www.w3.org/2000/svg">
<path d="M9.53 5.20227H5.75C5.19772 5.20227 4.75 5.64999 4.75 6.20227V9.98227C4.75 10.5346 5.19772 10.9823 5.75 10.9823H9.53C10.0823 10.9823 10.53 10.5346 10.53 9.98227V6.20227C10.53 5.64999 10.0823 5.20227 9.53 5.20227Z" stroke="currentColor" stroke-width="1.5" stroke-linecap="round" stroke-linejoin="round"/>
<path d="M9.53 14.0623H5.75C5.19772 14.0623 4.75 14.51 4.75 15.0623V18.8423C4.75 19.3945 5.19772 19.8423 5.75 19.8423H9.53C10.0823 19.8423 10.53 19.3945 10.53 18.8423V15.0623C10.53 14.51 10.0823 14.0623 9.53 14.0623Z" stroke="currentColor" stroke-width="1.5" stroke-linecap="round" stroke-linejoin="round"/>
<path d="M15.7489 4.70707L13.076 7.37993C12.6855 7.77045 12.6855 8.40362 13.076 8.79414L15.7489 11.467C16.1394 11.8575 16.7726 11.8575 17.1631 11.467L19.8359 8.79414C20.2265 8.40362 20.2265 7.77045 19.8359 7.37993L17.1631 4.70707C16.7726 4.31654 16.1394 4.31654 15.7489 4.70707Z" stroke="currentColor" stroke-width="1.5" stroke-linecap="round" stroke-linejoin="round"/>
<path d="M18.3501 14.0623H14.5701C14.0178 14.0623 13.5701 14.51 13.5701 15.0623V18.8423C13.5701 19.3945 14.0178 19.8423 14.5701 19.8423H18.3501C18.9024 19.8423 19.3501 19.3945 19.3501 18.8423V15.0623C19.3501 14.51 18.9024 14.0623 18.3501 14.0623Z" stroke="currentColor" stroke-width="1.5" stroke-linecap="round" stroke-linejoin="round"/>
</svg>
