<svg width="24" height="24" viewBox="0 0 24 24" fill="none" xmlns="http://www.w3.org/2000/svg">
<path d="M5.56009 16.14V10.14C5.55746 9.3018 5.72028 8.47132 6.03923 7.69616C6.35817 6.92101 6.82696 6.21642 7.41873 5.6228C8.01051 5.02917 8.71362 4.55817 9.48777 4.23679C10.2619 3.91542 11.0919 3.75 11.9301 3.75H12.0001C13.6895 3.75 15.3098 4.42112 16.5044 5.61573C17.699 6.81034 18.3701 8.43057 18.3701 10.12V16.62C18.3769 16.9336 18.3203 17.2453 18.2037 17.5364C18.0871 17.8276 17.913 18.0922 17.6917 18.3144C17.4704 18.5367 17.2065 18.7119 16.9158 18.8297C16.6251 18.9476 16.3137 19.0055 16.0001 19H14.0001" stroke="currentColor" stroke-width="1.5" stroke-linecap="round" stroke-linejoin="round"/>
<path d="M18.3701 9.79004H20.1801C20.4453 9.79004 20.6997 9.8954 20.8872 10.0829C21.0748 10.2705 21.1801 10.5248 21.1801 10.79V15.14C21.1801 15.4053 21.0748 15.6596 20.8872 15.8471C20.6997 16.0347 20.4453 16.14 20.1801 16.14H18.3701V9.79004Z" stroke="currentColor" stroke-width="1.5" stroke-miterlimit="10"/>
<path d="M5.46006 16.14H3.75006C3.48484 16.14 3.23049 16.0347 3.04295 15.8471C2.85542 15.6596 2.75006 15.4052 2.75006 15.14L2.75006 10.79C2.75006 10.5248 2.85542 10.2704 3.04295 10.0829C3.23049 9.89537 3.48484 9.79001 3.75006 9.79001H5.56006L5.56006 16.04C5.56006 16.0665 5.54952 16.092 5.53077 16.1107C5.51202 16.1295 5.48658 16.14 5.46006 16.14Z" stroke="currentColor" stroke-width="1.5" stroke-miterlimit="10"/>
<path d="M12.1801 20.77C13.1853 20.77 14.0001 19.9552 14.0001 18.95C14.0001 17.9448 13.1853 17.13 12.1801 17.13C11.1749 17.13 10.3601 17.9448 10.3601 18.95C10.3601 19.9552 11.1749 20.77 12.1801 20.77Z" stroke="currentColor" stroke-width="1.5" stroke-miterlimit="10"/>
</svg>
