<svg xmlns="http://www.w3.org/2000/svg" viewBox="0 0 19.93 18.53"><defs><style>.cls-1,.cls-2{fill:none;stroke:#2f3645;stroke-width:1.5px;}.cls-1{stroke-linecap:round;stroke-linejoin:round;}.cls-2{stroke-miterlimit:10;}</style></defs><g id="레이어_2" data-name="레이어 2"><g id="레이어_1-2" data-name="레이어 1"><g id="login_consultation" data-name="login/consultation"><path class="cls-1" d="M3.56,13.14v-6A6.37,6.37,0,0,1,9.93.75H10a6.37,6.37,0,0,1,6.37,6.37v6.5A2.33,2.33,0,0,1,14,16H12"/><path class="cls-2" d="M16.37,6.79h1.81a1,1,0,0,1,1,1v4.35a1,1,0,0,1-1,1H16.37a0,0,0,0,1,0,0V6.79a0,0,0,0,1,0,0Z"/><path class="cls-2" d="M.85,6.79H2.56a1,1,0,0,1,1,1v4.35a1,1,0,0,1-1,1H.75a0,0,0,0,1,0,0V6.89A.1.1,0,0,1,.85,6.79Z" transform="translate(4.31 19.93) rotate(-180)"/><circle class="cls-2" cx="10.18" cy="15.95" r="1.82"/></g></g></g></svg>