<svg width="20" height="19" viewBox="0 0 20 19" fill="none" xmlns="http://www.w3.org/2000/svg">
<g clip-path="url(#clip0_2547_5196)">
<path d="M3.56009 13.14V7.14C3.55746 6.3018 3.72028 5.47132 4.03923 4.69616C4.35817 3.92101 4.82696 3.21642 5.41873 2.6228C6.01051 2.02917 6.71362 1.55817 7.48777 1.23679C8.26192 0.915421 9.09188 0.749996 9.93009 0.75H10.0001C11.6895 0.75 13.3098 1.42112 14.5044 2.61573C15.699 3.81034 16.3701 5.43057 16.3701 7.12V13.62C16.3769 13.9336 16.3203 14.2453 16.2037 14.5364C16.0871 14.8276 15.913 15.0922 15.6917 15.3144C15.4704 15.5367 15.2065 15.7119 14.9158 15.8297C14.6251 15.9476 14.3137 16.0055 14.0001 16H12.0001" stroke="#2F3645" stroke-width="1.5" stroke-linecap="round" stroke-linejoin="round"/>
<path d="M16.3701 6.79004H18.1801C18.4453 6.79004 18.6997 6.8954 18.8872 7.08293C19.0748 7.27047 19.1801 7.52482 19.1801 7.79004V12.14C19.1801 12.4053 19.0748 12.6596 18.8872 12.8471C18.6997 13.0347 18.4453 13.14 18.1801 13.14H16.3701V6.79004Z" stroke="#2F3645" stroke-width="1.5" stroke-miterlimit="10"/>
<path d="M3.46006 13.14H1.75006C1.48484 13.14 1.23049 13.0347 1.04295 12.8471C0.855415 12.6596 0.750059 12.4052 0.750059 12.14L0.750059 7.79001C0.750059 7.5248 0.855415 7.27044 1.04295 7.08291C1.23049 6.89537 1.48484 6.79001 1.75006 6.79001H3.56006L3.56006 13.04C3.56006 13.0665 3.54952 13.092 3.53077 13.1107C3.51202 13.1295 3.48658 13.14 3.46006 13.14Z" stroke="#2F3645" stroke-width="1.5" stroke-miterlimit="10"/>
<path d="M10.1801 17.77C11.1853 17.77 12.0001 16.9552 12.0001 15.95C12.0001 14.9448 11.1853 14.13 10.1801 14.13C9.17495 14.13 8.36011 14.9448 8.36011 15.95C8.36011 16.9552 9.17495 17.77 10.1801 17.77Z" stroke="#2F3645" stroke-width="1.5" stroke-miterlimit="10"/>
</g>
<defs>
<clipPath id="clip0_2547_5196">
<rect width="19.93" height="18.53" fill="white"/>
</clipPath>
</defs>
</svg>
