<svg xmlns="http://www.w3.org/2000/svg" viewBox="0 0 19.86 16.31"><defs><style>.cls-1,.cls-2{fill:none;stroke:#2f3645;stroke-width:1.5px;}.cls-1{stroke-linecap:round;stroke-linejoin:round;}.cls-2{stroke-miterlimit:10;}</style></defs><g id="레이어_2" data-name="레이어 2"><g id="레이어_1-2" data-name="레이어 1"><g id="my_page_month" data-name="my_page/month"><path class="cls-1" d="M16.1,8v3.86a3.65,3.65,0,0,1-3.59,3.71H7.3a3.65,3.65,0,0,1-3.59-3.71v-4"/><path class="cls-2" d="M9.47.85,1.41,4.45a1.12,1.12,0,0,0,0,2l8.06,3.6a1.13,1.13,0,0,0,.92,0l8.06-3.6a1.12,1.12,0,0,0,0-2L10.39.85A1.13,1.13,0,0,0,9.47.85Z"/><line class="cls-1" x1="10.61" y1="5.47" x2="17.66" y2="6.72"/><line class="cls-1" x1="18.18" y1="14.29" x2="18.18" y2="6.93"/></g></g></g></svg>