<svg width="24" height="24" viewBox="0 0 24 24" fill="none" xmlns="http://www.w3.org/2000/svg">
<path d="M12.1702 19.4399V6.93994C12.1702 6.93994 21.0002 1.99994 20.5702 6.93994V15.9399C20.5707 16.4551 20.3724 16.9507 20.0166 17.3233C19.6607 17.6959 19.1748 17.9168 18.6602 17.9399C18.6602 17.9399 14.6602 18.0199 12.3302 19.4899C12.3173 19.5006 12.3021 19.5078 12.2857 19.511C12.2694 19.5142 12.2525 19.5133 12.2366 19.5083C12.2207 19.5034 12.2063 19.4945 12.1947 19.4826C12.1831 19.4706 12.1747 19.456 12.1702 19.4399Z" stroke="#2F3645" stroke-width="1.5" stroke-miterlimit="10"/>
<path d="M12.17 19.4599V6.99993C12.17 6.99993 3.33005 1.99993 3.77005 6.99993V16.0999C3.78603 16.6117 3.99115 17.0995 4.34577 17.4688C4.70038 17.8382 5.17932 18.0631 5.69005 18.0999C5.69005 18.0999 9.77005 17.9999 12.06 19.5199C12.0707 19.5274 12.0833 19.5317 12.0963 19.5324C12.1093 19.5331 12.1222 19.5302 12.1336 19.524C12.145 19.5177 12.1545 19.5084 12.1609 19.4971C12.1674 19.4858 12.1705 19.4729 12.17 19.4599Z" stroke="#2F3645" stroke-width="1.51" stroke-miterlimit="10"/>
</svg>
