<svg width="20" height="17" viewBox="0 0 20 17" fill="none" xmlns="http://www.w3.org/2000/svg">
<g clip-path="url(#clip0_2547_5223)">
<path d="M16.1 7.99999V11.86C16.1079 12.3393 16.0214 12.8155 15.8452 13.2614C15.6691 13.7073 15.4069 14.1141 15.0735 14.4586C14.7401 14.8032 14.3421 15.0786 13.9023 15.2693C13.4624 15.46 12.9893 15.5622 12.51 15.57H7.29997C6.82063 15.5622 6.34752 15.46 5.90767 15.2693C5.46781 15.0786 5.06984 14.8032 4.73646 14.4586C4.40309 14.1141 4.14085 13.7073 3.96472 13.2614C3.78859 12.8155 3.70203 12.3393 3.70997 11.86V7.85999" stroke="#2F3645" stroke-width="1.5" stroke-linecap="round" stroke-linejoin="round"/>
<path d="M9.47005 0.849941L1.41005 4.44994C1.22494 4.54331 1.06937 4.68623 0.960676 4.86279C0.851984 5.03935 0.794434 5.24261 0.794434 5.44994C0.794434 5.65727 0.851984 5.86054 0.960676 6.03709C1.06937 6.21365 1.22494 6.35657 1.41005 6.44994L9.47005 10.0499C9.61483 10.1145 9.77155 10.1478 9.93005 10.1478C10.0886 10.1478 10.2453 10.1145 10.3901 10.0499L18.4501 6.44994C18.6352 6.35657 18.7907 6.21365 18.8994 6.03709C19.0081 5.86054 19.0657 5.65727 19.0657 5.44994C19.0657 5.24261 19.0081 5.03935 18.8994 4.86279C18.7907 4.68623 18.6352 4.54331 18.4501 4.44994L10.3901 0.849941C10.2453 0.785419 10.0886 0.752075 9.93005 0.752075C9.77155 0.752075 9.61483 0.785419 9.47005 0.849941Z" stroke="#2F3645" stroke-width="1.5" stroke-miterlimit="10"/>
<path d="M10.6101 5.46997L17.6601 6.71997" stroke="#2F3645" stroke-width="1.5" stroke-linecap="round" stroke-linejoin="round"/>
<path d="M18.1802 14.2899V6.92993" stroke="#2F3645" stroke-width="1.5" stroke-linecap="round" stroke-linejoin="round"/>
</g>
<defs>
<clipPath id="clip0_2547_5223">
<rect width="19.86" height="16.31" fill="white"/>
</clipPath>
</defs>
</svg>
