<svg width="19" height="17" viewBox="0 0 19 17" fill="none" xmlns="http://www.w3.org/2000/svg">
<g clip-path="url(#clip0_2547_5217)">
<path d="M9.17017 15.4399V2.93994C9.17017 2.93994 18.0002 -2.00006 17.5702 2.93994V11.9399C17.5707 12.4551 17.3724 12.9507 17.0166 13.3233C16.6607 13.6959 16.1748 13.9168 15.6602 13.9399C15.6602 13.9399 11.6602 14.0199 9.33017 15.4899C9.31733 15.5006 9.30206 15.5078 9.28572 15.511C9.26938 15.5142 9.2525 15.5133 9.23661 15.5083C9.22071 15.5034 9.20631 15.4945 9.19471 15.4826C9.18311 15.4706 9.17467 15.456 9.17017 15.4399Z" stroke="#2F3645" stroke-width="1.5" stroke-miterlimit="10"/>
<path d="M9.17005 15.4599V2.99993C9.17005 2.99993 0.330047 -2.00007 0.770047 2.99993V12.0999C0.786035 12.6117 0.991152 13.0995 1.34577 13.4688C1.70038 13.8382 2.17932 14.0631 2.69005 14.0999C2.69005 14.0999 6.77005 13.9999 9.06005 15.5199C9.07072 15.5274 9.08326 15.5317 9.09626 15.5324C9.10925 15.5331 9.12219 15.5302 9.13361 15.524C9.14504 15.5177 9.1545 15.5084 9.16094 15.4971C9.16737 15.4858 9.17053 15.4729 9.17005 15.4599Z" stroke="#2F3645" stroke-width="1.51" stroke-miterlimit="10"/>
</g>
<defs>
<clipPath id="clip0_2547_5217">
<rect width="18.34" height="16.3" fill="white"/>
</clipPath>
</defs>
</svg>
