<svg width="19" height="16" viewBox="0 0 19 16" fill="none" xmlns="http://www.w3.org/2000/svg">
<g clip-path="url(#clip0_2547_5251)">
<path d="M17.5 6.05002L10.31 1.00002C10.0579 0.823619 9.75767 0.729004 9.44999 0.729004C9.14231 0.729004 8.84208 0.823619 8.58999 1.00002L1.38999 6.00002C1.12815 6.18279 0.931463 6.44434 0.828559 6.74663C0.725655 7.04891 0.721901 7.37615 0.817845 7.68072C0.913788 7.98528 1.10442 8.25128 1.362 8.44C1.61958 8.62873 1.93067 8.73033 2.24999 8.73002H3.65999V14.09C3.65999 14.3552 3.76535 14.6096 3.95288 14.7971C4.14042 14.9847 4.39477 15.09 4.65999 15.09H7.05999V10.88C7.09837 10.3001 7.3558 9.75652 7.7801 9.35937C8.2044 8.96223 8.76383 8.74127 9.34499 8.74127C9.92615 8.74127 10.4856 8.96223 10.9099 9.35937C11.3342 9.75652 11.5916 10.3001 11.63 10.88V15.14H14.24C14.5052 15.14 14.7596 15.0347 14.9471 14.8471C15.1346 14.6596 15.24 14.4052 15.24 14.14V8.78002H16.65C16.9685 8.77821 17.2781 8.67509 17.534 8.48559C17.79 8.29609 17.979 8.03004 18.0737 7.72596C18.1683 7.42189 18.1638 7.09557 18.0606 6.79427C17.9575 6.49296 17.7611 6.23229 17.5 6.05002Z" stroke="#2F3645" stroke-width="1.5" stroke-linecap="round" stroke-linejoin="round"/>
</g>
<defs>
<clipPath id="clip0_2547_5251">
<rect width="18.9" height="15.89" fill="white"/>
</clipPath>
</defs>
</svg>
