<svg width="16" height="16" viewBox="0 0 16 16" fill="none" xmlns="http://www.w3.org/2000/svg">
<g clip-path="url(#clip0_2547_5268)">
<path d="M7.99992 1.55001C8.4469 1.552 8.88325 1.68648 9.2538 1.93645C9.62435 2.18643 9.91245 2.54067 10.0817 2.95438C10.2509 3.3681 10.2936 3.8227 10.2045 4.2607C10.1154 4.69871 9.89833 5.10044 9.58087 5.41511C9.26341 5.72977 8.85977 5.94323 8.421 6.02849C7.98222 6.11376 7.52801 6.06699 7.11581 5.89412C6.70361 5.72124 6.35194 5.43001 6.10525 5.05727C5.85856 4.68452 5.72795 4.24699 5.72992 3.80001C5.72991 3.50285 5.78876 3.20863 5.90308 2.93433C6.01741 2.66004 6.18493 2.41111 6.39599 2.20191C6.60704 1.99271 6.85744 1.8274 7.13274 1.71551C7.40803 1.60362 7.70277 1.54737 7.99992 1.55001ZM7.99992 1.3095e-05C7.24553 -0.00196436 6.50752 0.220059 5.87944 0.637946C5.25136 1.05583 4.76148 1.65077 4.47187 2.34736C4.18226 3.04396 4.10596 3.81085 4.25266 4.55085C4.39935 5.29084 4.76242 5.97064 5.29586 6.50408C5.8293 7.03752 6.50909 7.40059 7.24909 7.54728C7.98909 7.69397 8.75598 7.61768 9.45257 7.32807C10.1492 7.03846 10.7441 6.54857 11.162 5.92049C11.5799 5.29241 11.8019 4.55441 11.7999 3.80001C11.7973 2.793 11.3961 1.82799 10.684 1.11592C9.97194 0.403856 9.00693 0.00265272 7.99992 1.3095e-05Z" fill="#2F3645"/>
<path d="M4.75002 9.70996H11.59C12.5475 9.70996 13.4657 10.0903 14.1427 10.7673C14.8197 11.4443 15.2 12.3625 15.2 13.32V13.89C15.2 14.2268 15.0662 14.5498 14.828 14.788C14.5899 15.0262 14.2668 15.16 13.93 15.16H2.00002C1.67018 15.1496 1.35733 15.0112 1.12774 14.7741C0.898155 14.5371 0.769856 14.22 0.77002 13.89V13.68C0.777898 12.6278 1.20006 11.621 1.94504 10.8779C2.69002 10.1348 3.6978 9.71519 4.75002 9.70996Z" stroke="#2F3645" stroke-width="1.55" stroke-miterlimit="10"/>
</g>
<defs>
<clipPath id="clip0_2547_5268">
<rect width="15.97" height="15.94" fill="white"/>
</clipPath>
</defs>
</svg>
