<svg xmlns="http://www.w3.org/2000/svg" viewBox="0 0 20.05 16.06"><defs><style>.cls-1{fill:none;}.cls-1,.cls-2{stroke:#2f3645;stroke-linecap:round;stroke-linejoin:round;stroke-width:1.5px;}.cls-2{fill:#fff;}.cls-3{fill:#2f3645;}</style></defs><g id="레이어_2" data-name="레이어 2"><g id="레이어_1-2" data-name="레이어 1"><g id="navigation_book_search" data-name="navigation/book_search"><path class="cls-1" d="M19.29,9.19v-4a1.83,1.83,0,0,0-1.85-1.81H2.6A1.83,1.83,0,0,0,.75,5.23v8.19a1.83,1.83,0,0,0,1.85,1.8H13.05"/><path class="cls-2" d="M10.28,3.44V14.49A11.62,11.62,0,0,0,3.89,12.3V.83S6.24,0,10.28,3.44Z"/><path class="cls-2" d="M16.66,7.51V.83S14.32,0,10.28,3.44V14.49s.07-.45,1.44-1"/><path class="cls-3" d="M15.63,10.17a1.48,1.48,0,1,1-1.48,1.48,1.47,1.47,0,0,1,1.48-1.48m0-1.5a3,3,0,1,0,3,3,3,3,0,0,0-3-3Z"/><line class="cls-1" x1="17.73" y1="13.75" x2="19.3" y2="15.31"/></g></g></g></svg>