<svg xmlns="http://www.w3.org/2000/svg" viewBox="0 0 15.97 15.94"><defs><style>.cls-1{fill:#2f3645;}.cls-2{fill:none;stroke:#2f3645;stroke-miterlimit:10;stroke-width:1.55px;}</style></defs><g id="레이어_2" data-name="레이어 2"><g id="레이어_1-2" data-name="레이어 1"><g id="navigation_my_page" data-name="navigation/my_page"><path class="cls-1" d="M8,1.55A2.26,2.26,0,1,1,5.73,3.8,2.25,2.25,0,0,1,8,1.55M8,0a3.81,3.81,0,1,0,3.8,3.8A3.81,3.81,0,0,0,8,0Z"/><path class="cls-2" d="M4.75,9.71h6.84a3.61,3.61,0,0,1,3.61,3.61v.57a1.27,1.27,0,0,1-1.27,1.27H2A1.27,1.27,0,0,1,.77,13.89v-.21A4,4,0,0,1,4.75,9.71Z"/></g></g></g></svg>