<svg width="24" height="24" viewBox="0 0 24 24" fill="none" xmlns="http://www.w3.org/2000/svg">
<path d="M21.2901 13.19V9.18999C21.2875 8.94967 21.2376 8.71221 21.1432 8.49119C21.0488 8.27016 20.9118 8.06989 20.74 7.90181C20.5682 7.73374 20.365 7.60115 20.142 7.51161C19.9189 7.42208 19.6804 7.37735 19.4401 7.37999H4.60011C4.35642 7.37732 4.11465 7.42334 3.88899 7.51536C3.66333 7.60738 3.45832 7.74355 3.28599 7.91588C3.11367 8.0882 2.9775 8.29321 2.88548 8.51887C2.79346 8.74453 2.74743 8.9863 2.75011 9.22999V17.42C2.75801 17.9036 2.95704 18.3644 3.30371 18.7017C3.65037 19.039 4.11646 19.2253 4.60011 19.22H15.0501" stroke="#2F3645" stroke-width="1.5" stroke-linecap="round" stroke-linejoin="round"/>
<path d="M12.2801 7.44V18.49C10.414 17.1433 8.19 16.3811 5.89014 16.3V4.83C5.89014 4.83 8.24014 4 12.2801 7.44Z" fill="white" stroke="#2F3645" stroke-width="1.5" stroke-linecap="round" stroke-linejoin="round"/>
<path d="M18.66 11.51V4.83C18.66 4.83 16.32 4 12.28 7.44V18.49C12.28 18.49 12.35 18.04 13.72 17.49" fill="white"/>
<path d="M18.66 11.51V4.83C18.66 4.83 16.32 4 12.28 7.44V18.49C12.28 18.49 12.35 18.04 13.72 17.49" stroke="#2F3645" stroke-width="1.5" stroke-linecap="round" stroke-linejoin="round"/>
<path d="M17.6301 14.17C17.9228 14.17 18.209 14.2568 18.4524 14.4195C18.6958 14.5821 18.8855 14.8132 18.9975 15.0837C19.1095 15.3541 19.1388 15.6517 19.0817 15.9388C19.0246 16.2259 18.8836 16.4896 18.6766 16.6966C18.4697 16.9035 18.206 17.0445 17.9189 17.1016C17.6318 17.1587 17.3342 17.1294 17.0638 17.0174C16.7933 16.9054 16.5622 16.7157 16.3996 16.4723C16.2369 16.2289 16.1501 15.9428 16.1501 15.65C16.1488 15.4553 16.1862 15.2623 16.2601 15.0821C16.334 14.9019 16.443 14.7383 16.5806 14.6006C16.7183 14.4629 16.882 14.3539 17.0622 14.28C17.2424 14.2061 17.4354 14.1687 17.6301 14.17ZM17.6301 12.67C17.0368 12.67 16.4568 12.846 15.9634 13.1756C15.4701 13.5053 15.0856 13.9738 14.8585 14.522C14.6314 15.0702 14.572 15.6734 14.6878 16.2553C14.8035 16.8373 15.0893 17.3718 15.5088 17.7914C15.9284 18.2109 16.4629 18.4966 17.0449 18.6124C17.6268 18.7282 18.23 18.6687 18.7782 18.4417C19.3264 18.2146 19.7949 17.8301 20.1245 17.3368C20.4542 16.8434 20.6301 16.2634 20.6301 15.67C20.6301 14.8744 20.3141 14.1113 19.7514 13.5487C19.1888 12.9861 18.4258 12.67 17.6301 12.67Z" fill="#2F3645"/>
<path d="M19.7302 17.75L21.3002 19.31" stroke="#2F3645" stroke-width="1.5" stroke-linecap="round" stroke-linejoin="round"/>
</svg>
