<svg width="24" height="24" viewBox="0 0 24 24" fill="none" xmlns="http://www.w3.org/2000/svg">
<path d="M11.9999 5.55001C12.4469 5.552 12.8833 5.68648 13.2538 5.93645C13.6244 6.18643 13.9125 6.54067 14.0817 6.95438C14.2509 7.3681 14.2936 7.8227 14.2045 8.2607C14.1154 8.69871 13.8983 9.10044 13.5809 9.41511C13.2634 9.72977 12.8598 9.94323 12.421 10.0285C11.9822 10.1138 11.528 10.067 11.1158 9.89412C10.7036 9.72124 10.3519 9.43001 10.1052 9.05727C9.85856 8.68452 9.72795 8.24699 9.72992 7.80001C9.72991 7.50285 9.78876 7.20863 9.90308 6.93433C10.0174 6.66004 10.1849 6.41111 10.396 6.20191C10.607 5.99271 10.8574 5.8274 11.1327 5.71551C11.408 5.60362 11.7028 5.54737 11.9999 5.55001ZM11.9999 4.00001C11.2455 3.99804 10.5075 4.22006 9.87944 4.63795C9.25136 5.05583 8.76148 5.65077 8.47187 6.34736C8.18226 7.04396 8.10596 7.81085 8.25266 8.55085C8.39935 9.29084 8.76242 9.97064 9.29586 10.5041C9.8293 11.0375 10.5091 11.4006 11.2491 11.5473C11.9891 11.694 12.756 11.6177 13.4526 11.3281C14.1492 11.0385 14.7441 10.5486 15.162 9.92049C15.5799 9.29241 15.8019 8.55441 15.7999 7.80001C15.7973 6.793 15.3961 5.82799 14.684 5.11592C13.9719 4.40386 13.0069 4.00265 11.9999 4.00001Z" fill="currentColor"/>
<path d="M8.75002 13.71H15.59C16.5475 13.71 17.4657 14.0903 18.1427 14.7673C18.8197 15.4443 19.2 16.3625 19.2 17.32V17.89C19.2 18.2268 19.0662 18.5498 18.828 18.788C18.5899 19.0262 18.2668 19.16 17.93 19.16H6.00002C5.67018 19.1496 5.35733 19.0112 5.12774 18.7741C4.89815 18.5371 4.76986 18.22 4.77002 17.89V17.68C4.7779 16.6278 5.20006 15.621 5.94504 14.8779C6.69002 14.1348 7.6978 13.7152 8.75002 13.71Z" stroke="currentColor" stroke-width="1.55" stroke-miterlimit="10"/>
</svg>
