<svg width="24" height="24" viewBox="0 0 24 24" fill="none" xmlns="http://www.w3.org/2000/svg">
<g clip-path="url(#clip0_2547_5268)">
<path d="M9.22992 7.79892C9.22773 8.3444 9.38723 8.87831 9.68829 9.33321C9.98955 9.78842 10.419 10.1441 10.9224 10.3552C11.4258 10.5663 11.9805 10.6234 12.5164 10.5193C13.0522 10.4152 13.5452 10.1545 13.9329 9.77022C14.3206 9.38594 14.5856 8.89533 14.6945 8.36042C14.8033 7.82551 14.7511 7.27033 14.5445 6.76509C14.3378 6.25985 13.986 5.82723 13.5334 5.52195C13.0812 5.21688 12.5487 5.05266 12.0032 5.05002C11.6404 5.04695 11.2806 5.11569 10.9445 5.25231C10.608 5.38906 10.302 5.59111 10.044 5.8468C9.78604 6.10248 9.58129 6.40673 9.44157 6.74198C9.30198 7.07688 9.23005 7.4361 9.22992 7.79892ZM9.22992 7.79892C9.22992 7.79929 9.22992 7.79966 9.22992 7.80003L9.72992 7.80001L9.22993 7.79781C9.22992 7.79818 9.22992 7.79855 9.22992 7.79892ZM10.1564 5.05423C10.7021 4.69118 11.3432 4.49829 11.9986 4.50001C12.8735 4.5023 13.7118 4.85086 14.3305 5.46948C14.9491 6.0881 15.2976 6.92647 15.2999 7.80132C15.3016 8.45672 15.1088 9.09787 14.7457 9.64352C14.3827 10.1892 13.8658 10.6148 13.2606 10.8664C12.6554 11.118 11.9892 11.1843 11.3463 11.0568C10.7034 10.9294 10.1128 10.614 9.64941 10.1505C9.18598 9.68709 8.87055 9.09651 8.74311 8.45362C8.61567 7.81074 8.68195 7.14449 8.93356 6.53931C9.18516 5.93413 9.61075 5.41727 10.1564 5.05423Z" fill="#E6B9A6" stroke="#E6B9A6"/>
<path d="M8.75002 13.71H15.59C16.5475 13.71 17.4657 14.0903 18.1427 14.7673C18.8197 15.4443 19.2 16.3625 19.2 17.32V17.89C19.2 18.2268 19.0662 18.5498 18.828 18.788C18.5899 19.0262 18.2668 19.16 17.93 19.16H6.00002C5.67018 19.1496 5.35733 19.0112 5.12774 18.7741C4.89815 18.5371 4.76986 18.22 4.77002 17.89V17.68C4.7779 16.6278 5.20006 15.621 5.94504 14.8779C6.69002 14.1348 7.6978 13.7152 8.75002 13.71Z" fill="#E6B9A6" fill-opacity="0.7" stroke="#E6B9A6" stroke-width="1.55" stroke-miterlimit="10"/>
<path d="M11.9899 11.62C14.0941 11.62 15.7999 9.9142 15.7999 7.81C15.7999 5.70579 14.0941 4 11.9899 4C9.88573 4 8.17993 5.70579 8.17993 7.81C8.17993 9.9142 9.88573 11.62 11.9899 11.62Z" fill="#E6B9A6" fill-opacity="0.7"/>
</g>
<defs>
<clipPath id="clip0_2547_5268">
<rect width="24" height="24" fill="white"/>
</clipPath>
</defs>
</svg>
