<svg width="24" height="24" viewBox="0 0 24 24" fill="none" xmlns="http://www.w3.org/2000/svg">
<path d="M7.24 3.75H5.75C5.19772 3.75 4.75 4.19772 4.75 4.75V19.35C4.75 19.9023 5.19772 20.35 5.75 20.35H7.24C7.79228 20.35 8.24 19.9023 8.24 19.35V4.75C8.24 4.19772 7.79228 3.75 7.24 3.75Z" stroke="#2F3645" stroke-width="1.5" stroke-linecap="round" stroke-linejoin="round"/>
<path d="M10.73 3.75H9.23999C8.68771 3.75 8.23999 4.19772 8.23999 4.75V19.35C8.23999 19.9023 8.68771 20.35 9.23999 20.35H10.73C11.2823 20.35 11.73 19.9023 11.73 19.35V4.75C11.73 4.19772 11.2823 3.75 10.73 3.75Z" stroke="#2F3645" stroke-width="1.5" stroke-linecap="round" stroke-linejoin="round"/>
<path d="M14.3761 3.83696L12.9356 4.21758C12.4016 4.35866 12.0831 4.90588 12.2242 5.43985L15.9537 19.5555C16.0948 20.0894 16.642 20.4079 17.176 20.2668L18.6165 19.8862C19.1505 19.7452 19.469 19.1979 19.3279 18.664L15.5984 4.54834C15.4573 4.01438 14.9101 3.69588 14.3761 3.83696Z" stroke="#2F3645" stroke-width="1.5" stroke-linecap="round" stroke-linejoin="round"/>
<path d="M4.75 6.57007H11.72" stroke="#2F3645" stroke-width="1.5" stroke-linecap="round" stroke-linejoin="round"/>
<path d="M4.75 14.2301H11.72" stroke="#2F3645" stroke-width="1.5" stroke-linecap="round" stroke-linejoin="round"/>
<path d="M4.75 16.5601H11.72" stroke="#2F3645" stroke-width="1.5" stroke-linecap="round" stroke-linejoin="round"/>
<path d="M13.22 7.09003L15.78 6.41003" stroke="#2F3645" stroke-width="1.5" stroke-linecap="round" stroke-linejoin="round"/>
<path d="M15.1799 14.4901L17.7399 13.8201" stroke="#2F3645" stroke-width="1.5" stroke-linecap="round" stroke-linejoin="round"/>
<path d="M15.77 16.7501L18.34 16.0701" stroke="#2F3645" stroke-width="1.5" stroke-linecap="round" stroke-linejoin="round"/>
</svg>
