<svg width="21" height="17" viewBox="0 0 21 17" fill="none" xmlns="http://www.w3.org/2000/svg">
<g clip-path="url(#clip0_2547_5242)">
<path d="M19.2901 9.18999V5.18999C19.2875 4.94967 19.2376 4.71221 19.1432 4.49119C19.0488 4.27016 18.9118 4.06989 18.74 3.90181C18.5682 3.73374 18.365 3.60115 18.142 3.51161C17.9189 3.42208 17.6804 3.37735 17.4401 3.37999H2.60011C2.35642 3.37732 2.11465 3.42334 1.88899 3.51536C1.66333 3.60738 1.45832 3.74355 1.28599 3.91588C1.11367 4.0882 0.977501 4.29321 0.885478 4.51887C0.793455 4.74453 0.747432 4.9863 0.750111 5.22999V13.42C0.75801 13.9036 0.957044 14.3644 1.30371 14.7017C1.65037 15.039 2.11646 15.2253 2.60011 15.22H13.0501" stroke="#2F3645" stroke-width="1.5" stroke-linecap="round" stroke-linejoin="round"/>
<path d="M10.2801 3.44V14.49C8.41399 13.1433 6.19 12.3811 3.89014 12.3V0.829999C3.89014 0.829999 6.24014 -1.19209e-06 10.2801 3.44Z" fill="white" stroke="#2F3645" stroke-width="1.5" stroke-linecap="round" stroke-linejoin="round"/>
<path d="M16.66 7.51V0.829999C16.66 0.829999 14.32 -1.19209e-06 10.28 3.44V14.49C10.28 14.49 10.35 14.04 11.72 13.49" fill="white"/>
<path d="M16.66 7.51V0.829999C16.66 0.829999 14.32 -1.19209e-06 10.28 3.44V14.49C10.28 14.49 10.35 14.04 11.72 13.49" stroke="#2F3645" stroke-width="1.5" stroke-linecap="round" stroke-linejoin="round"/>
<path d="M15.6301 10.17C15.9228 10.17 16.209 10.2568 16.4524 10.4195C16.6958 10.5821 16.8855 10.8132 16.9975 11.0837C17.1095 11.3541 17.1388 11.6517 17.0817 11.9388C17.0246 12.2259 16.8836 12.4896 16.6766 12.6966C16.4697 12.9035 16.206 13.0445 15.9189 13.1016C15.6318 13.1587 15.3342 13.1294 15.0638 13.0174C14.7933 12.9054 14.5622 12.7157 14.3996 12.4723C14.2369 12.2289 14.1501 11.9428 14.1501 11.65C14.1488 11.4553 14.1862 11.2623 14.2601 11.0821C14.334 10.9019 14.443 10.7383 14.5806 10.6006C14.7183 10.4629 14.882 10.3539 15.0622 10.28C15.2424 10.2061 15.4354 10.1687 15.6301 10.17ZM15.6301 8.67004C15.0368 8.67004 14.4568 8.84599 13.9634 9.17564C13.4701 9.50528 13.0856 9.97382 12.8585 10.522C12.6314 11.0702 12.572 11.6734 12.6878 12.2553C12.8035 12.8373 13.0893 13.3718 13.5088 13.7914C13.9284 14.2109 14.4629 14.4966 15.0449 14.6124C15.6268 14.7282 16.23 14.6687 16.7782 14.4417C17.3264 14.2146 17.7949 13.8301 18.1245 13.3368C18.4542 12.8434 18.6301 12.2634 18.6301 11.67C18.6301 10.8744 18.3141 10.1113 17.7514 9.54872C17.1888 8.98611 16.4258 8.67004 15.6301 8.67004Z" fill="#2F3645"/>
<path d="M17.7302 13.75L19.3002 15.31" stroke="#2F3645" stroke-width="1.5" stroke-linecap="round" stroke-linejoin="round"/>
</g>
<defs>
<clipPath id="clip0_2547_5242">
<rect width="20.05" height="16.06" fill="white"/>
</clipPath>
</defs>
</svg>
