<svg width="24" height="24" viewBox="0 0 24 24" fill="none" xmlns="http://www.w3.org/2000/svg">
<path d="M21.2901 13.19V9.18999C21.2875 8.94967 21.2376 8.71221 21.1432 8.49119C21.0488 8.27016 20.9118 8.06989 20.74 7.90181C20.5682 7.73374 20.365 7.60115 20.142 7.51161C19.9189 7.42208 19.6804 7.37735 19.4401 7.37999H4.60011C4.35642 7.37732 4.11465 7.42334 3.88899 7.51536C3.66333 7.60738 3.45832 7.74355 3.28599 7.91588C3.11367 8.0882 2.9775 8.29321 2.88548 8.51887C2.79346 8.74453 2.74743 8.9863 2.75011 9.22999V17.42C2.75801 17.9036 2.95704 18.3644 3.30371 18.7017C3.65037 19.039 4.11646 19.2253 4.60011 19.22H15.0501" fill="white"/>
<path d="M21.2901 13.19V9.18999C21.2875 8.94967 21.2376 8.71221 21.1432 8.49119C21.0488 8.27016 20.9118 8.06989 20.74 7.90181C20.5682 7.73374 20.365 7.60115 20.142 7.51161C19.9189 7.42208 19.6804 7.37735 19.4401 7.37999H4.60011C4.35642 7.37732 4.11465 7.42334 3.88899 7.51536C3.66333 7.60738 3.45832 7.74355 3.28599 7.91588C3.11367 8.0882 2.9775 8.29321 2.88548 8.51887C2.79346 8.74453 2.74743 8.9863 2.75011 9.22999V17.42C2.75801 17.9036 2.95704 18.3644 3.30371 18.7017C3.65037 19.039 4.11646 19.2253 4.60011 19.22H15.0501" fill="#E6B9A6" fill-opacity="0.7"/>
<path d="M21.2901 13.19V9.18999C21.2875 8.94967 21.2376 8.71221 21.1432 8.49119C21.0488 8.27016 20.9118 8.06989 20.74 7.90181C20.5682 7.73374 20.365 7.60115 20.142 7.51161C19.9189 7.42208 19.6804 7.37735 19.4401 7.37999H4.60011C4.35642 7.37732 4.11465 7.42334 3.88899 7.51536C3.66333 7.60738 3.45832 7.74355 3.28599 7.91588C3.11367 8.0882 2.9775 8.29321 2.88548 8.51887C2.79346 8.74453 2.74743 8.9863 2.75011 9.22999V17.42C2.75801 17.9036 2.95704 18.3644 3.30371 18.7017C3.65037 19.039 4.11646 19.2253 4.60011 19.22H15.0501" stroke="#E6B9A6" stroke-width="1.5" stroke-linecap="round" stroke-linejoin="round"/>
<path d="M12.2801 7.44V18.49C10.414 17.1433 8.19 16.3811 5.89014 16.3V4.83C5.89014 4.83 8.24014 4 12.2801 7.44Z" fill="white"/>
<path d="M12.2801 7.44V18.49C10.414 17.1433 8.19 16.3811 5.89014 16.3V4.83C5.89014 4.83 8.24014 4 12.2801 7.44Z" fill="#E6B9A6" fill-opacity="0.7"/>
<path d="M12.2801 7.44V18.49C10.414 17.1433 8.19 16.3811 5.89014 16.3V4.83C5.89014 4.83 8.24014 4 12.2801 7.44Z" stroke="#E6B9A6" stroke-width="1.5" stroke-linecap="round" stroke-linejoin="round"/>
<path d="M18.66 11.51V4.83C18.66 4.83 16.32 4 12.28 7.44V18.49C12.28 18.49 12.35 18.04 13.72 17.49" fill="white"/>
<path d="M18.66 11.51V4.83C18.66 4.83 16.32 4 12.28 7.44V18.49C12.28 18.49 12.35 18.04 13.72 17.49" fill="#E6B9A6" fill-opacity="0.7"/>
<path d="M18.66 11.51V4.83C18.66 4.83 16.32 4 12.28 7.44V18.49C12.28 18.49 12.35 18.04 13.72 17.49" stroke="#E6B9A6" stroke-width="1.5" stroke-linecap="round" stroke-linejoin="round"/>
<path d="M20.25 16C20.25 17.2426 19.2426 18.25 18 18.25C16.7574 18.25 15.75 17.2426 15.75 16C15.75 14.7574 16.7574 13.75 18 13.75C19.2426 13.75 20.25 14.7574 20.25 16Z" fill="#E6B9A6" fill-opacity="0.3" stroke="#E6B9A6" stroke-width="1.5"/>
<path d="M19.7302 17.75L21.3002 19.31" stroke="#E6B9A6" stroke-width="1.5" stroke-linecap="round" stroke-linejoin="round"/>
</svg>
