<svg width="17" height="19" viewBox="0 0 17 19" fill="none" xmlns="http://www.w3.org/2000/svg">
<g clip-path="url(#clip0_2547_5255)">
<path d="M3.24 0.75H1.75C1.19772 0.75 0.75 1.19772 0.75 1.75V16.35C0.75 16.9023 1.19772 17.35 1.75 17.35H3.24C3.79228 17.35 4.24 16.9023 4.24 16.35V1.75C4.24 1.19772 3.79228 0.75 3.24 0.75Z" stroke="#2F3645" stroke-width="1.5" stroke-linecap="round" stroke-linejoin="round"/>
<path d="M6.72999 0.75H5.23999C4.68771 0.75 4.23999 1.19772 4.23999 1.75V16.35C4.23999 16.9023 4.68771 17.35 5.23999 17.35H6.72999C7.28228 17.35 7.72999 16.9023 7.72999 16.35V1.75C7.72999 1.19772 7.28228 0.75 6.72999 0.75Z" stroke="#2F3645" stroke-width="1.5" stroke-linecap="round" stroke-linejoin="round"/>
<path d="M10.3761 0.836962L8.93557 1.21758C8.40161 1.35866 8.08312 1.90588 8.2242 2.43985L11.9537 16.5555C12.0948 17.0894 12.642 17.4079 13.176 17.2668L14.6165 16.8862C15.1505 16.7452 15.469 16.1979 15.3279 15.664L11.5984 1.54834C11.4573 1.01438 10.9101 0.695884 10.3761 0.836962Z" stroke="#2F3645" stroke-width="1.5" stroke-linecap="round" stroke-linejoin="round"/>
<path d="M0.75 3.57007H7.72" stroke="#2F3645" stroke-width="1.5" stroke-linecap="round" stroke-linejoin="round"/>
<path d="M0.75 11.2301H7.72" stroke="#2F3645" stroke-width="1.5" stroke-linecap="round" stroke-linejoin="round"/>
<path d="M0.75 13.5601H7.72" stroke="#2F3645" stroke-width="1.5" stroke-linecap="round" stroke-linejoin="round"/>
<path d="M9.21997 4.09003L11.78 3.41003" stroke="#2F3645" stroke-width="1.5" stroke-linecap="round" stroke-linejoin="round"/>
<path d="M11.1799 11.4901L13.7399 10.8201" stroke="#2F3645" stroke-width="1.5" stroke-linecap="round" stroke-linejoin="round"/>
<path d="M11.77 13.7501L14.34 13.0701" stroke="#2F3645" stroke-width="1.5" stroke-linecap="round" stroke-linejoin="round"/>
</g>
<defs>
<clipPath id="clip0_2547_5255">
<rect width="16.11" height="18.1" fill="white"/>
</clipPath>
</defs>
</svg>
