<svg width="24" height="24" viewBox="0 0 24 24" fill="none" xmlns="http://www.w3.org/2000/svg">
<path d="M20.5 10.05L13.31 5.00002C13.0579 4.82362 12.7577 4.729 12.45 4.729C12.1423 4.729 11.8421 4.82362 11.59 5.00002L4.38999 10C4.12815 10.1828 3.93146 10.4443 3.82856 10.7466C3.72565 11.0489 3.7219 11.3761 3.81784 11.6807C3.91379 11.9853 4.10442 12.2513 4.362 12.44C4.61958 12.6287 4.93067 12.7303 5.24999 12.73H6.65999V18.09C6.65999 18.3552 6.76535 18.6096 6.95288 18.7971C7.14042 18.9847 7.39477 19.09 7.65999 19.09H10.06V14.88C10.0984 14.3001 10.3558 13.7565 10.7801 13.3594C11.2044 12.9622 11.7638 12.7413 12.345 12.7413C12.9262 12.7413 13.4856 12.9622 13.9099 13.3594C14.3342 13.7565 14.5916 14.3001 14.63 14.88V19.14H17.24C17.5052 19.14 17.7596 19.0347 17.9471 18.8471C18.1346 18.6596 18.24 18.4052 18.24 18.14V12.78H19.65C19.9685 12.7782 20.2781 12.6751 20.534 12.4856C20.79 12.2961 20.979 12.03 21.0737 11.726C21.1683 11.4219 21.1638 11.0956 21.0606 10.7943C20.9575 10.493 20.7611 10.2323 20.5 10.05Z" stroke="#2F3645" stroke-width="1.5" stroke-linecap="round" stroke-linejoin="round"/>
</svg>
