<svg width="24" height="24" viewBox="0 0 24 24" fill="none" xmlns="http://www.w3.org/2000/svg">
<g clip-path="url(#clip0_1485_22517)">
<path d="M17.8836 4.25539L19.7433 6.11508C19.9308 6.30261 20.0362 6.55697 20.0362 6.82218C20.0362 7.0874 19.9308 7.34175 19.7433 7.52929L17.2684 10.0042L13.9875 6.72319L16.4553 4.25539C16.5484 4.16039 16.6595 4.08492 16.7821 4.03341C16.9047 3.98189 17.0364 3.95535 17.1694 3.95535C17.3024 3.95535 17.4341 3.98189 17.5568 4.03341C17.6794 4.08492 17.7905 4.16039 17.8836 4.25539Z" stroke="#303030" stroke-width="1.5" stroke-linecap="round" stroke-linejoin="round"/>
<path d="M17.2632 10.0005L13.9893 6.72656L4.6908 16.025L7.96471 19.2989L17.2632 10.0005Z" stroke="#303030" stroke-width="1.5" stroke-linecap="round" stroke-linejoin="round"/>
<path d="M3.5498 20.4589L7.9998 19.3289L4.6798 16.0089L3.5498 20.4589Z" stroke="#303030" stroke-width="1.5" stroke-linecap="round" stroke-linejoin="round"/>
</g>
<defs>
<clipPath id="clip0_1485_22517">
<rect width="24" height="24" fill="white"/>
</clipPath>
</defs>
</svg>
