<svg width="24" height="24" viewBox="0 0 24 24" fill="none" xmlns="http://www.w3.org/2000/svg">
<path d="M4.66309 11.2407C5.17413 11.2407 5.45949 11.6168 5.57227 11.8286C5.70245 12.0733 5.75977 12.3594 5.75977 12.6333V20.3677C5.7597 20.6416 5.70251 20.9277 5.57227 21.1724C5.45936 21.3842 5.17382 21.7603 4.66309 21.7603H3.33691C2.82618 21.7603 2.54065 21.3842 2.42773 21.1724C2.29749 20.9277 2.2403 20.6416 2.24023 20.3677V12.6333C2.24023 12.3594 2.29755 12.0733 2.42773 11.8286C2.54051 11.6168 2.82587 11.2407 3.33691 11.2407H4.66309Z" fill="#303030"/>
<path d="M11.6045 5.11039C12.05 5.09524 12.5016 5.25088 12.9551 5.54105L13.1494 5.67386L13.2041 5.71683L13.3555 5.85453C13.4545 5.94808 13.5502 6.04553 13.6416 6.14652L13.7764 6.30179L13.8535 6.41214L13.9668 6.62503C14.2196 7.12895 14.3794 7.67522 14.4375 8.23734C14.5039 8.87974 14.4368 9.52969 14.2393 10.1446C14.1607 10.4405 14.0624 10.7304 13.9463 11.0127H17.0537L17.1113 11.0157H19.0176C19.2887 11.0156 19.5572 11.0694 19.8066 11.1739C20.0564 11.2785 20.2828 11.4324 20.4707 11.625C20.6586 11.8179 20.8055 12.047 20.9014 12.2969C20.9938 12.5383 21.035 12.7951 21.0273 13.0528L21.0293 13.0537C21.0292 13.0592 21.0274 13.0649 21.0273 13.0703C21.0272 13.0735 21.0284 13.0769 21.0283 13.0801L21.0273 13.0791C21.0221 13.3211 20.9703 13.557 20.8799 13.7774C20.9836 13.8467 21.081 13.9255 21.1699 14.0137C21.3537 14.1959 21.4991 14.4135 21.5986 14.6524C21.6981 14.8912 21.7499 15.1475 21.75 15.4063L21.7402 15.6006C21.6956 16.0493 21.4973 16.4713 21.1758 16.793C21.0292 16.9396 20.861 17.0589 20.6797 17.1514C20.7576 17.3653 20.7998 17.5914 20.7998 17.8194L20.79 18.0127C20.7454 18.4615 20.5473 18.8844 20.2256 19.2061C19.9883 19.4432 19.6958 19.6113 19.3789 19.7022C19.4269 19.8728 19.4531 20.0502 19.4531 20.2305V20.25C19.4397 20.7612 19.2252 21.2473 18.8574 21.6026C18.4911 21.9561 18.0011 22.1512 17.4922 22.1485H15.6846C15.6826 22.1486 15.6807 22.1494 15.6787 22.1494L13.2041 22.2637C12.8089 22.2811 11.5141 22.2752 10.1504 22.1026C9.46753 22.0161 8.74403 21.8849 8.09668 21.6856C7.54638 21.5161 6.98201 21.2769 6.55078 20.9209L6.375 20.7608C6.23435 20.6201 6.15528 20.4294 6.15527 20.2305V12.3682L6.16309 12.2578C6.20082 12.0047 6.36701 11.7849 6.60645 11.6807C7.52704 11.2801 8.31618 10.6277 8.88281 9.79886C9.44944 8.96989 9.77154 7.99753 9.81055 6.99417L9.82324 6.88187V6.87894L9.82617 6.86429C9.82778 6.85657 9.83043 6.84643 9.83301 6.83499V6.83304C9.83811 6.81045 9.84522 6.78099 9.85449 6.74613C9.87371 6.67396 9.90395 6.57511 9.94629 6.46292C10.0276 6.2477 10.1729 5.93751 10.4219 5.66703C10.6825 5.38394 11.0746 5.12862 11.6045 5.11039Z" fill="#303030"/>
<path d="M6.29932 7.32544H7.56266" stroke="#303030" stroke-width="1.5" stroke-linecap="round" stroke-linejoin="round"/>
<path d="M7.5625 3.83826L8.44997 4.72573" stroke="#303030" stroke-width="1.5" stroke-linecap="round" stroke-linejoin="round"/>
<path d="M11.958 3.59812V2.34521" stroke="#303030" stroke-width="1.5" stroke-linecap="round" stroke-linejoin="round"/>
<path d="M15.4453 4.72573L16.3328 3.83826" stroke="#303030" stroke-width="1.5" stroke-linecap="round" stroke-linejoin="round"/>
<path d="M16.3853 7.32544H17.6382" stroke="#303030" stroke-width="1.5" stroke-linecap="round" stroke-linejoin="round"/>
</svg>
