<svg xmlns="http://www.w3.org/2000/svg" viewBox="0 0 17.37 20.51"><defs><style>.cls-1,.cls-2{fill:none;stroke:#2f3645;stroke-linecap:round;stroke-linejoin:round;}.cls-1{stroke-width:1.56px;}.cls-2{stroke-width:1.5px;}</style></defs><g id="레이어_2" data-name="레이어 2"><g id="레이어_1-2" data-name="레이어 1"><g id="reading_note_multiple_pages" data-name="reading_note/multiple_pages"><path class="cls-1" d="M14.09,17.7V18a1.8,1.8,0,0,1-1.82,1.77H2.61A1.81,1.81,0,0,1,.78,18V5A1.8,1.8,0,0,1,2.61,3.26h.57"/><path class="cls-2" d="M15.75,5.73H12.44a.81.81,0,0,1-.81-.81V1.61A.81.81,0,0,1,13,1l3.3,3.3A.81.81,0,0,1,15.75,5.73Z"/><path class="cls-2" d="M16.62,5.08V15.46a1.76,1.76,0,0,1-1.77,1.76H5.52a1.76,1.76,0,0,1-1.77-1.76V2.52A1.77,1.77,0,0,1,5.52.75h6.8"/></g></g></g></svg>