<svg width="18" height="18" viewBox="0 0 18 18" fill="none" xmlns="http://www.w3.org/2000/svg">
<g clip-path="url(#clip0_2547_4981)">
<path d="M15.0838 1.04652L16.9435 2.90622C17.131 3.09375 17.2364 3.34811 17.2364 3.61332C17.2364 3.87854 17.131 4.13289 16.9435 4.32043L14.4686 6.7953L11.1876 3.51433L13.6555 1.04652C13.7486 0.951529 13.8597 0.876063 13.9823 0.824544C14.1049 0.773025 14.2366 0.746488 14.3696 0.746488C14.5026 0.746488 14.6343 0.773025 14.7569 0.824544C14.8796 0.876063 14.9907 0.951529 15.0838 1.04652Z" stroke="#2F3645" stroke-width="1.5" stroke-linecap="round" stroke-linejoin="round"/>
<path d="M14.4636 6.79148L11.1897 3.51758L1.89124 12.816L5.16515 16.0899L14.4636 6.79148Z" stroke="#2F3645" stroke-width="1.52" stroke-linecap="round" stroke-linejoin="round"/>
<path d="M0.75 17.25L5.2 16.12L1.88 12.8L0.75 17.25Z" stroke="#2F3645" stroke-width="1.5" stroke-linecap="round" stroke-linejoin="round"/>
</g>
<defs>
<clipPath id="clip0_2547_4981">
<rect width="17.99" height="18" fill="white"/>
</clipPath>
</defs>
</svg>
