<svg width="18" height="21" viewBox="0 0 18 21" fill="none" xmlns="http://www.w3.org/2000/svg">
<g clip-path="url(#clip0_2547_5280)">
<path d="M14.09 17.7V18C14.0821 18.4757 13.8863 18.9289 13.5452 19.2605C13.2042 19.5922 12.7457 19.7754 12.27 19.77H2.61003C2.13339 19.7754 1.67386 19.5926 1.33123 19.2612C0.988604 18.9298 0.790533 18.4766 0.780029 18V5.00003C0.795706 4.52788 0.99637 4.08082 1.33873 3.7553C1.68108 3.42978 2.13769 3.2519 2.61003 3.26003H3.18003" stroke="#2F3645" stroke-width="1.56" stroke-linecap="round" stroke-linejoin="round"/>
<path d="M15.75 5.73004H12.44C12.3337 5.73004 12.2283 5.70909 12.1301 5.66838C12.0318 5.62768 11.9425 5.56801 11.8673 5.4928C11.7921 5.41758 11.7324 5.32829 11.6917 5.23002C11.651 5.13174 11.63 5.02641 11.63 4.92004V1.61004C11.625 1.44925 11.668 1.29061 11.7535 1.15435C11.8391 1.01809 11.9632 0.910374 12.1102 0.844938C12.2571 0.779503 12.4202 0.75931 12.5787 0.786933C12.7372 0.814557 12.8839 0.888745 13 1.00004L16.3 4.30004C16.4293 4.4085 16.5215 4.55462 16.5637 4.718C16.6059 4.88137 16.596 5.05385 16.5354 5.21135C16.4749 5.36884 16.3666 5.50349 16.2258 5.59648C16.085 5.68947 15.9187 5.73616 15.75 5.73004Z" stroke="#2F3645" stroke-width="1.5" stroke-linecap="round" stroke-linejoin="round"/>
<path d="M16.62 5.08V15.46C16.62 15.692 16.5741 15.9217 16.4851 16.1358C16.396 16.35 16.2655 16.5445 16.101 16.7081C15.9365 16.8716 15.7413 17.0011 15.5266 17.0889C15.3119 17.1768 15.082 17.2213 14.85 17.22H5.52C5.28803 17.2213 5.05809 17.1768 4.84341 17.0889C4.62872 17.0011 4.43351 16.8716 4.26902 16.7081C4.10453 16.5445 3.974 16.35 3.88492 16.1358C3.79585 15.9217 3.75 15.692 3.75 15.46V2.52C3.75 2.05057 3.93648 1.60036 4.26842 1.26842C4.60036 0.936482 5.05057 0.75 5.52 0.75H12.32" stroke="#2F3645" stroke-width="1.5" stroke-linecap="round" stroke-linejoin="round"/>
</g>
<defs>
<clipPath id="clip0_2547_5280">
<rect width="17.37" height="20.51" fill="white"/>
</clipPath>
</defs>
</svg>
