<svg xmlns="http://www.w3.org/2000/svg" viewBox="0 0 20.06 20.17"><defs><style>.cls-1{fill:none;}.cls-1,.cls-2{stroke:#2f3645;stroke-miterlimit:10;stroke-width:1.5px;}.cls-2{fill:#fff;}</style></defs><g id="레이어_2" data-name="레이어 2"><g id="레이어_1-2" data-name="레이어 1"><g id="reading_note_tags" data-name="reading_note/tags"><path class="cls-1" d="M9.86.86A1.25,1.25,0,0,0,9.38.75H9.23L3.67.84a1,1,0,0,0-1,1L2.63,7.36v.15A.93.93,0,0,0,2.74,8a2.15,2.15,0,0,0,.54.9l7.91,7.91a2.07,2.07,0,0,0,2.93.08l4.63-4.62a2.09,2.09,0,0,0-.09-2.94L10.75,1.4A2.3,2.3,0,0,0,9.86.86Z"/><path class="cls-2" d="M8,2.94a1,1,0,0,0-.47-.11H7.36L1.82,3a1,1,0,0,0-.95.95L.75,9.44v.15a1,1,0,0,0,.11.47,2.16,2.16,0,0,0,.53.89l7.83,7.83a2.08,2.08,0,0,0,2.93.07l4.62-4.62a2.08,2.08,0,0,0-.07-2.93L8.87,3.47A2.16,2.16,0,0,0,8,2.94Z"/><circle class="cls-1" cx="4.81" cy="7.03" r="1.33"/></g></g></g></svg>