<svg width="24" height="24" viewBox="0 0 24 24" fill="none" xmlns="http://www.w3.org/2000/svg">
<path d="M11.8602 2.86C11.7091 2.79187 11.5459 2.75448 11.3802 2.75H11.2302L5.67019 2.84C5.40497 2.84 5.15062 2.94536 4.96308 3.13289C4.77555 3.32043 4.67019 3.57478 4.67019 3.84L4.63019 9.36V9.51C4.62123 9.68033 4.65928 9.84984 4.74019 10C4.84308 10.34 5.0286 10.6492 5.28019 10.9L13.1902 18.81C13.3771 19.0079 13.6013 19.1671 13.8498 19.2782C14.0984 19.3894 14.3664 19.4505 14.6386 19.4579C14.9108 19.4653 15.1817 19.419 15.436 19.3215C15.6902 19.2241 15.9227 19.0774 16.1202 18.89L20.7502 14.27C21.1256 13.867 21.3268 13.332 21.3099 12.7815C21.2931 12.2309 21.0596 11.7093 20.6602 11.33L12.7502 3.4C12.4987 3.15435 12.1942 2.96961 11.8602 2.86Z" stroke="currentColor" stroke-width="1.5" stroke-miterlimit="10"/>
<path d="M10.0001 4.93993C9.85476 4.86543 9.69339 4.82767 9.5301 4.82993H9.3601L3.8201 4.99993C3.57206 5.01205 3.3374 5.11603 3.1618 5.29163C2.9862 5.46723 2.88222 5.70189 2.8701 5.94993L2.7501 11.4399V11.5899C2.74783 11.7532 2.7856 11.9146 2.8601 12.0599C2.96196 12.3952 3.14386 12.7006 3.3901 12.9499L11.2201 20.7799C11.6004 21.1759 12.1218 21.4055 12.6707 21.4186C13.2195 21.4317 13.7513 21.2273 14.1501 20.8499L18.7701 16.2299C19.1475 15.8312 19.3519 15.2994 19.3388 14.7505C19.3257 14.2016 19.0961 13.6802 18.7001 13.2999L10.8701 5.46993C10.6265 5.22643 10.3282 5.04471 10.0001 4.93993Z" fill="white" stroke="currentColor" stroke-width="1.5" stroke-miterlimit="10"/>
<path d="M6.80998 10.36C7.54452 10.36 8.13998 9.76449 8.13998 9.02995C8.13998 8.29541 7.54452 7.69995 6.80998 7.69995C6.07544 7.69995 5.47998 8.29541 5.47998 9.02995C5.47998 9.76449 6.07544 10.36 6.80998 10.36Z" stroke="currentColor" stroke-width="1.5" stroke-miterlimit="10"/>
</svg>
