<svg width="24" height="24" viewBox="0 0 24 24" fill="none" xmlns="http://www.w3.org/2000/svg">
<path d="M17.09 19.7V20C17.0821 20.4757 16.8863 20.9289 16.5452 21.2605C16.2042 21.5922 15.7457 21.7754 15.27 21.77H5.61003C5.13339 21.7754 4.67386 21.5926 4.33123 21.2612C3.9886 20.9298 3.79053 20.4766 3.78003 20V7.00003C3.79571 6.52788 3.99637 6.08082 4.33873 5.7553C4.68108 5.42978 5.13769 5.2519 5.61003 5.26003H6.18003" stroke="#2F3645" stroke-width="1.56" stroke-linecap="round" stroke-linejoin="round"/>
<path d="M18.75 7.73004H15.44C15.3337 7.73004 15.2283 7.70909 15.1301 7.66838C15.0318 7.62768 14.9425 7.56801 14.8673 7.4928C14.7921 7.41758 14.7324 7.32829 14.6917 7.23002C14.651 7.13174 14.63 7.02641 14.63 6.92004V3.61004C14.625 3.44925 14.668 3.29061 14.7535 3.15435C14.8391 3.01809 14.9632 2.91037 15.1102 2.84494C15.2571 2.7795 15.4202 2.75931 15.5787 2.78693C15.7372 2.81456 15.8839 2.88874 16 3.00004L19.3 6.30004C19.4293 6.4085 19.5215 6.55462 19.5637 6.718C19.6059 6.88137 19.596 7.05385 19.5354 7.21135C19.4749 7.36884 19.3666 7.50349 19.2258 7.59648C19.085 7.68947 18.9187 7.73616 18.75 7.73004Z" stroke="#2F3645" stroke-width="1.5" stroke-linecap="round" stroke-linejoin="round"/>
<path d="M19.62 7.08V17.46C19.62 17.692 19.5741 17.9217 19.4851 18.1358C19.396 18.35 19.2655 18.5445 19.101 18.7081C18.9365 18.8716 18.7413 19.0011 18.5266 19.0889C18.3119 19.1768 18.082 19.2213 17.85 19.22H8.52C8.28803 19.2213 8.05809 19.1768 7.84341 19.0889C7.62872 19.0011 7.43351 18.8716 7.26902 18.7081C7.10453 18.5445 6.974 18.35 6.88492 18.1358C6.79585 17.9217 6.75 17.692 6.75 17.46V4.52C6.75 4.05057 6.93648 3.60036 7.26842 3.26842C7.60036 2.93648 8.05057 2.75 8.52 2.75H15.32" stroke="#2F3645" stroke-width="1.5" stroke-linecap="round" stroke-linejoin="round"/>
</svg>
