<svg width="24" height="24" viewBox="0 0 24 24" fill="none" xmlns="http://www.w3.org/2000/svg">
<path d="M19.28 7.60996V19.37C19.28 19.9004 19.0692 20.4091 18.6942 20.7842C18.3191 21.1592 17.8104 21.37 17.28 21.37H6.70996C6.17953 21.37 5.67082 21.1592 5.29575 20.7842C4.92067 20.4091 4.70996 19.9004 4.70996 19.37V4.70996C4.70996 4.17953 4.92067 3.67082 5.29575 3.29575C5.67082 2.92067 6.17953 2.70996 6.70996 2.70996H14.41" stroke="currentColor" stroke-width="1.41" stroke-linecap="round" stroke-linejoin="round"/>
<path d="M18.2899 8.34998H14.5499C14.3059 8.34998 14.0719 8.25306 13.8993 8.08052C13.7268 7.90799 13.6299 7.67398 13.6299 7.42998V3.67998C13.624 3.49562 13.6736 3.31375 13.7724 3.15797C13.8712 3.00218 14.0145 2.87969 14.1837 2.80637C14.353 2.73306 14.5404 2.71233 14.7216 2.74685C14.9028 2.78137 15.0694 2.86957 15.1999 2.99998L18.9999 6.76998C19.1308 6.90356 19.2185 7.07353 19.2514 7.2577C19.2842 7.44187 19.2608 7.63167 19.1841 7.80231C19.1075 7.97296 18.9811 8.11651 18.8216 8.21421C18.662 8.31192 18.4767 8.35923 18.2899 8.34998Z" stroke="currentColor" stroke-width="1.5" stroke-linecap="round" stroke-linejoin="round"/>
</svg>
