<svg width="24" height="24" viewBox="0 0 24 24" fill="none" xmlns="http://www.w3.org/2000/svg">
<path d="M15.0601 2.75H19.2801C19.8105 2.75 20.3192 2.96071 20.6943 3.33579C21.0693 3.71086 21.2801 4.21957 21.2801 4.75V9" stroke="currentColor" stroke-width="1.5" stroke-linecap="round" stroke-linejoin="round"/>
<path d="M9.00002 21.29H4.77002C4.23959 21.29 3.73088 21.0793 3.35581 20.7042C2.98073 20.3291 2.77002 19.8204 2.77002 19.29V14.88" stroke="currentColor" stroke-width="1.5" stroke-linecap="round" stroke-linejoin="round"/>
<path d="M9.00002 2.75H4.77002C4.23959 2.75 3.73088 2.96071 3.35581 3.33579C2.98073 3.71086 2.77002 4.21957 2.77002 4.75V9" stroke="currentColor" stroke-width="1.5" stroke-linecap="round" stroke-linejoin="round"/>
<path d="M15 21.29H19.26C19.7904 21.29 20.2991 21.0793 20.6742 20.7042C21.0493 20.3291 21.26 19.8204 21.26 19.29V14.88" stroke="currentColor" stroke-width="1.5" stroke-linecap="round" stroke-linejoin="round"/>
<path d="M7.45996 7.56995H16.55" stroke="currentColor" stroke-width="1.5" stroke-linecap="round" stroke-linejoin="round"/>
<path d="M12.01 18.09V7.78003" stroke="currentColor" stroke-width="1.5" stroke-linecap="round" stroke-linejoin="round"/>
</svg>
