<svg width="16" height="21" viewBox="0 0 16 21" fill="none" xmlns="http://www.w3.org/2000/svg">
<g clip-path="url(#clip0_2547_5274)">
<path d="M15.28 5.60996V17.37C15.28 17.9004 15.0692 18.4091 14.6942 18.7842C14.3191 19.1592 13.8104 19.37 13.28 19.37H2.70996C2.17953 19.37 1.67082 19.1592 1.29575 18.7842C0.920675 18.4091 0.709961 17.9004 0.709961 17.37V2.70996C0.709961 2.17953 0.920675 1.67082 1.29575 1.29575C1.67082 0.920675 2.17953 0.709961 2.70996 0.709961H10.41" stroke="#2F3645" stroke-width="1.41" stroke-linecap="round" stroke-linejoin="round"/>
<path d="M14.2899 6.34998H10.5499C10.3059 6.34998 10.0719 6.25306 9.89933 6.08052C9.72679 5.90799 9.62986 5.67398 9.62986 5.42998V1.67998C9.62397 1.49562 9.67363 1.31375 9.7724 1.15797C9.87117 1.00218 10.0145 0.879685 10.1837 0.806375C10.353 0.733064 10.5404 0.712326 10.7216 0.74685C10.9028 0.781375 11.0694 0.869569 11.1999 0.999985L14.9999 4.76998C15.1308 4.90356 15.2185 5.07353 15.2514 5.2577C15.2842 5.44187 15.2608 5.63167 15.1841 5.80231C15.1075 5.97296 14.9811 6.11651 14.8216 6.21421C14.662 6.31192 14.4767 6.35923 14.2899 6.34998Z" stroke="#2F3645" stroke-width="1.5" stroke-linecap="round" stroke-linejoin="round"/>
</g>
<defs>
<clipPath id="clip0_2547_5274">
<rect width="15.99" height="20.07" fill="white"/>
</clipPath>
</defs>
</svg>
