<svg width="16" height="20" viewBox="0 0 16 20" fill="none" xmlns="http://www.w3.org/2000/svg">
<g clip-path="url(#clip0_2547_4967)">
<path d="M4.04004 8.15991H11.9" stroke="#2F3645" stroke-width="1.5" stroke-linecap="round" stroke-linejoin="round"/>
<path d="M7.96997 4.22998V12.09" stroke="#2F3645" stroke-width="1.5" stroke-linecap="round" stroke-linejoin="round"/>
<path d="M13.7 19L8.40999 16.43C8.27434 16.3645 8.12564 16.3304 7.97499 16.3304C7.82434 16.3304 7.67564 16.3645 7.53999 16.43L2.23999 19C2.08271 19.089 1.90425 19.1337 1.72359 19.1294C1.54294 19.125 1.36683 19.0718 1.21399 18.9754C1.06116 18.879 0.937304 18.743 0.855602 18.5818C0.7739 18.4206 0.737401 18.2403 0.749987 18.06V2.85C0.748671 2.57554 0.801428 2.3035 0.905246 2.04943C1.00906 1.79535 1.16191 1.56421 1.35506 1.36921C1.5482 1.17421 1.77787 1.01916 2.03094 0.912912C2.28401 0.806668 2.55552 0.75131 2.82999 0.75H13.12C13.3945 0.75131 13.666 0.806668 13.919 0.912912C14.1721 1.01916 14.4018 1.17421 14.5949 1.36921C14.7881 1.56421 14.9409 1.79535 15.0447 2.04943C15.1485 2.3035 15.2013 2.57554 15.2 2.85V18.06C15.1985 18.2364 15.1527 18.4096 15.0666 18.5636C14.9805 18.7176 14.8571 18.8474 14.7076 18.9411C14.5581 19.0347 14.3874 19.0892 14.2113 19.0995C14.0352 19.1098 13.8594 19.0756 13.7 19Z" stroke="#2F3645" stroke-width="1.5" stroke-miterlimit="10"/>
</g>
<defs>
<clipPath id="clip0_2547_4967">
<rect width="15.95" height="19.87" fill="white"/>
</clipPath>
</defs>
</svg>
