<svg width="24" height="24" viewBox="0 0 24 24" fill="none" xmlns="http://www.w3.org/2000/svg">
<path d="M8.04004 10.1599H15.9" stroke="#2F3645" stroke-width="1.5" stroke-linecap="round" stroke-linejoin="round"/>
<path d="M11.97 6.22998V14.09" stroke="#2F3645" stroke-width="1.5" stroke-linecap="round" stroke-linejoin="round"/>
<path d="M17.7 21L12.41 18.43C12.2743 18.3645 12.1256 18.3304 11.975 18.3304C11.8243 18.3304 11.6756 18.3645 11.54 18.43L6.23999 21C6.08271 21.089 5.90425 21.1337 5.72359 21.1294C5.54294 21.125 5.36683 21.0718 5.21399 20.9754C5.06116 20.879 4.9373 20.743 4.8556 20.5818C4.7739 20.4206 4.7374 20.2403 4.74999 20.06V4.85C4.74867 4.57554 4.80143 4.3035 4.90525 4.04943C5.00906 3.79535 5.16191 3.56421 5.35506 3.36921C5.5482 3.17421 5.77787 3.01916 6.03094 2.91291C6.28401 2.80667 6.55552 2.75131 6.82999 2.75H17.12C17.3945 2.75131 17.666 2.80667 17.919 2.91291C18.1721 3.01916 18.4018 3.17421 18.5949 3.36921C18.7881 3.56421 18.9409 3.79535 19.0447 4.04943C19.1485 4.3035 19.2013 4.57554 19.2 4.85V20.06C19.1985 20.2364 19.1527 20.4096 19.0666 20.5636C18.9805 20.7176 18.8571 20.8474 18.7076 20.9411C18.5581 21.0347 18.3874 21.0892 18.2113 21.0995C18.0352 21.1098 17.8594 21.0756 17.7 21Z" stroke="#2F3645" stroke-width="1.5" stroke-miterlimit="10"/>
</svg>
