<svg width="24" height="24" viewBox="0 0 24 24" fill="none" xmlns="http://www.w3.org/2000/svg">
<path d="M2.75 20.25H20.91" stroke="#2F3645" stroke-width="1.5" stroke-linecap="round" stroke-linejoin="round"/>
<path d="M16 3.82989C14.54 3.45989 12.83 4.38989 11.7 5.99989C10.56 4.38989 8.85004 3.45989 7.36004 3.82989C5.38004 4.31989 4.00004 6.90989 4.92004 9.55989C5.5312 10.8289 6.4878 11.8999 7.68004 12.6499L11.38 15.6499C11.4635 15.7132 11.5653 15.7474 11.67 15.7474C11.7748 15.7474 11.8766 15.7132 11.96 15.6499L15.66 12.6499C16.9106 11.7904 17.9139 10.6181 18.57 9.24989C18.7838 8.72747 18.8863 8.16622 18.871 7.60197C18.8556 7.03771 18.7228 6.48286 18.4809 5.97283C18.2391 5.4628 17.8936 5.0088 17.4664 4.63983C17.0392 4.27085 16.5398 3.995 16 3.82989Z" stroke="#2F3645" stroke-width="1.5" stroke-miterlimit="10"/>
<path d="M3.54004 17.7H8.84004C9.17575 17.6987 9.50842 17.7636 9.81895 17.8912C10.1295 18.0188 10.4118 18.2064 10.6496 18.4433C10.8875 18.6802 11.0762 18.9618 11.205 19.2718C11.3338 19.5818 11.4 19.9143 11.4 20.25H3.54004V17.7Z" stroke="#2F3645" stroke-width="1.5" stroke-linecap="round" stroke-linejoin="round"/>
<path d="M20.1201 20.25H12.2601C12.2601 19.9151 12.3261 19.5835 12.4542 19.2742C12.5824 18.9648 12.7702 18.6837 13.007 18.4469C13.2438 18.2101 13.5249 18.0223 13.8343 17.8941C14.1437 17.766 14.4752 17.7 14.8101 17.7H20.1201V20.25Z" stroke="#2F3645" stroke-width="1.5" stroke-linecap="round" stroke-linejoin="round"/>
</svg>
