<svg width="21" height="20" viewBox="0 0 21 20" fill="none" xmlns="http://www.w3.org/2000/svg">
<g clip-path="url(#clip0_2547_5056)">
<path d="M10.1 1.61C11.0473 1.61 11.9734 1.89093 12.7611 2.41726C13.5488 2.94359 14.1628 3.69169 14.5253 4.56695C14.8879 5.4422 14.9827 6.40531 14.7979 7.33448C14.6131 8.26365 14.1569 9.11715 13.487 9.78704C12.8171 10.4569 11.9636 10.9131 11.0344 11.098C10.1053 11.2828 9.14216 11.1879 8.2669 10.8254C7.39164 10.4628 6.64355 9.84889 6.11721 9.06118C5.59088 8.27347 5.30995 7.34737 5.30995 6.4C5.3126 5.13042 5.8181 3.9136 6.71583 3.01588C7.61356 2.11815 8.83038 1.61264 10.1 1.61ZM10.1 0C8.83415 0 7.59678 0.375353 6.5443 1.07859C5.49183 1.78184 4.67153 2.78138 4.18713 3.95083C3.70272 5.12027 3.57598 6.4071 3.82293 7.64858C4.06987 8.89006 4.67941 10.0304 5.57447 10.9255C6.46953 11.8205 7.6099 12.4301 8.85138 12.677C10.0929 12.924 11.3797 12.7972 12.5491 12.3128C13.7186 11.8284 14.7181 11.0081 15.4214 9.95565C16.1246 8.90317 16.5 7.6658 16.5 6.4C16.5 4.70261 15.8257 3.07475 14.6254 1.87452C13.4252 0.674284 11.7973 0 10.1 0Z" fill="#2F3645"/>
<path d="M3.07007 16.9399H9.57007" stroke="#2F3645" stroke-width="1.5" stroke-linecap="round" stroke-linejoin="round"/>
<path d="M10.1001 3.62012V6.93012" stroke="#2F3645" stroke-width="1.5" stroke-linecap="round" stroke-linejoin="round"/>
<path d="M12.23 7.85L10.22 7" stroke="#2F3645" stroke-width="1.5" stroke-linecap="round" stroke-linejoin="round"/>
<path d="M17 15.4299C17.368 15.4725 17.7075 15.6488 17.9539 15.9254C18.2003 16.202 18.3365 16.5595 18.3365 16.9299C18.3365 17.3004 18.2003 17.6579 17.9539 17.9345C17.7075 18.211 17.368 18.3874 17 18.4299H3C2.63202 18.3874 2.29252 18.211 2.04609 17.9345C1.79966 17.6579 1.66349 17.3004 1.66349 16.9299C1.66349 16.5595 1.79966 16.202 2.04609 15.9254C2.29252 15.6488 2.63202 15.4725 3 15.4299H17ZM17 13.9299H3C2.20435 13.9299 1.44129 14.246 0.87868 14.8086C0.31607 15.3712 0 16.1343 0 16.9299C0 17.7256 0.31607 18.4886 0.87868 19.0513C1.44129 19.6139 2.20435 19.9299 3 19.9299H17C17.7956 19.9299 18.5587 19.6139 19.1213 19.0513C19.6839 18.4886 20 17.7256 20 16.9299C20 16.1343 19.6839 15.3712 19.1213 14.8086C18.5587 14.246 17.7956 13.9299 17 13.9299Z" fill="#2F3645"/>
</g>
<defs>
<clipPath id="clip0_2547_5056">
<rect width="20.04" height="19.95" fill="white"/>
</clipPath>
</defs>
</svg>
