<svg width="20" height="20" viewBox="0 0 20 20" fill="none" xmlns="http://www.w3.org/2000/svg">
<g clip-path="url(#clip0_2547_5022)">
<path d="M10 1.66C11.6438 1.66396 13.2497 2.15477 14.6148 3.0705C15.98 3.98624 17.0432 5.28584 17.6705 6.8053C18.2977 8.32476 18.4608 9.99598 18.1391 11.608C17.8175 13.2201 17.0255 14.7007 15.8631 15.8631C14.7007 17.0255 13.2201 17.8175 11.608 18.1391C9.99599 18.4608 8.32477 18.2977 6.80531 17.6705C5.28584 17.0432 3.98624 15.9799 3.07051 14.6148C2.15478 13.2497 1.66396 11.6438 1.66 10C1.65737 8.90404 1.87129 7.81835 2.28948 6.8053C2.70767 5.79226 3.32189 4.87181 4.09685 4.09685C4.87182 3.32188 5.79226 2.70766 6.80531 2.28947C7.81835 1.87128 8.90404 1.65736 10 1.66ZM10 0C8.02219 0 6.08879 0.58649 4.4443 1.6853C2.79981 2.78412 1.51809 4.3459 0.761209 6.17317C0.00433284 8.00043 -0.193701 10.0111 0.192152 11.9509C0.578004 13.8907 1.53041 15.6725 2.92894 17.0711C4.32746 18.4696 6.10929 19.422 8.0491 19.8079C9.98891 20.1937 11.9996 19.9957 13.8268 19.2388C15.6541 18.4819 17.2159 17.2002 18.3147 15.5557C19.4135 13.9112 20 11.9778 20 10C20 7.34784 18.9464 4.8043 17.0711 2.92893C15.1957 1.05357 12.6522 0 10 0Z" fill="#2F3645"/>
<path d="M9.94995 13.8299V9.42993" stroke="#2F3645" stroke-width="2" stroke-linecap="round" stroke-linejoin="round"/>
<circle cx="9.94995" cy="6.21997" r="1" fill="#2F3645"/>
</g>
<defs>
<clipPath id="clip0_2547_5022">
<rect width="19.96" height="19.96" fill="white"/>
</clipPath>
</defs>
</svg>
