<svg xmlns="http://www.w3.org/2000/svg" viewBox="0 0 20.04 19.84"><defs><style>.cls-1{fill:none;stroke:#2f3645;stroke-linecap:round;stroke-linejoin:round;stroke-width:1.5px;}.cls-2{fill:#2f3645;}</style></defs><g id="레이어_2" data-name="레이어 2"><g id="레이어_1-2" data-name="레이어 1"><g id="record_period" data-name="record/period"><path class="cls-1" d="M9.3,19H2.75a2,2,0,0,1-2-2V4.41a2,2,0,0,1,2-2H17.29a2,2,0,0,1,2,2V9.2"/><line class="cls-1" x1="0.75" y1="7.3" x2="19.1" y2="7.3"/><line class="cls-1" x1="4.84" y1="0.75" x2="4.84" y2="4.07"/><line class="cls-1" x1="15.33" y1="0.75" x2="15.33" y2="4.07"/><path class="cls-2" d="M14.89,11.14a3.6,3.6,0,1,1-3.6,3.6,3.6,3.6,0,0,1,3.6-3.6m0-1.5a5.1,5.1,0,1,0,5.1,5.1,5.1,5.1,0,0,0-5.1-5.1Z"/><line class="cls-1" x1="14.89" y1="12.53" x2="14.89" y2="15.16"/><line class="cls-1" x1="16.59" y1="15.9" x2="14.99" y2="15.22"/></g></g></g></svg>