<svg width="24" height="24" viewBox="0 0 24 24" fill="none" xmlns="http://www.w3.org/2000/svg">
<path d="M5.90991 19.1301V14.4301C5.90991 14.4301 9.23991 12.5801 9.06991 14.4301V17.8301C9.06532 18.0225 8.98886 18.2062 8.8556 18.345C8.72234 18.4838 8.54193 18.5677 8.34991 18.5801C7.53375 18.6005 6.73182 18.7984 5.99991 19.1601C5.99991 19.1601 5.90991 19.1601 5.90991 19.1301Z" stroke="#2F3645" stroke-width="1.5" stroke-linecap="round" stroke-linejoin="round"/>
<path d="M5.90997 19.14V14.44C5.90997 14.44 2.58997 12.57 2.75997 14.44V17.87C2.76209 18.0641 2.83744 18.2503 2.97095 18.3912C3.10445 18.5321 3.28626 18.6174 3.47997 18.63C4.30825 18.6059 5.12953 18.788 5.86997 19.16C5.86997 19.16 5.90997 19.16 5.90997 19.14Z" stroke="#2F3645" stroke-width="1.5" stroke-linecap="round" stroke-linejoin="round"/>
<path d="M6 21.2202H18C18.4235 21.2242 18.8436 21.1436 19.2355 20.9831C19.6274 20.8225 19.9833 20.5854 20.2823 20.2854C20.5814 19.9855 20.8174 19.6288 20.9767 19.2364C21.136 18.844 21.2153 18.4237 21.21 18.0002C21.1995 17.1576 20.856 16.3534 20.2545 15.7632C19.6531 15.1731 18.8426 14.8448 18 14.8502H14.86" stroke="#2F3645" stroke-width="1.5" stroke-linecap="round" stroke-linejoin="round"/>
<path d="M18.4099 9.6001H14.2899C13.5924 9.6001 12.9234 9.87719 12.4302 10.3704C11.937 10.8636 11.6599 11.5326 11.6599 12.2301C11.6599 12.9276 11.937 13.5966 12.4302 14.0898C12.9234 14.583 13.5924 14.8601 14.2899 14.8601H17.2899" stroke="#2F3645" stroke-width="1.5" stroke-linecap="round" stroke-linejoin="round"/>
<path d="M20.9999 6.14004H16.9999C16.939 6.13026 16.8838 6.09829 16.8451 6.05029C16.8063 6.0023 16.7866 5.94166 16.7899 5.88004V3.00004C16.7891 2.94012 16.8099 2.88192 16.8485 2.83603C16.887 2.79014 16.9407 2.75963 16.9999 2.75004H20.9999C21.1199 2.75004 21.3799 2.70004 21.2099 3.01004L20.5199 4.44004L21.2099 5.88004C21.2899 6.07004 21.1099 6.14004 20.9999 6.14004Z" stroke="#2F3645" stroke-width="1.5" stroke-miterlimit="10"/>
<path d="M16.74 8.98015V2.90015" stroke="#2F3645" stroke-width="1.5" stroke-linecap="round" stroke-linejoin="round"/>
</svg>
