<svg width="20" height="21" viewBox="0 0 20 21" fill="none" xmlns="http://www.w3.org/2000/svg">
<g clip-path="url(#clip0_2547_4997)">
<path d="M7.48 12.0801C7.61181 12.0826 7.7375 12.1361 7.83072 12.2294C7.92394 12.3226 7.97744 12.4483 7.98 12.5801V18.0601C7.98 18.1927 7.92732 18.3199 7.83355 18.4136C7.73979 18.5074 7.61261 18.5601 7.48 18.5601H2C1.86739 18.5601 1.74021 18.5074 1.64645 18.4136C1.55268 18.3199 1.5 18.1927 1.5 18.0601V12.5801C1.5 12.4475 1.55268 12.3203 1.64645 12.2265C1.74021 12.1328 1.86739 12.0801 2 12.0801H7.48ZM7.48 10.5801H2C1.46957 10.5801 0.960859 10.7908 0.585786 11.1659C0.210714 11.5409 0 12.0496 0 12.5801L0 18.0601C0 18.5905 0.210714 19.0992 0.585786 19.4743C0.960859 19.8494 1.46957 20.0601 2 20.0601H7.48C8.01043 20.0601 8.51914 19.8494 8.89421 19.4743C9.26929 19.0992 9.48 18.5905 9.48 18.0601V12.5801C9.48 12.0496 9.26929 11.5409 8.89421 11.1659C8.51914 10.7908 8.01043 10.5801 7.48 10.5801Z" fill="#2F3645"/>
<path d="M15.25 12.0801C15.8904 12.0821 16.5158 12.2738 17.0473 12.631C17.5788 12.9882 17.9926 13.4949 18.2363 14.0871C18.4799 14.6793 18.5427 15.3304 18.4165 15.9583C18.2904 16.5861 17.981 17.1625 17.5275 17.6146C17.074 18.0667 16.4967 18.3743 15.8684 18.4985C15.2402 18.6227 14.5893 18.558 13.9978 18.3125C13.4064 18.067 12.9009 17.6517 12.5454 17.1191C12.1898 16.5865 12 15.9605 12 15.3201C12.0027 14.4616 12.3449 13.639 12.9519 13.032C13.559 12.4249 14.3815 12.0827 15.24 12.0801M15.24 10.5801C14.3034 10.584 13.3889 10.8654 12.6121 11.3886C11.8352 11.9119 11.2308 12.6535 10.8751 13.52C10.5194 14.3864 10.4284 15.3389 10.6136 16.257C10.7987 17.1752 11.2517 18.0179 11.9154 18.6788C12.5791 19.3397 13.4237 19.7891 14.3426 19.9704C15.2615 20.1517 16.2136 20.0567 17.0785 19.6973C17.9435 19.338 18.6826 18.7304 19.2026 17.9514C19.7225 17.1723 20 16.2567 20 15.3201C20 14.6976 19.8774 14.0812 19.6392 13.5062C19.401 12.9311 19.0519 12.4085 18.6117 11.9684C18.1716 11.5282 17.649 11.1791 17.0739 10.9409C16.4989 10.7027 15.8825 10.5801 15.26 10.5801H15.24Z" fill="#2F3645"/>
<path d="M10.2299 1.5C10.3126 1.49905 10.3943 1.51866 10.4676 1.55705C10.5409 1.59545 10.6035 1.65144 10.6499 1.72L14.3799 7.18C14.4287 7.25795 14.4546 7.34805 14.4546 7.44C14.4546 7.53196 14.4287 7.62206 14.3799 7.7C14.3464 7.77758 14.2941 7.8456 14.2278 7.89797C14.1614 7.95033 14.0831 7.98539 13.9999 8H6.49988C6.40745 8 6.31675 7.97488 6.23749 7.92732C6.15823 7.87977 6.09338 7.81156 6.04988 7.73C6.00109 7.65206 5.97521 7.56196 5.97521 7.47C5.97521 7.37805 6.00109 7.28795 6.04988 7.21L9.80988 1.72C9.85622 1.65144 9.91884 1.59545 9.99215 1.55705C10.0655 1.51866 10.1471 1.49905 10.2299 1.5ZM10.2299 2.27042e-06C9.90228 -0.00049131 9.57957 0.0794992 9.29012 0.232942C9.00067 0.386385 8.75334 0.608583 8.56988 0.880002L4.84988 6.33C4.64143 6.63049 4.51935 6.98238 4.49693 7.3474C4.47451 7.71242 4.5526 8.07661 4.72272 8.40034C4.89283 8.72408 5.14846 8.99498 5.46179 9.18357C5.77513 9.37216 6.13417 9.47123 6.49988 9.47H13.9999C14.3656 9.47123 14.7246 9.37216 15.038 9.18357C15.3513 8.99498 15.6069 8.72408 15.777 8.40034C15.9472 8.07661 16.0253 7.71242 16.0028 7.3474C15.9804 6.98238 15.8583 6.63049 15.6499 6.33L11.8899 0.880002C11.7064 0.608583 11.4591 0.386385 11.1696 0.232942C10.8802 0.0794992 10.5575 -0.00049131 10.2299 2.27042e-06Z" fill="#2F3645"/>
</g>
<defs>
<clipPath id="clip0_2547_4997">
<rect width="19.99" height="20.06" fill="white"/>
</clipPath>
</defs>
</svg>
