<svg width="24" height="24" viewBox="0 0 24 24" fill="none" xmlns="http://www.w3.org/2000/svg">
<path d="M12.1 3.61C13.0473 3.61 13.9734 3.89093 14.7611 4.41726C15.5488 4.94359 16.1628 5.69169 16.5253 6.56695C16.8879 7.4422 16.9827 8.40531 16.7979 9.33448C16.6131 10.2637 16.1569 11.1171 15.487 11.787C14.8171 12.4569 13.9636 12.9131 13.0344 13.098C12.1053 13.2828 11.1422 13.1879 10.2669 12.8254C9.39164 12.4628 8.64355 11.8489 8.11721 11.0612C7.59088 10.2735 7.30995 9.34737 7.30995 8.4C7.3126 7.13042 7.8181 5.9136 8.71583 5.01588C9.61356 4.11815 10.8304 3.61264 12.1 3.61ZM12.1 2C10.8342 2 9.59678 2.37535 8.5443 3.07859C7.49183 3.78184 6.67153 4.78138 6.18713 5.95083C5.70272 7.12027 5.57598 8.4071 5.82293 9.64858C6.06987 10.8901 6.67941 12.0304 7.57447 12.9255C8.46953 13.8205 9.6099 14.4301 10.8514 14.677C12.0929 14.924 13.3797 14.7972 14.5491 14.3128C15.7186 13.8284 16.7181 13.0081 17.4214 11.9556C18.1246 10.9032 18.5 9.6658 18.5 8.4C18.5 6.70261 17.8257 5.07475 16.6254 3.87452C15.4252 2.67428 13.7973 2 12.1 2Z" fill="currentColor"/>
<path d="M5.07007 18.9399H11.5701" stroke="currentColor" stroke-width="1.5" stroke-linecap="round" stroke-linejoin="round"/>
<path d="M12.1001 5.62012V8.93012" stroke="currentColor" stroke-width="1.5" stroke-linecap="round" stroke-linejoin="round"/>
<path d="M14.23 9.85L12.22 9" stroke="currentColor" stroke-width="1.5" stroke-linecap="round" stroke-linejoin="round"/>
<path d="M19 17.4299C19.368 17.4725 19.7075 17.6488 19.9539 17.9254C20.2003 18.202 20.3365 18.5595 20.3365 18.9299C20.3365 19.3004 20.2003 19.6579 19.9539 19.9345C19.7075 20.211 19.368 20.3874 19 20.4299H5C4.63202 20.3874 4.29252 20.211 4.04609 19.9345C3.79966 19.6579 3.66349 19.3004 3.66349 18.9299C3.66349 18.5595 3.79966 18.202 4.04609 17.9254C4.29252 17.6488 4.63202 17.4725 5 17.4299H19ZM19 15.9299H5C4.20435 15.9299 3.44129 16.246 2.87868 16.8086C2.31607 17.3712 2 18.1343 2 18.9299C2 19.7256 2.31607 20.4886 2.87868 21.0513C3.44129 21.6139 4.20435 21.9299 5 21.9299H19C19.7956 21.9299 20.5587 21.6139 21.1213 21.0513C21.6839 20.4886 22 19.7256 22 18.9299C22 18.1343 21.6839 17.3712 21.1213 16.8086C20.5587 16.246 19.7956 15.9299 19 15.9299Z" fill="currentColor"/>
</svg>
