<svg xmlns="http://www.w3.org/2000/svg" viewBox="0 0 19.99 20.06"><defs><style>.cls-1{fill:#2f3645;}</style></defs><g id="레이어_2" data-name="레이어 2"><g id="레이어_2-2" data-name="레이어 2"><g id="record_category" data-name="record/category"><path class="cls-1" d="M7.48,12.08a.51.51,0,0,1,.5.5v5.48a.5.5,0,0,1-.5.5H2a.5.5,0,0,1-.5-.5V12.58a.5.5,0,0,1,.5-.5H7.48m0-1.5H2a2,2,0,0,0-2,2v5.48a2,2,0,0,0,2,2H7.48a2,2,0,0,0,2-2V12.58a2,2,0,0,0-2-2Z"/><path class="cls-1" d="M15.25,12.08A3.24,3.24,0,1,1,12,15.32a3.25,3.25,0,0,1,3.24-3.24m0-1.5A4.74,4.74,0,1,0,20,15.32a4.74,4.74,0,0,0-4.74-4.74Z"/><path class="cls-1" d="M10.23,1.5a.5.5,0,0,1,.42.22l3.73,5.46a.49.49,0,0,1,0,.52A.51.51,0,0,1,14,8H6.5a.51.51,0,0,1-.45-.27.49.49,0,0,1,0-.52L9.81,1.72a.5.5,0,0,1,.42-.22m0-1.5A2,2,0,0,0,8.57.88L4.85,6.33A2,2,0,0,0,6.5,9.47H14a2,2,0,0,0,1.65-3.14L11.89.88A2,2,0,0,0,10.23,0Z"/></g></g></g></svg>