<svg width="21" height="20" viewBox="0 0 21 20" fill="none" xmlns="http://www.w3.org/2000/svg">
<g clip-path="url(#clip0_2547_5065)">
<path d="M10 18.9999H2.75C2.21957 18.9999 1.71086 18.7892 1.33579 18.4141C0.960714 18.0391 0.75 17.5303 0.75 16.9999V4.40991C0.75 3.87948 0.960714 3.37077 1.33579 2.9957C1.71086 2.62063 2.21957 2.40991 2.75 2.40991H17.29C17.8204 2.40991 18.3291 2.62063 18.7042 2.9957C19.0793 3.37077 19.29 3.87948 19.29 4.40991V10.9999" stroke="#2F3645" stroke-width="1.5" stroke-linecap="round" stroke-linejoin="round"/>
<path d="M0.75 7.30005H19.1" stroke="#2F3645" stroke-width="1.5" stroke-linecap="round" stroke-linejoin="round"/>
<path d="M4.84009 0.75V4.07" stroke="#2F3645" stroke-width="1.5" stroke-linecap="round" stroke-linejoin="round"/>
<path d="M15.3301 0.75V4.07" stroke="#2F3645" stroke-width="1.5" stroke-linecap="round" stroke-linejoin="round"/>
<path d="M12.27 16.8L14.47 19.01" stroke="#2F3645" stroke-width="1.5" stroke-linecap="round" stroke-linejoin="round"/>
<path d="M19.29 14.1899L14.52 18.9599" stroke="#2F3645" stroke-width="1.5" stroke-linecap="round" stroke-linejoin="round"/>
</g>
<defs>
<clipPath id="clip0_2547_5065">
<rect width="20.04" height="19.76" fill="white"/>
</clipPath>
</defs>
</svg>
