<svg width="24" height="24" viewBox="0 0 24 24" fill="none" xmlns="http://www.w3.org/2000/svg">
<path d="M11.3 20.9999H4.75C4.21957 20.9999 3.71086 20.7892 3.33579 20.4141C2.96071 20.0391 2.75 19.5303 2.75 18.9999V6.40991C2.75 5.87948 2.96071 5.37077 3.33579 4.9957C3.71086 4.62063 4.21957 4.40991 4.75 4.40991H19.29C19.8204 4.40991 20.3291 4.62063 20.7042 4.9957C21.0793 5.37077 21.29 5.87948 21.29 6.40991V11.1999" stroke="#2F3645" stroke-width="1.5" stroke-linecap="round" stroke-linejoin="round"/>
<path d="M2.75 9.30005H21.1" stroke="#2F3645" stroke-width="1.5" stroke-linecap="round" stroke-linejoin="round"/>
<path d="M6.84009 2.75V6.07" stroke="#2F3645" stroke-width="1.5" stroke-linecap="round" stroke-linejoin="round"/>
<path d="M17.3301 2.75V6.07" stroke="#2F3645" stroke-width="1.5" stroke-linecap="round" stroke-linejoin="round"/>
<path d="M16.89 13.1399C17.6021 13.1399 18.2981 13.351 18.8901 13.7466C19.4821 14.1422 19.9435 14.7044 20.216 15.3622C20.4885 16.02 20.5598 16.7439 20.4209 17.4422C20.282 18.1405 19.9391 18.782 19.4356 19.2855C18.9322 19.7889 18.2907 20.1318 17.5924 20.2707C16.894 20.4096 16.1702 20.3383 15.5124 20.0659C14.8546 19.7934 14.2923 19.332 13.8968 18.7399C13.5012 18.1479 13.29 17.4519 13.29 16.7399C13.29 15.7851 13.6693 14.8694 14.3445 14.1943C15.0196 13.5192 15.9353 13.1399 16.89 13.1399ZM16.89 11.6399C15.8814 11.6399 14.8953 11.939 14.0566 12.4994C13.2179 13.0598 12.5643 13.8563 12.1783 14.7882C11.7922 15.7201 11.6913 16.7455 11.888 17.7349C12.0848 18.7242 12.5705 19.6329 13.2838 20.3461C13.997 21.0594 14.9058 21.5451 15.8951 21.7419C16.8844 21.9387 17.9098 21.8377 18.8417 21.4517C19.7736 21.0657 20.5701 20.412 21.1305 19.5733C21.6909 18.7346 21.99 17.7486 21.99 16.7399C21.99 15.3873 21.4527 14.0901 20.4963 13.1336C19.5399 12.1772 18.2426 11.6399 16.89 11.6399Z" fill="#2F3645"/>
<path d="M16.8899 14.53V17.16" stroke="#2F3645" stroke-width="1.5" stroke-linecap="round" stroke-linejoin="round"/>
<path d="M18.59 17.9L16.99 17.22" stroke="#2F3645" stroke-width="1.5" stroke-linecap="round" stroke-linejoin="round"/>
</svg>
