<svg width="24" height="24" viewBox="0 0 24 24" fill="none" xmlns="http://www.w3.org/2000/svg">
<path d="M12 3.66C13.6438 3.66396 15.2497 4.15477 16.6148 5.0705C17.98 5.98624 19.0432 7.28584 19.6705 8.8053C20.2977 10.3248 20.4608 11.996 20.1391 13.608C19.8175 15.2201 19.0255 16.7007 17.8631 17.8631C16.7007 19.0255 15.2201 19.8175 13.608 20.1391C11.996 20.4608 10.3248 20.2977 8.80531 19.6705C7.28584 19.0432 5.98624 17.9799 5.07051 16.6148C4.15478 15.2497 3.66396 13.6438 3.66 12C3.65737 10.904 3.87129 9.81835 4.28948 8.8053C4.70767 7.79226 5.32189 6.87181 6.09685 6.09685C6.87182 5.32188 7.79226 4.70766 8.80531 4.28947C9.81835 3.87128 10.904 3.65736 12 3.66ZM12 2C10.0222 2 8.08879 2.58649 6.4443 3.6853C4.79981 4.78412 3.51809 6.3459 2.76121 8.17317C2.00433 10.0004 1.8063 12.0111 2.19215 13.9509C2.578 15.8907 3.53041 17.6725 4.92894 19.0711C6.32746 20.4696 8.10929 21.422 10.0491 21.8079C11.9889 22.1937 13.9996 21.9957 15.8268 21.2388C17.6541 20.4819 19.2159 19.2002 20.3147 17.5557C21.4135 15.9112 22 13.9778 22 12C22 9.34784 20.9464 6.8043 19.0711 4.92893C17.1957 3.05357 14.6522 2 12 2Z" fill="currentColor"/>
<path d="M11.95 15.8299V11.4299" stroke="currentColor" stroke-width="2" stroke-linecap="round" stroke-linejoin="round"/>
<circle cx="11.95" cy="8.21997" r="1" fill="currentColor"/>
</svg>
