<svg width="21" height="17" viewBox="0 0 21 17" fill="none" xmlns="http://www.w3.org/2000/svg">
<g clip-path="url(#clip0_2547_4988)">
<path d="M19.29 7.62003V5.23003C19.2874 4.98971 19.2375 4.75225 19.1431 4.53123C19.0487 4.3102 18.9117 4.10993 18.7399 3.94185C18.5681 3.77378 18.3649 3.64118 18.1418 3.55165C17.9188 3.46212 17.6803 3.41739 17.44 3.42003H2.6C2.35968 3.41739 2.12119 3.46212 1.89815 3.55165C1.67511 3.64118 1.4719 3.77378 1.30011 3.94185C1.12831 4.10993 0.991313 4.3102 0.896925 4.53123C0.802537 4.75225 0.752612 4.98971 0.75 5.23003V13.42C0.7579 13.9036 0.956934 14.3645 1.3036 14.7018C1.65026 15.039 2.11635 15.2254 2.6 15.22H10" stroke="#2F3645" stroke-width="1.5" stroke-linecap="round" stroke-linejoin="round"/>
<path d="M10.2799 3.44012V14.4901C8.41375 13.1435 6.18976 12.3813 3.88989 12.3001V0.830121C3.88989 0.830121 6.23989 0.000120878 10.2799 3.44012Z" fill="white" stroke="#2F3645" stroke-width="1.5" stroke-linecap="round" stroke-linejoin="round"/>
<path d="M16.66 6.77012V0.830121C16.66 0.830121 14.32 0.000120878 10.28 3.44012V15.2201" fill="white"/>
<path d="M16.66 6.77012V0.830121C16.66 0.830121 14.32 0.000120878 10.28 3.44012V15.2201" stroke="#2F3645" stroke-width="1.5" stroke-linecap="round" stroke-linejoin="round"/>
<path d="M15.8401 9.34009C16.4335 9.34009 17.0135 9.51604 17.5068 9.84568C18.0002 10.1753 18.3847 10.6439 18.6117 11.192C18.8388 11.7402 18.8982 12.3434 18.7825 12.9254C18.6667 13.5073 18.381 14.0419 17.9614 14.4614C17.5419 14.881 17.0073 15.1667 16.4254 15.2824C15.8434 15.3982 15.2402 15.3388 14.6921 15.1117C14.1439 14.8847 13.6753 14.5001 13.3457 14.0068C13.0161 13.5135 12.8401 12.9334 12.8401 12.3401C12.8401 11.5444 13.1562 10.7814 13.7188 10.2188C14.2814 9.65616 15.0445 9.34009 15.8401 9.34009ZM15.8401 7.84009C14.954 7.84009 14.0879 8.10284 13.3512 8.5951C12.6144 9.08737 12.0402 9.78705 11.7011 10.6057C11.362 11.4243 11.2733 12.3251 11.4462 13.1941C11.6191 14.0631 12.0457 14.8614 12.6723 15.4879C13.2988 16.1145 14.0971 16.5411 14.9661 16.714C15.8351 16.8869 16.7359 16.7981 17.5545 16.4591C18.3731 16.12 19.0728 15.5458 19.5651 14.809C20.0574 14.0723 20.3201 13.2061 20.3201 12.3201C20.3201 11.1319 19.8481 9.99241 19.0079 9.15225C18.1678 8.31209 17.0283 7.84009 15.8401 7.84009Z" fill="#2F3645"/>
<path d="M14.3 12.4702H17.37" stroke="#2F3645" stroke-width="1.5" stroke-linecap="round" stroke-linejoin="round"/>
</g>
<defs>
<clipPath id="clip0_2547_4988">
<rect width="20.32" height="16.8" fill="white"/>
</clipPath>
</defs>
</svg>
