<svg width="21" height="20" viewBox="0 0 21 20" fill="none" xmlns="http://www.w3.org/2000/svg">
<g clip-path="url(#clip0_2547_5029)">
<path d="M9.3 18.9999H2.75C2.21957 18.9999 1.71086 18.7892 1.33579 18.4141C0.960714 18.0391 0.75 17.5303 0.75 16.9999V4.40991C0.75 3.87948 0.960714 3.37077 1.33579 2.9957C1.71086 2.62063 2.21957 2.40991 2.75 2.40991H17.29C17.8204 2.40991 18.3291 2.62063 18.7042 2.9957C19.0793 3.37077 19.29 3.87948 19.29 4.40991V9.19991" stroke="#2F3645" stroke-width="1.5" stroke-linecap="round" stroke-linejoin="round"/>
<path d="M0.75 7.30005H19.1" stroke="#2F3645" stroke-width="1.5" stroke-linecap="round" stroke-linejoin="round"/>
<path d="M4.84009 0.75V4.07" stroke="#2F3645" stroke-width="1.5" stroke-linecap="round" stroke-linejoin="round"/>
<path d="M15.3301 0.75V4.07" stroke="#2F3645" stroke-width="1.5" stroke-linecap="round" stroke-linejoin="round"/>
<path d="M14.89 11.1399C15.6021 11.1399 16.2981 11.351 16.8901 11.7466C17.4821 12.1422 17.9435 12.7044 18.216 13.3622C18.4885 14.02 18.5598 14.7439 18.4209 15.4422C18.282 16.1405 17.9391 16.782 17.4356 17.2855C16.9322 17.7889 16.2907 18.1318 15.5924 18.2707C14.894 18.4096 14.1702 18.3383 13.5124 18.0659C12.8546 17.7934 12.2923 17.332 11.8968 16.7399C11.5012 16.1479 11.29 15.4519 11.29 14.7399C11.29 13.7851 11.6693 12.8694 12.3445 12.1943C13.0196 11.5192 13.9353 11.1399 14.89 11.1399ZM14.89 9.63989C13.8814 9.63989 12.8953 9.939 12.0566 10.4994C11.2179 11.0598 10.5643 11.8563 10.1783 12.7882C9.79225 13.7201 9.69125 14.7455 9.88804 15.7349C10.0848 16.7242 10.5705 17.6329 11.2838 18.3461C11.997 19.0594 12.9058 19.5451 13.8951 19.7419C14.8844 19.9387 15.9098 19.8377 16.8417 19.4517C17.7736 19.0657 18.5701 18.412 19.1305 17.5733C19.6909 16.7346 19.99 15.7486 19.99 14.7399C19.99 13.3873 19.4527 12.0901 18.4963 11.1336C17.5399 10.1772 16.2426 9.63989 14.89 9.63989Z" fill="#2F3645"/>
<path d="M14.8899 12.53V15.16" stroke="#2F3645" stroke-width="1.5" stroke-linecap="round" stroke-linejoin="round"/>
<path d="M16.59 15.9L14.99 15.22" stroke="#2F3645" stroke-width="1.5" stroke-linecap="round" stroke-linejoin="round"/>
</g>
<defs>
<clipPath id="clip0_2547_5029">
<rect width="20.04" height="19.84" fill="white"/>
</clipPath>
</defs>
</svg>
