<svg xmlns="http://www.w3.org/2000/svg" viewBox="0 0 20.04 19.95"><defs><style>.cls-1{fill:#2f3645;}.cls-2{fill:none;stroke:#2f3645;stroke-linecap:round;stroke-linejoin:round;stroke-width:1.5px;}</style></defs><g id="레이어_2" data-name="레이어 2"><g id="레이어_1-2" data-name="레이어 1"><g id="registration_reading" data-name="registration/reading"><path class="cls-1" d="M10.1,1.61A4.79,4.79,0,1,1,5.31,6.4,4.8,4.8,0,0,1,10.1,1.61M10.1,0a6.4,6.4,0,1,0,6.4,6.4A6.4,6.4,0,0,0,10.1,0Z"/><line class="cls-2" x1="3.07" y1="16.94" x2="9.57" y2="16.94"/><line class="cls-2" x1="10.1" y1="3.62" x2="10.1" y2="6.93"/><line class="cls-2" x1="12.23" y1="7.85" x2="10.22" y2="7"/><path class="cls-1" d="M17,15.43a1.51,1.51,0,0,1,0,3H3a1.51,1.51,0,0,1,0-3H17m0-1.5H3a3,3,0,0,0-3,3H0a3,3,0,0,0,3,3H17a3,3,0,0,0,3-3h0a3,3,0,0,0-3-3Z"/></g></g></g></svg>