<svg width="24" height="24" viewBox="0 0 24 24" fill="none" xmlns="http://www.w3.org/2000/svg">
<path d="M9.48 14.0801C9.61181 14.0826 9.7375 14.1361 9.83072 14.2294C9.92394 14.3226 9.97744 14.4483 9.98 14.5801V20.0601C9.98 20.1927 9.92732 20.3199 9.83355 20.4136C9.73979 20.5074 9.61261 20.5601 9.48 20.5601H4C3.86739 20.5601 3.74021 20.5074 3.64645 20.4136C3.55268 20.3199 3.5 20.1927 3.5 20.0601V14.5801C3.5 14.4475 3.55268 14.3203 3.64645 14.2265C3.74021 14.1328 3.86739 14.0801 4 14.0801H9.48ZM9.48 12.5801H4C3.46957 12.5801 2.96086 12.7908 2.58579 13.1659C2.21071 13.5409 2 14.0496 2 14.5801L2 20.0601C2 20.5905 2.21071 21.0992 2.58579 21.4743C2.96086 21.8494 3.46957 22.0601 4 22.0601H9.48C10.0104 22.0601 10.5191 21.8494 10.8942 21.4743C11.2693 21.0992 11.48 20.5905 11.48 20.0601V14.5801C11.48 14.0496 11.2693 13.5409 10.8942 13.1659C10.5191 12.7908 10.0104 12.5801 9.48 12.5801Z" fill="currentColor"/>
<path d="M17.25 14.0801C17.8904 14.0821 18.5158 14.2738 19.0473 14.631C19.5788 14.9882 19.9926 15.4949 20.2363 16.0871C20.4799 16.6793 20.5427 17.3304 20.4165 17.9583C20.2904 18.5861 19.981 19.1625 19.5275 19.6146C19.074 20.0667 18.4967 20.3743 17.8684 20.4985C17.2402 20.6227 16.5893 20.558 15.9978 20.3125C15.4064 20.067 14.9009 19.6517 14.5454 19.1191C14.1898 18.5865 14 17.9605 14 17.3201C14.0027 16.4616 14.3449 15.639 14.9519 15.032C15.559 14.4249 16.3815 14.0827 17.24 14.0801M17.24 12.5801C16.3034 12.584 15.3889 12.8654 14.6121 13.3886C13.8352 13.9119 13.2308 14.6535 12.8751 15.52C12.5194 16.3864 12.4284 17.3389 12.6136 18.257C12.7987 19.1752 13.2517 20.0179 13.9154 20.6788C14.5791 21.3397 15.4237 21.7891 16.3426 21.9704C17.2615 22.1517 18.2136 22.0567 19.0785 21.6973C19.9435 21.338 20.6826 20.7304 21.2026 19.9514C21.7225 19.1723 22 18.2567 22 17.3201C22 16.6976 21.8774 16.0812 21.6392 15.5062C21.401 14.9311 21.0519 14.4085 20.6117 13.9684C20.1716 13.5282 19.649 13.1791 19.0739 12.9409C18.4989 12.7027 17.8825 12.5801 17.26 12.5801H17.24Z" fill="currentColor"/>
<path d="M12.2299 3.5C12.3126 3.49905 12.3943 3.51866 12.4676 3.55705C12.5409 3.59545 12.6035 3.65144 12.6499 3.72L16.3799 9.18C16.4287 9.25795 16.4546 9.34805 16.4546 9.44C16.4546 9.53196 16.4287 9.62206 16.3799 9.7C16.3464 9.77758 16.2941 9.8456 16.2278 9.89797C16.1614 9.95033 16.0831 9.98539 15.9999 10H8.49988C8.40745 10 8.31675 9.97488 8.23749 9.92732C8.15823 9.87977 8.09338 9.81156 8.04988 9.73C8.00109 9.65206 7.97521 9.56196 7.97521 9.47C7.97521 9.37805 8.00109 9.28795 8.04988 9.21L11.8099 3.72C11.8562 3.65144 11.9188 3.59545 11.9921 3.55705C12.0655 3.51866 12.1471 3.49905 12.2299 3.5ZM12.2299 2C11.9023 1.99951 11.5796 2.0795 11.2901 2.23294C11.0007 2.38639 10.7533 2.60858 10.5699 2.88L6.84988 8.33C6.64143 8.63049 6.51935 8.98238 6.49693 9.3474C6.47451 9.71242 6.5526 10.0766 6.72272 10.4003C6.89283 10.7241 7.14846 10.995 7.46179 11.1836C7.77513 11.3722 8.13417 11.4712 8.49988 11.47H15.9999C16.3656 11.4712 16.7246 11.3722 17.038 11.1836C17.3513 10.995 17.6069 10.7241 17.777 10.4003C17.9472 10.0766 18.0253 9.71242 18.0028 9.3474C17.9804 8.98238 17.8583 8.63049 17.6499 8.33L13.8899 2.88C13.7064 2.60858 13.4591 2.38639 13.1696 2.23294C12.8802 2.0795 12.5575 1.99951 12.2299 2Z" fill="currentColor"/>
</svg>
