<svg width="20" height="18" viewBox="0 0 20 18" fill="none" xmlns="http://www.w3.org/2000/svg">
<g clip-path="url(#clip0_2547_5075)">
<path d="M0.75 17.25H18.91" stroke="#2F3645" stroke-width="1.5" stroke-linecap="round" stroke-linejoin="round"/>
<path d="M14 0.829889C12.54 0.459889 10.83 1.38989 9.70004 2.99989C8.56004 1.38989 6.85004 0.459889 5.36004 0.829889C3.38004 1.31989 2.00004 3.90989 2.92004 6.55989C3.5312 7.82891 4.4878 8.89989 5.68004 9.64989L9.38004 12.6499C9.46348 12.7132 9.56533 12.7474 9.67004 12.7474C9.77476 12.7474 9.8766 12.7132 9.96004 12.6499L13.66 9.64989C14.9106 8.79039 15.9139 7.6181 16.57 6.24989C16.7838 5.72747 16.8863 5.16622 16.871 4.60197C16.8556 4.03771 16.7228 3.48286 16.4809 2.97283C16.2391 2.4628 15.8936 2.0088 15.4664 1.63983C15.0392 1.27085 14.5398 0.994999 14 0.829889Z" stroke="#2F3645" stroke-width="1.5" stroke-miterlimit="10"/>
<path d="M1.54004 14.7H6.84004C7.17575 14.6987 7.50842 14.7636 7.81895 14.8912C8.12949 15.0188 8.41178 15.2064 8.64963 15.4433C8.88748 15.6802 9.07621 15.9618 9.20498 16.2718C9.33375 16.5818 9.40004 16.9143 9.40004 17.25H1.54004V14.7Z" stroke="#2F3645" stroke-width="1.5" stroke-linecap="round" stroke-linejoin="round"/>
<path d="M18.1201 17.25H10.2601C10.2601 16.9151 10.3261 16.5835 10.4542 16.2742C10.5824 15.9648 10.7702 15.6837 11.007 15.4469C11.2438 15.2101 11.5249 15.0223 11.8343 14.8941C12.1437 14.766 12.4752 14.7 12.8101 14.7H18.1201V17.25Z" stroke="#2F3645" stroke-width="1.5" stroke-linecap="round" stroke-linejoin="round"/>
</g>
<defs>
<clipPath id="clip0_2547_5075">
<rect width="19.66" height="18" fill="white"/>
</clipPath>
</defs>
</svg>
