<svg xmlns="http://www.w3.org/2000/svg" viewBox="0 0 18.74 19.87"><defs><style>.cls-1,.cls-2{fill:none;stroke:#2f3645;}.cls-1{stroke-miterlimit:10;stroke-width:1.52px;}.cls-2{stroke-linecap:round;stroke-linejoin:round;stroke-width:1.5px;}</style></defs><g id="레이어_2" data-name="레이어 2"><g id="레이어_2-2" data-name="레이어 2"><g id="record_rating" data-name="record/rating"><rect class="cls-1" x="0.76" y="9.79" width="3.74" height="8.96" rx="0.63"/><path class="cls-2" d="M13,9.79h2.93A1.16,1.16,0,0,1,17.09,11h0a1.16,1.16,0,0,1-1.16,1.15H13"/><path class="cls-2" d="M13.9,12.1h2.93A1.16,1.16,0,0,1,18,13.26h0a1.16,1.16,0,0,1-1.16,1.16H13.9"/><path class="cls-2" d="M13,14.42h2.93a1.15,1.15,0,0,1,1.16,1.15h0a1.16,1.16,0,0,1-1.16,1.16H13"/><path class="cls-2" d="M12.65,16.73h2a1.15,1.15,0,0,1,1.15,1.15h0A1.15,1.15,0,0,1,14.64,19h-2"/><path class="cls-2" d="M14.22,9.77H10.06A6,6,0,0,0,10.84,8a3.75,3.75,0,0,0-.31-3,4.3,4.3,0,0,0-.47-.48C8.37,3.3,8,5.23,8,5.23a5.83,5.83,0,0,1-3.5,5.12l0,7.53c1.21,1.21,5.32,1.26,6,1.23L12.87,19"/><line class="cls-2" x1="3.92" y1="5.52" x2="5.13" y2="5.52"/><line class="cls-2" x1="5.13" y1="2.18" x2="5.98" y2="3.03"/><line class="cls-2" x1="9.34" y1="1.95" x2="9.34" y2="0.75"/><line class="cls-2" x1="12.68" y1="3.03" x2="13.53" y2="2.18"/><line class="cls-2" x1="13.58" y1="5.52" x2="14.78" y2="5.52"/><line class="cls-2" x1="2.63" y1="11.81" x2="2.63" y2="11.81"/></g></g></g></svg>