<svg width="19" height="20" viewBox="0 0 19 20" fill="none" xmlns="http://www.w3.org/2000/svg">
<g clip-path="url(#clip0_2547_5040)">
<path d="M3.87001 9.79004H1.39001C1.04207 9.79004 0.76001 10.0721 0.76001 10.42V18.12C0.76001 18.468 1.04207 18.75 1.39001 18.75H3.87001C4.21795 18.75 4.50001 18.468 4.50001 18.12V10.42C4.50001 10.0721 4.21795 9.79004 3.87001 9.79004Z" stroke="#2F3645" stroke-width="1.52" stroke-miterlimit="10"/>
<path d="M13 9.79004H15.93C16.0866 9.78989 16.2417 9.82147 16.3858 9.88287C16.5299 9.94427 16.66 10.0342 16.7684 10.1473C16.8768 10.2603 16.9612 10.3942 17.0165 10.5408C17.0717 10.6873 17.0968 10.8436 17.09 11C17.0874 11.306 16.964 11.5984 16.7467 11.8138C16.5295 12.0292 16.2359 12.1501 15.93 12.15H13" stroke="#2F3645" stroke-width="1.5" stroke-linecap="round" stroke-linejoin="round"/>
<path d="M13.8999 12.0999H16.8299C16.9831 12.0986 17.135 12.1276 17.2769 12.1853C17.4188 12.243 17.5478 12.3282 17.6566 12.4361C17.7654 12.5439 17.8517 12.6723 17.9107 12.8137C17.9696 12.9551 17.9999 13.1067 17.9999 13.2599C17.9999 13.5675 17.8777 13.8626 17.6601 14.0801C17.4426 14.2977 17.1476 14.4199 16.8399 14.4199H13.8999" stroke="#2F3645" stroke-width="1.5" stroke-linecap="round" stroke-linejoin="round"/>
<path d="M13 14.42H15.93C16.0819 14.4186 16.2325 14.4474 16.3732 14.5046C16.5138 14.5618 16.6418 14.6463 16.7496 14.7532C16.8575 14.8602 16.9431 14.9874 17.0015 15.1276C17.0599 15.2677 17.09 15.4181 17.09 15.57C17.09 15.8776 16.9678 16.1727 16.7502 16.3902C16.5327 16.6078 16.2377 16.73 15.93 16.73H13" stroke="#2F3645" stroke-width="1.5" stroke-linecap="round" stroke-linejoin="round"/>
<path d="M12.6499 16.73H14.6499C14.9549 16.73 15.2474 16.8511 15.4631 17.0668C15.6787 17.2825 15.7999 17.575 15.7999 17.88C15.792 18.1815 15.666 18.4678 15.4491 18.6773C15.2321 18.8868 14.9415 19.0027 14.6399 19H12.6399" stroke="#2F3645" stroke-width="1.5" stroke-linecap="round" stroke-linejoin="round"/>
<path d="M14.22 9.77003H10.06C10.414 9.2261 10.6774 8.62833 10.84 8.00003C10.9988 7.50576 11.0533 6.9839 10.9999 6.46749C10.9465 5.95108 10.7865 5.45138 10.53 5.00003C10.3861 4.82802 10.2289 4.66753 10.06 4.52003C8.37 3.30003 8 5.23003 8 5.23003C7.95746 6.32631 7.60645 7.38834 6.98731 8.29405C6.36817 9.19976 5.50604 9.91239 4.5 10.35V17.88C5.71 19.09 9.82 19.14 10.5 19.11L12.87 19" stroke="#2F3645" stroke-width="1.5" stroke-linecap="round" stroke-linejoin="round"/>
<path d="M3.91992 5.52002H5.12992" stroke="#2F3645" stroke-width="1.5" stroke-linecap="round" stroke-linejoin="round"/>
<path d="M5.13013 2.17993L5.98013 3.02993" stroke="#2F3645" stroke-width="1.5" stroke-linecap="round" stroke-linejoin="round"/>
<path d="M9.34009 1.95V0.75" stroke="#2F3645" stroke-width="1.5" stroke-linecap="round" stroke-linejoin="round"/>
<path d="M12.6799 3.02993L13.5299 2.17993" stroke="#2F3645" stroke-width="1.5" stroke-linecap="round" stroke-linejoin="round"/>
<path d="M13.5801 5.52002H14.7801" stroke="#2F3645" stroke-width="1.5" stroke-linecap="round" stroke-linejoin="round"/>
<circle cx="2.63013" cy="11.8101" r="0.75" fill="#2F3645"/>
</g>
<defs>
<clipPath id="clip0_2547_5040">
<rect width="18.74" height="19.87" fill="white"/>
</clipPath>
</defs>
</svg>
