<svg width="24" height="24" viewBox="0 0 24 24" fill="none" xmlns="http://www.w3.org/2000/svg">
<path d="M6.87001 11.79H4.39001C4.04207 11.79 3.76001 12.0721 3.76001 12.42V20.12C3.76001 20.468 4.04207 20.75 4.39001 20.75H6.87001C7.21795 20.75 7.50001 20.468 7.50001 20.12V12.42C7.50001 12.0721 7.21795 11.79 6.87001 11.79Z" stroke="#2F3645" stroke-width="1.52" stroke-miterlimit="10"/>
<path d="M16 11.79H18.93C19.0866 11.7899 19.2417 11.8215 19.3858 11.8829C19.5299 11.9443 19.66 12.0342 19.7684 12.1473C19.8768 12.2603 19.9612 12.3942 20.0165 12.5408C20.0717 12.6873 20.0968 12.8436 20.09 13C20.0874 13.306 19.964 13.5984 19.7467 13.8138C19.5295 14.0292 19.2359 14.1501 18.93 14.15H16" stroke="#2F3645" stroke-width="1.5" stroke-linecap="round" stroke-linejoin="round"/>
<path d="M16.8999 14.0999H19.8299C19.9831 14.0986 20.135 14.1276 20.2769 14.1853C20.4188 14.243 20.5478 14.3282 20.6566 14.4361C20.7654 14.5439 20.8517 14.6723 20.9107 14.8137C20.9696 14.9551 20.9999 15.1067 20.9999 15.2599C20.9999 15.5675 20.8777 15.8626 20.6601 16.0801C20.4426 16.2977 20.1476 16.4199 19.8399 16.4199H16.8999" stroke="#2F3645" stroke-width="1.5" stroke-linecap="round" stroke-linejoin="round"/>
<path d="M16 16.42H18.93C19.0819 16.4186 19.2325 16.4474 19.3732 16.5046C19.5138 16.5618 19.6418 16.6463 19.7496 16.7532C19.8575 16.8602 19.9431 16.9874 20.0015 17.1276C20.0599 17.2677 20.09 17.4181 20.09 17.57C20.09 17.8776 19.9678 18.1727 19.7502 18.3902C19.5327 18.6078 19.2377 18.73 18.93 18.73H16" stroke="#2F3645" stroke-width="1.5" stroke-linecap="round" stroke-linejoin="round"/>
<path d="M15.6499 18.73H17.6499C17.9549 18.73 18.2474 18.8511 18.4631 19.0668C18.6787 19.2825 18.7999 19.575 18.7999 19.88C18.792 20.1815 18.666 20.4678 18.4491 20.6773C18.2321 20.8868 17.9415 21.0027 17.6399 21H15.6399" stroke="#2F3645" stroke-width="1.5" stroke-linecap="round" stroke-linejoin="round"/>
<path d="M17.22 11.77H13.06C13.414 11.2261 13.6774 10.6283 13.84 10C13.9988 9.50576 14.0533 8.9839 13.9999 8.46749C13.9465 7.95108 13.7865 7.45138 13.53 7.00003C13.3861 6.82802 13.2289 6.66753 13.06 6.52003C11.37 5.30003 11 7.23003 11 7.23003C10.9575 8.32631 10.6064 9.38834 9.98731 10.294C9.36817 11.1998 8.50604 11.9124 7.5 12.35V19.88C8.71 21.09 12.82 21.14 13.5 21.11L15.87 21" stroke="#2F3645" stroke-width="1.5" stroke-linecap="round" stroke-linejoin="round"/>
<path d="M6.91992 7.52002H8.12992" stroke="#2F3645" stroke-width="1.5" stroke-linecap="round" stroke-linejoin="round"/>
<path d="M8.13013 4.17993L8.98013 5.02993" stroke="#2F3645" stroke-width="1.5" stroke-linecap="round" stroke-linejoin="round"/>
<path d="M12.3401 3.95V2.75" stroke="#2F3645" stroke-width="1.5" stroke-linecap="round" stroke-linejoin="round"/>
<path d="M15.6799 5.02993L16.5299 4.17993" stroke="#2F3645" stroke-width="1.5" stroke-linecap="round" stroke-linejoin="round"/>
<path d="M16.5801 7.52002H17.7801" stroke="#2F3645" stroke-width="1.5" stroke-linecap="round" stroke-linejoin="round"/>
<circle cx="5.63013" cy="13.8101" r="0.75" fill="#2F3645"/>
</svg>
