<svg xmlns="http://www.w3.org/2000/svg" viewBox="0 0 20.01 19.97"><defs><style>.cls-1,.cls-2{fill:none;stroke:#2f3645;stroke-width:1.5px;}.cls-1{stroke-linecap:round;stroke-linejoin:round;}.cls-2{stroke-miterlimit:10;}</style></defs><g id="레이어_2" data-name="레이어 2"><g id="레이어_1-2" data-name="레이어 1"><g id="registration_finished_readring" data-name="registration/finished_readring"><path class="cls-1" d="M3.91,17.13v-4.7s3.33-1.85,3.16,0v3.4a.77.77,0,0,1-.72.75A5.62,5.62,0,0,0,4,17.16S3.91,17.16,3.91,17.13Z"/><path class="cls-1" d="M3.91,17.14v-4.7s-3.32-1.87-3.15,0v3.43a.77.77,0,0,0,.72.76,5,5,0,0,1,2.39.53S3.91,17.16,3.91,17.14Z"/><path class="cls-1" d="M4,19.22H16A3.18,3.18,0,0,0,19.21,16h0A3.19,3.19,0,0,0,16,12.85H12.86"/><path class="cls-1" d="M16.41,7.6H12.29a2.63,2.63,0,0,0-2.63,2.63h0a2.63,2.63,0,0,0,2.63,2.63h3"/><path class="cls-2" d="M19,4.14H15a.25.25,0,0,1-.21-.26V1A.25.25,0,0,1,15,.75h4c.12,0,.38-.05.21.26l-.69,1.43.69,1.44C19.29,4.07,19.11,4.14,19,4.14Z"/><line class="cls-1" x1="14.74" y1="6.98" x2="14.74" y2="0.9"/></g></g></g></svg>