<svg xmlns="http://www.w3.org/2000/svg" viewBox="0 0 16.24 16.19"><defs><style>.cls-1{fill:none;stroke:#2f3645;stroke-linecap:round;stroke-linejoin:round;stroke-width:1.5px;}</style></defs><g id="레이어_2" data-name="레이어 2"><g id="레이어_2-2" data-name="레이어 2"><g id="reading_note_write" data-name="reading_note/write"><path class="cls-1" d="M15.36,6.86V13.6a1.84,1.84,0,0,1-1.85,1.84H2.61A1.85,1.85,0,0,1,.75,13.6V2.76A1.85,1.85,0,0,1,2.61.92H9.35"/><path class="cls-1" d="M12.86,1h1.38a1,1,0,0,1,1,1V4.34a0,0,0,0,1,0,0H11.86a0,0,0,0,1,0,0V2.05a1,1,0,0,1,1-1Z" transform="translate(5.87 -8.79) rotate(45)"/><polyline class="cls-1" points="4.4 9.45 11.19 2.66 13.58 5.05 6.79 11.84"/><polyline class="cls-1" points="4.39 9.44 3.56 12.69 6.81 11.86"/></g></g></g></svg>