<svg xmlns="http://www.w3.org/2000/svg" viewBox="0 0 20.32 16.8"><defs><style>.cls-1{fill:none;}.cls-1,.cls-2{stroke:#2f3645;stroke-linecap:round;stroke-linejoin:round;stroke-width:1.5px;}.cls-2{fill:#fff;}.cls-3{fill:#2f3645;}</style></defs><g id="레이어_2" data-name="레이어 2"><g id="레이어_1-2" data-name="레이어 1"><g id="record_hide" data-name="record/hide"><path class="cls-1" d="M19.29,7.62V5.23a1.83,1.83,0,0,0-1.85-1.81H2.6A1.83,1.83,0,0,0,.75,5.23v8.19a1.83,1.83,0,0,0,1.85,1.8H10"/><path class="cls-2" d="M10.28,3.44V14.49A11.62,11.62,0,0,0,3.89,12.3V.83S6.24,0,10.28,3.44Z"/><path class="cls-2" d="M16.66,6.77V.83S14.32,0,10.28,3.44V15.22"/><path class="cls-3" d="M15.84,9.34a3,3,0,1,1-3,3,3,3,0,0,1,3-3m0-1.5a4.48,4.48,0,1,0,4.48,4.48,4.48,4.48,0,0,0-4.48-4.48Z"/><line class="cls-1" x1="14.3" y1="12.47" x2="17.37" y2="12.47"/></g></g></g></svg>