<svg width="24" height="24" viewBox="0 0 24 24" fill="none" xmlns="http://www.w3.org/2000/svg">
<path d="M21.29 11.62V9.23003C21.2874 8.98971 21.2375 8.75225 21.1431 8.53123C21.0487 8.3102 20.9117 8.10993 20.7399 7.94185C20.5681 7.77378 20.3649 7.64118 20.1418 7.55165C19.9188 7.46212 19.6803 7.41739 19.44 7.42003H4.6C4.35968 7.41739 4.12119 7.46212 3.89815 7.55165C3.67511 7.64118 3.4719 7.77378 3.30011 7.94185C3.12831 8.10993 2.99131 8.3102 2.89693 8.53123C2.80254 8.75225 2.75261 8.98971 2.75 9.23003V17.42C2.7579 17.9036 2.95693 18.3645 3.3036 18.7018C3.65026 19.039 4.11635 19.2254 4.6 19.22H12" stroke="#2F3645" stroke-width="1.5" stroke-linecap="round" stroke-linejoin="round"/>
<path d="M12.2799 7.44012V18.4901C10.4137 17.1435 8.18976 16.3813 5.88989 16.3001V4.83012C5.88989 4.83012 8.23989 4.00012 12.2799 7.44012Z" fill="white" stroke="#2F3645" stroke-width="1.5" stroke-linecap="round" stroke-linejoin="round"/>
<path d="M18.66 10.7701V4.83012C18.66 4.83012 16.32 4.00012 12.28 7.44012V19.2201" fill="white"/>
<path d="M18.66 10.7701V4.83012C18.66 4.83012 16.32 4.00012 12.28 7.44012V19.2201" stroke="#2F3645" stroke-width="1.5" stroke-linecap="round" stroke-linejoin="round"/>
<path d="M17.8401 13.3401C18.4335 13.3401 19.0135 13.516 19.5068 13.8457C20.0002 14.1753 20.3847 14.6439 20.6117 15.192C20.8388 15.7402 20.8982 16.3434 20.7825 16.9254C20.6667 17.5073 20.381 18.0419 19.9614 18.4614C19.5419 18.881 19.0073 19.1667 18.4254 19.2824C17.8434 19.3982 17.2402 19.3388 16.6921 19.1117C16.1439 18.8847 15.6753 18.5001 15.3457 18.0068C15.0161 17.5135 14.8401 16.9334 14.8401 16.3401C14.8401 15.5444 15.1562 14.7814 15.7188 14.2188C16.2814 13.6562 17.0445 13.3401 17.8401 13.3401ZM17.8401 11.8401C16.954 11.8401 16.0879 12.1028 15.3512 12.5951C14.6144 13.0874 14.0402 13.7871 13.7011 14.6057C13.362 15.4243 13.2733 16.3251 13.4462 17.1941C13.6191 18.0631 14.0457 18.8614 14.6723 19.4879C15.2988 20.1145 16.0971 20.5411 16.9661 20.714C17.8351 20.8869 18.7359 20.7981 19.5545 20.4591C20.3731 20.12 21.0728 19.5458 21.5651 18.809C22.0574 18.0723 22.3201 17.2061 22.3201 16.3201C22.3201 15.1319 21.8481 13.9924 21.0079 13.1522C20.1678 12.3121 19.0283 11.8401 17.8401 11.8401Z" fill="#2F3645"/>
<path d="M16.3 16.4702H19.37" stroke="#2F3645" stroke-width="1.5" stroke-linecap="round" stroke-linejoin="round"/>
</svg>
