<svg width="24" height="24" viewBox="0 0 24 24" fill="none" xmlns="http://www.w3.org/2000/svg">
<path d="M19.36 10.8602V17.6002C19.36 17.8427 19.3121 18.0828 19.219 18.3066C19.1259 18.5305 18.9895 18.7338 18.8175 18.9048C18.6456 19.0758 18.4416 19.2111 18.2172 19.303C17.9928 19.3949 17.7525 19.4415 17.51 19.4402H6.61C6.36705 19.4415 6.12623 19.395 5.90127 19.3032C5.67631 19.2114 5.47163 19.0763 5.29892 18.9054C5.1262 18.7346 4.98883 18.5314 4.89464 18.3074C4.80046 18.0834 4.75131 17.8431 4.75 17.6002V6.76019C4.75131 6.51725 4.80046 6.27694 4.89464 6.05299C4.98883 5.82903 5.1262 5.62583 5.29892 5.45497C5.47163 5.28411 5.67631 5.14894 5.90127 5.05718C6.12623 4.96543 6.36705 4.91888 6.61 4.92019H13.35" stroke="#2F3645" stroke-width="1.5" stroke-linecap="round" stroke-linejoin="round"/>
<path d="M18.2562 5.01057L19.232 5.98638C19.4195 6.17392 19.5249 6.42827 19.5249 6.69349C19.5249 6.9587 19.4195 7.21306 19.232 7.40059L17.5774 9.05522L15.1873 6.6652L16.8066 5.04593C16.9941 4.85839 17.2485 4.75304 17.5137 4.75304C17.7789 4.75304 18.0333 4.85839 18.2208 5.04593L18.2562 5.01057Z" stroke="#2F3645" stroke-width="1.5" stroke-linecap="round" stroke-linejoin="round"/>
<path d="M8.3999 13.4502L15.1899 6.66016L17.5799 9.05016L10.7899 15.8402" stroke="#2F3645" stroke-width="1.5" stroke-linecap="round" stroke-linejoin="round"/>
<path d="M8.39006 13.4402L7.56006 16.6902L10.8101 15.8602" stroke="#2F3645" stroke-width="1.5" stroke-linecap="round" stroke-linejoin="round"/>
</svg>
