<svg width="24" height="24" viewBox="0 0 24 24" fill="none" xmlns="http://www.w3.org/2000/svg">
<path d="M18.4349 16.58L20.7499 14.27C21.1253 13.867 21.3265 13.332 21.3096 12.7815C21.2928 12.2309 21.0593 11.7093 20.6599 11.33L12.7499 3.4C12.4984 3.15435 12.194 2.96961 11.8599 2.86C11.7088 2.79187 11.5456 2.75448 11.3799 2.75H11.2299L5.66991 2.84C5.4047 2.84 5.15034 2.94536 4.96281 3.13289C4.77527 3.32043 4.66991 3.57478 4.66991 3.84L4.65991 5.22" stroke="#303030" stroke-width="1.5" stroke-miterlimit="10"/>
<path d="M10.0001 4.94005C9.85476 4.86556 9.69339 4.82779 9.5301 4.83005H9.3601L3.8201 5.00005C3.57206 5.01217 3.3374 5.11615 3.1618 5.29175C2.9862 5.46735 2.88222 5.70201 2.8701 5.95005L2.7501 11.4401V11.5901C2.74783 11.7534 2.7856 11.9147 2.8601 12.0601C2.96196 12.3953 3.14386 12.7008 3.3901 12.9501L11.2201 20.7801C11.6004 21.1761 12.1218 21.4056 12.6707 21.4188C13.2195 21.4319 13.7513 21.2274 14.1501 20.8501L18.7701 16.2301C19.1475 15.8313 19.3519 15.2995 19.3388 14.7506C19.3257 14.2018 19.0961 13.6803 18.7001 13.3001L10.8701 5.47005C10.6265 5.22655 10.3282 5.04483 10.0001 4.94005Z" stroke="#303030" stroke-width="1.5" stroke-miterlimit="10"/>
<path d="M6.80998 10.36C7.54452 10.36 8.13998 9.76449 8.13998 9.02995C8.13998 8.29541 7.54452 7.69995 6.80998 7.69995C6.07544 7.69995 5.47998 8.29541 5.47998 9.02995C5.47998 9.76449 6.07544 10.36 6.80998 10.36Z" stroke="#303030" stroke-width="1.5" stroke-miterlimit="10"/>
</svg>
