<svg id="레이어_1" data-name="레이어 1" xmlns="http://www.w3.org/2000/svg" viewBox="0 0 119.99 72"><defs><style>.cls-1,.cls-11,.cls-3,.cls-6,.cls-7,.cls-9{fill:none;}.cls-1,.cls-10,.cls-11,.cls-3{stroke:#2f3645;}.cls-1,.cls-3,.cls-6,.cls-7,.cls-9{stroke-linecap:round;stroke-linejoin:round;}.cls-1,.cls-11,.cls-7,.cls-9{stroke-width:1.5px;}.cls-10,.cls-2{fill:#2f3645;}.cls-3{stroke-width:2px;}.cls-4{fill:#eeedeb;}.cls-5{fill:#e6b9a6;}.cls-6,.cls-7{stroke:#fff;}.cls-6{stroke-width:2.5px;}.cls-8{fill:red;}.cls-9{stroke:red;}.cls-10,.cls-11{stroke-miterlimit:10;}.cls-10{stroke-width:1.17px;}</style></defs><path id="common_back" data-name="common/back" class="cls-1" d="M2.89,12.21H21.3M2.77,12.1,9.21,5.87m0,12.55L2.81,12.21"/><path id="common_next" data-name="common/next" class="cls-1" d="M30.25,12.18,39.52,2.9m0,18.53-9.25-9.26"/><g id="common_warning" data-name="common/warning"><path class="cls-2" d="M60,3.87a8.32,8.32,0,1,1-8.32,8.32A8.32,8.32,0,0,1,60,3.87m0-1.66a10,10,0,1,0,10,10,10,10,0,0,0-10-10Z"/><line class="cls-3" x1="60.04" y1="8.34" x2="60.04" y2="12.73"/><line class="cls-3" x1="60.04" y1="15.94" x2="60.04" y2="15.94"/></g><g id="common_confirm" data-name="common/confirm"><path class="cls-2" d="M84,3.88a8.33,8.33,0,1,1-8.33,8.33A8.33,8.33,0,0,1,84,3.88m0-1.66a10,10,0,1,0,10,10,10,10,0,0,0-10-10Z"/><line class="cls-1" x1="80.05" y1="13.08" x2="82.56" y2="15.59"/><line class="cls-1" x1="88.69" y1="9.46" x2="82.6" y2="15.54"/></g><circle id="common_dact_check" data-name="common/dact_check" class="cls-4" cx="36.05" cy="59.96" r="10"/><g id="common_act_check" data-name="common/act_check"><circle class="cls-5" cx="12.01" cy="59.96" r="10"/><line class="cls-6" x1="7.66" y1="61.14" x2="10.25" y2="63.73"/><line class="cls-6" x1="17.09" y1="56.9" x2="10.3" y2="63.69"/></g><g id="common_act_plus" data-name="common/act_plus"><circle class="cls-5" cx="59.99" cy="60" r="10"/><line class="cls-7" x1="59.99" y1="54.02" x2="59.99" y2="66"/><line class="cls-7" x1="54" y1="60.01" x2="65.98" y2="60.01"/></g><g id="common_dact_plus" data-name="common/dact_plus"><circle class="cls-4" cx="84.04" cy="60" r="10"/><line class="cls-7" x1="84.02" y1="54.02" x2="84.02" y2="66"/><line class="cls-7" x1="78.03" y1="60.01" x2="90" y2="60.01"/></g><g id="common_circle_delete" data-name="common/circle_delete"><path class="cls-8" d="M108,27.47A8.51,8.51,0,1,1,99.5,36a8.51,8.51,0,0,1,8.5-8.5m0-1.5a10,10,0,1,0,10,10,10,10,0,0,0-10-10Z"/><line class="cls-9" x1="102.01" y1="35.98" x2="113.99" y2="35.98"/></g><g id="검색"><path class="cls-2" d="M106.23,3.78a6.58,6.58,0,1,1-6.58,6.58,6.59,6.59,0,0,1,6.58-6.58m0-1.54a8.12,8.12,0,1,0,8.12,8.12,8.12,8.12,0,0,0-8.12-8.12Z"/><line class="cls-1" x1="111.61" y1="15.73" x2="117.09" y2="21.21"/></g><g id="common_setting" data-name="common/setting"><circle class="cls-10" cx="11.93" cy="27.77" r="1.21"/><circle class="cls-10" cx="11.93" cy="35.91" r="1.21"/><circle class="cls-10" cx="11.93" cy="44.05" r="1.21"/></g><g id="common_canccel_big" data-name="common/canccel_big"><line class="cls-1" x1="28.72" y1="28.78" x2="43.2" y2="43.25"/><line class="cls-1" x1="43.2" y1="28.78" x2="28.72" y2="43.25"/></g><g id="common_plus" data-name="common/plus"><line class="cls-1" x1="74.74" y1="36.01" x2="93.24" y2="36.01"/><line class="cls-1" x1="84.01" y1="26.79" x2="84.01" y2="45.24"/></g><g id="common_cancel_small" data-name="common/cancel_small"><line class="cls-1" x1="54.56" y1="30.48" x2="65.41" y2="41.34"/><line class="cls-1" x1="65.41" y1="30.48" x2="54.56" y2="41.34"/></g><g id="login_consultation" data-name="login/consultation"><path class="cls-1" d="M101.59,63.88v-6A6.38,6.38,0,0,1,108,51.49H108a6.37,6.37,0,0,1,6.37,6.37v6.49a2.33,2.33,0,0,1-2.33,2.34h-2"/><path class="cls-11" d="M114.4,57.53h1.81a1,1,0,0,1,1,1v4.35a1,1,0,0,1-1,1H114.4a0,0,0,0,1,0,0V57.53A0,0,0,0,1,114.4,57.53Z"/><path class="cls-11" d="M98.88,57.53h1.71a1,1,0,0,1,1,1v4.35a1,1,0,0,1-1,1H98.78a0,0,0,0,1,0,0V57.62a.1.1,0,0,1,.1-.1Z" transform="translate(200.38 121.4) rotate(-180)"/><circle class="cls-11" cx="108.21" cy="66.69" r="1.82"/></g></svg>