<svg id="레이어_1" data-name="레이어 1" xmlns="http://www.w3.org/2000/svg" viewBox="0 0 72.02 24"><defs><style>.cls-1{fill:none;stroke:#2f3645;stroke-linecap:round;stroke-linejoin:round;stroke-width:1.5px;}</style></defs><g id="library_cover" data-name="library/cover"><rect class="cls-1" x="28.77" y="4.76" width="5.78" height="5.78" rx="1"/><rect class="cls-1" x="28.77" y="13.63" width="5.78" height="5.78" rx="1"/><rect class="cls-1" x="37.6" y="4.76" width="5.78" height="5.78" rx="1" transform="translate(6.45 30.87) rotate(-45)"/><rect class="cls-1" x="37.6" y="13.63" width="5.78" height="5.78" rx="1"/></g><g id="library_sort" data-name="library/sort"><g id="되돌리기"><line class="cls-1" x1="65.58" y1="19.17" x2="65.58" y2="8.22"/><line class="cls-1" x1="65.52" y1="19.24" x2="61.81" y2="15.41"/><line class="cls-1" x1="69.28" y1="15.39" x2="65.58" y2="19.22"/></g><line class="cls-1" x1="50.83" y1="4.76" x2="67.31" y2="4.76"/><line class="cls-1" x1="50.79" y1="12" x2="61.3" y2="12"/><line class="cls-1" x1="50.79" y1="19.24" x2="57.29" y2="19.24"/></g><g id="library_list" data-name="library/list"><rect class="cls-1" x="2.77" y="4.76" width="5.78" height="5.78" rx="1"/><rect class="cls-1" x="2.77" y="13.63" width="5.78" height="5.78" rx="1"/><line class="cls-1" x1="12.15" y1="5.55" x2="21.39" y2="5.55"/><line class="cls-1" x1="12.15" y1="9.35" x2="17.5" y2="9.35"/><line class="cls-1" x1="12.15" y1="14.61" x2="21.39" y2="14.61"/><line class="cls-1" x1="12.15" y1="18.41" x2="17.5" y2="18.41"/></g></svg>