<svg id="레이어_1" data-name="레이어 1" xmlns="http://www.w3.org/2000/svg" viewBox="0 0 72.02 24"><defs><style>.cls-1,.cls-2,.cls-3{fill:none;stroke:#2f3645;}.cls-1{stroke-linecap:round;stroke-linejoin:round;}.cls-1,.cls-2{stroke-width:1.5px;}.cls-2,.cls-3{stroke-miterlimit:10;}.cls-3{stroke-width:1.51px;}</style></defs><g id="my_page_notes" data-name="my_page/notes"><line class="cls-1" x1="33.23" y1="21.26" x2="33.23" y2="2.91"/><line class="cls-1" x1="36.05" y1="6.08" x2="41.92" y2="6.08"/><line class="cls-1" x1="36.05" y1="10.41" x2="41.92" y2="10.41"/><line class="cls-1" x1="26.96" y1="6.08" x2="29.93" y2="6.08"/><line class="cls-1" x1="26.96" y1="10.41" x2="29.93" y2="10.41"/><line class="cls-1" x1="26.96" y1="14.75" x2="29.93" y2="14.75"/><rect class="cls-1" x="28.54" y="2.71" width="16.53" height="18.57" rx="2"/></g><g id="my_page_month" data-name="my_page/month"><path class="cls-1" d="M66.18,11.83v3.86a3.65,3.65,0,0,1-3.58,3.72H57.39a3.65,3.65,0,0,1-3.59-3.72v-4"/><path class="cls-2" d="M59.56,4.69,51.5,8.29a1.12,1.12,0,0,0,0,2.05l8.06,3.6a1.11,1.11,0,0,0,.91,0l8.06-3.6a1.12,1.12,0,0,0,0-2.05l-8.06-3.6A1.11,1.11,0,0,0,59.56,4.69Z"/><line class="cls-1" x1="60.69" y1="9.31" x2="67.75" y2="10.57"/><line class="cls-1" x1="68.26" y1="18.13" x2="68.26" y2="10.77"/></g><g id="my_page_books" data-name="my_page/books"><path class="cls-2" d="M12,19.38V6.87s8.84-4.91,8.4,0v9a2,2,0,0,1-1.92,2s-4,.09-6.32,1.56A.11.11,0,0,1,12,19.38Z"/><path class="cls-3" d="M12,19.4V6.9s-8.84-5-8.4,0V16a2.06,2.06,0,0,0,1.91,2s4.09-.11,6.38,1.4A.07.07,0,0,0,12,19.4Z"/></g></svg>