<svg id="레이어_1" data-name="레이어 1" xmlns="http://www.w3.org/2000/svg" viewBox="0 0 96.01 24"><defs><style>.cls-1{fill:#2f3645;}.cls-2,.cls-3{fill:none;}.cls-2,.cls-3,.cls-4{stroke:#2f3645;}.cls-2{stroke-miterlimit:10;stroke-width:1.55px;}.cls-3,.cls-4{stroke-linecap:round;stroke-linejoin:round;stroke-width:1.5px;}.cls-4{fill:#fff;}</style></defs><g id="navigation_my_page" data-name="navigation/my_page"><path class="cls-1" d="M60,5.59a2.26,2.26,0,1,1-2.26,2.26A2.26,2.26,0,0,1,60,5.59M60,4a3.81,3.81,0,1,0,3.8,3.81A3.81,3.81,0,0,0,60,4Z"/><path class="cls-2" d="M56.79,13.75h6.84a3.61,3.61,0,0,1,3.61,3.61v.57A1.27,1.27,0,0,1,66,19.21H54.08a1.27,1.27,0,0,1-1.27-1.27v-.21A4,4,0,0,1,56.79,13.75Z"/></g><g id="navigation_book_search" data-name="navigation/book_search"><path class="cls-3" d="M21.25,13.18v-4A1.83,1.83,0,0,0,19.4,7.41H4.56A1.83,1.83,0,0,0,2.71,9.22v8.19a1.83,1.83,0,0,0,1.85,1.8H15"/><path class="cls-4" d="M12.23,7.43V18.48a11.61,11.61,0,0,0-6.38-2.19V4.82S8.19,4,12.23,7.43Z"/><path class="cls-4" d="M18.62,11.5V4.82S16.28,4,12.23,7.43V18.48s.08-.45,1.44-1"/><path class="cls-1" d="M17.58,14.16a1.48,1.48,0,1,1-1.48,1.48,1.48,1.48,0,0,1,1.48-1.48m0-1.5a3,3,0,1,0,3,3,3,3,0,0,0-3-3Z"/><line class="cls-3" x1="19.69" y1="17.74" x2="21.25" y2="19.3"/></g><g id="navigation_library" data-name="navigation/library"><rect class="cls-3" x="76.72" y="3.7" width="3.49" height="16.6" rx="1"/><rect class="cls-3" x="80.21" y="3.7" width="3.49" height="16.6" rx="1"/><rect class="cls-3" x="86" y="3.7" width="3.49" height="16.6" rx="1" transform="translate(-0.15 22.81) rotate(-14.8)"/><line class="cls-3" x1="76.72" y1="6.52" x2="83.69" y2="6.52"/><line class="cls-3" x1="76.72" y1="14.18" x2="83.69" y2="14.18"/><line class="cls-3" x1="76.72" y1="16.51" x2="83.69" y2="16.51"/><line class="cls-3" x1="85.19" y1="7.04" x2="87.75" y2="6.36"/><line class="cls-3" x1="87.15" y1="14.45" x2="89.71" y2="13.77"/><line class="cls-3" x1="87.74" y1="16.7" x2="90.3" y2="16.02"/></g><path id="navigation_home" class="cls-3" d="M44.17,10.11,37,5.07a1.5,1.5,0,0,0-1.72,0l-7.2,5a1.49,1.49,0,0,0,.86,2.72h1.41V18.2a1,1,0,0,0,1,1h2.4V14.94a2.29,2.29,0,1,1,4.57,0V19.2h2.61a1,1,0,0,0,1-1V12.83h1.4A1.49,1.49,0,0,0,44.17,10.11Z"/></svg>