<svg xmlns="http://www.w3.org/2000/svg" viewBox="0 0 72.02 48"><defs><style>.cls-1,.cls-2,.cls-4,.cls-5{fill:none;}.cls-1,.cls-2,.cls-3,.cls-4,.cls-5{stroke:#2f3645;}.cls-1,.cls-4,.cls-5{stroke-linecap:round;stroke-linejoin:round;}.cls-1,.cls-2,.cls-3{stroke-width:1.5px;}.cls-2,.cls-3{stroke-miterlimit:10;}.cls-3{fill:#fff;}.cls-4{stroke-width:1.41px;}.cls-5{stroke-width:1.56px;}</style></defs><g id="레이어_1" data-name="레이어 1"><g id="reading_note_page_input" data-name="reading_note/page_input"><line class="cls-1" x1="8.01" y1="34.13" x2="15.87" y2="34.13"/><line class="cls-1" x1="11.94" y1="30.2" x2="11.94" y2="38.06"/><path class="cls-2" d="M17.67,45l-5.29-2.57a1,1,0,0,0-.87,0L6.21,45A1,1,0,0,1,4.72,44V28.82a2.09,2.09,0,0,1,2.08-2.1H17.09a2.09,2.09,0,0,1,2.08,2.1V44A1,1,0,0,1,17.67,45Z"/></g><g id="reading_note_tags" data-name="reading_note/tags"><path class="cls-2" d="M35.83,26.68a1.16,1.16,0,0,0-.47-.11h-.15l-5.56.09a1,1,0,0,0-1,.95l-.09,5.57v.15a1.2,1.2,0,0,0,.11.47,2.26,2.26,0,0,0,.54.9l7.91,7.91a2.08,2.08,0,0,0,2.94.08l4.62-4.62a2.08,2.08,0,0,0-.08-2.94l-7.91-7.91A2.26,2.26,0,0,0,35.83,26.68Z"/><path class="cls-3" d="M34,28.76a1.08,1.08,0,0,0-.47-.11h-.15l-5.54.12a1,1,0,0,0-1,.95l-.11,5.54v.15a.93.93,0,0,0,.11.47,2.16,2.16,0,0,0,.53.89L35.2,44.6a2.07,2.07,0,0,0,2.92.07l4.63-4.62a2.08,2.08,0,0,0-.08-2.93l-7.83-7.83A2.12,2.12,0,0,0,34,28.76Z"/><circle class="cls-2" cx="30.79" cy="32.85" r="1.33"/></g><g id="reading_note_ocr" data-name="reading_note/ocr"><path class="cls-1" d="M63.06,26.72h4.21a2,2,0,0,1,2,2V33"/><path class="cls-1" d="M57,45.26H52.77a2,2,0,0,1-2-2V38.85"/><path class="cls-1" d="M57,26.72H52.76a2,2,0,0,0-2,2V33"/><path class="cls-1" d="M63,45.26h4.26a2,2,0,0,0,2-2V38.85"/><line class="cls-1" x1="55.46" y1="31.54" x2="64.55" y2="31.54"/><line class="cls-1" x1="60" y1="42.06" x2="60" y2="31.75"/></g><g id="reading_note_single_page" data-name="reading_note/single_page"><path class="cls-4" d="M43.3,7.52V19.28a2,2,0,0,1-2,2H30.72a2,2,0,0,1-2-2V4.62a2,2,0,0,1,2-2h7.7"/><path class="cls-1" d="M42.31,8.26H38.56a.92.92,0,0,1-.92-.92V3.59a.92.92,0,0,1,1.57-.65L43,6.69A.92.92,0,0,1,42.31,8.26Z"/></g><g id="reading_note_multiple_pages" data-name="reading_note/multiple_pages"><path class="cls-5" d="M65.35,19.54v.27a1.79,1.79,0,0,1-1.82,1.76H53.86A1.8,1.8,0,0,1,52,19.81V6.87A1.8,1.8,0,0,1,53.86,5.1h.58"/><path class="cls-1" d="M67,7.57H63.7a.81.81,0,0,1-.81-.81V3.45a.82.82,0,0,1,1.39-.58l3.3,3.31A.81.81,0,0,1,67,7.57Z"/><path class="cls-1" d="M67.88,6.91V17.3a1.76,1.76,0,0,1-1.77,1.76H56.78A1.76,1.76,0,0,1,55,17.3V4.35a1.76,1.76,0,0,1,1.77-1.76h6.8"/></g></g><g id="레이어_2" data-name="레이어 2"><g id="reading_note_write" data-name="reading_note/write"><path class="cls-1" d="M19.25,10.72v6.73a1.84,1.84,0,0,1-1.85,1.84H6.5a1.85,1.85,0,0,1-1.86-1.84V6.61A1.85,1.85,0,0,1,6.5,4.77h6.74"/><path class="cls-1" d="M16.75,4.9h1.38a1,1,0,0,1,1,1V8.19a0,0,0,0,1,0,0H15.74a0,0,0,0,1,0,0V5.9A1,1,0,0,1,16.75,4.9Z" transform="translate(9.73 -10.41) rotate(45)"/><polyline class="cls-1" points="8.29 13.3 15.08 6.51 17.47 8.9 10.68 15.69"/><polyline class="cls-1" points="8.28 13.29 7.45 16.54 10.7 15.71"/></g></g></svg>