<svg xmlns="http://www.w3.org/2000/svg" viewBox="0 0 120.11 48"><defs><style>.cls-1,.cls-3,.cls-4,.cls-6,.cls-7,.cls-8{fill:none;}.cls-1,.cls-3,.cls-4,.cls-5,.cls-6,.cls-7,.cls-8{stroke:#2f3645;}.cls-1,.cls-4,.cls-5,.cls-7,.cls-8{stroke-linecap:round;stroke-linejoin:round;}.cls-1,.cls-3,.cls-5{stroke-width:1.5px;}.cls-2{fill:#2f3645;}.cls-3,.cls-6{stroke-miterlimit:10;}.cls-4{stroke-width:2px;}.cls-5{fill:#fff;}.cls-6{stroke-width:1.52px;}.cls-7{stroke-width:1.52px;}.cls-8{stroke-width:1.5px;}</style></defs><g id="레이어_1" data-name="레이어 1"><g id="record_select_date" data-name="record/select_date"><path class="cls-1" d="M60.05,45.13H52.79a2,2,0,0,1-2-2V30.54a2,2,0,0,1,2-2H67.32a2,2,0,0,1,2,2v6.55"/><line class="cls-1" x1="50.78" y1="33.43" x2="69.13" y2="33.43"/><line class="cls-1" x1="54.88" y1="26.87" x2="54.88" y2="30.19"/><line class="cls-1" x1="65.37" y1="26.87" x2="65.37" y2="30.19"/><line class="cls-1" x1="62.31" y1="42.93" x2="64.51" y2="45.13"/><line class="cls-1" x1="69.33" y1="40.31" x2="64.55" y2="45.08"/></g><g id="record_reading" data-name="record/reading"><path class="cls-2" d="M36.09,27.64a4.79,4.79,0,1,1-4.78,4.78,4.78,4.78,0,0,1,4.78-4.78m0-1.62a6.41,6.41,0,1,0,6.41,6.4A6.41,6.41,0,0,0,36.09,26Z"/><line class="cls-1" x1="29.07" y1="42.97" x2="35.57" y2="42.97"/><line class="cls-1" x1="36.09" y1="29.65" x2="36.09" y2="32.95"/><line class="cls-1" x1="38.22" y1="33.87" x2="36.21" y2="33.02"/><path class="cls-2" d="M43,41.46a1.51,1.51,0,0,1,0,3H29a1.51,1.51,0,0,1,0-3H43M43,40H29a3,3,0,0,0-3,3h0a3,3,0,0,0,3,3H43a3,3,0,0,0,3-3h0a3,3,0,0,0-3-3Z"/></g><g id="record_finished_reading" data-name="record/finished_reading"><path class="cls-1" d="M5.92,43.14v-4.7s3.32-1.84,3.16,0v3.4a.77.77,0,0,1-.72.75A5.51,5.51,0,0,0,6,43.18,0,0,0,0,1,5.92,43.14Z"/><path class="cls-1" d="M5.92,43.15v-4.7s-3.33-1.86-3.16,0v3.44a.77.77,0,0,0,.72.76,5,5,0,0,1,2.4.52S5.92,43.17,5.92,43.15Z"/><path class="cls-1" d="M6,45.24H18a3.19,3.19,0,0,0,3.19-3.19h0A3.19,3.19,0,0,0,18,38.86H14.87"/><path class="cls-1" d="M18.41,33.62H14.3a2.62,2.62,0,0,0-2.63,2.62h0a2.63,2.63,0,0,0,2.63,2.63h3"/><path class="cls-3" d="M21,30.15H17a.25.25,0,0,1-.22-.26V27a.24.24,0,0,1,.22-.26h4c.12,0,.39-.05.22.26l-.7,1.43.7,1.43C21.29,30.09,21.11,30.15,21,30.15Z"/><line class="cls-1" x1="16.74" y1="33" x2="16.74" y2="26.91"/></g><g id="record_info" data-name="record/info"><path class="cls-2" d="M12,3.69A8.31,8.31,0,1,1,3.69,12,8.32,8.32,0,0,1,12,3.69M12,2A10,10,0,1,0,22,12,10,10,0,0,0,12,2Z"/><line class="cls-4" x1="11.98" y1="15.85" x2="11.98" y2="11.45"/><line class="cls-4" x1="11.98" y1="8.24" x2="11.98" y2="8.24"/></g><g id="record_hide" data-name="record/hide"><path class="cls-1" d="M93.34,11.68V9.29a1.83,1.83,0,0,0-1.85-1.8H76.65a1.83,1.83,0,0,0-1.85,1.8v8.19a1.83,1.83,0,0,0,1.85,1.81h7.42"/><path class="cls-5" d="M84.33,7.5V18.55a11.71,11.71,0,0,0-6.39-2.19V4.89S80.29,4.09,84.33,7.5Z"/><path class="cls-5" d="M90.71,10.84V4.89s-2.34-.8-6.38,2.61V19.29"/><path class="cls-2" d="M89.89,13.4a3,3,0,1,1-3,3,3,3,0,0,1,3-3m0-1.5a4.48,4.48,0,1,0,4.48,4.48,4.48,4.48,0,0,0-4.48-4.48Z"/><line class="cls-1" x1="88.35" y1="16.54" x2="91.42" y2="16.54"/></g><g id="record_period" data-name="record/period"><path class="cls-1" d="M35.25,21.2H28.7a2,2,0,0,1-2-2V6.61a2,2,0,0,1,2-2H43.24a2,2,0,0,1,2,2v4.78"/><line class="cls-1" x1="26.7" y1="9.5" x2="45.05" y2="9.5"/><line class="cls-1" x1="30.79" y1="2.94" x2="30.79" y2="6.26"/><line class="cls-1" x1="41.28" y1="2.94" x2="41.28" y2="6.26"/><path class="cls-2" d="M40.84,13.33a3.61,3.61,0,1,1-3.6,3.61,3.61,3.61,0,0,1,3.6-3.61m0-1.5a5.11,5.11,0,1,0,5.1,5.11,5.1,5.1,0,0,0-5.1-5.11Z"/><line class="cls-1" x1="40.84" y1="14.72" x2="40.84" y2="17.35"/><line class="cls-1" x1="42.53" y1="18.09" x2="40.93" y2="17.41"/></g></g><g id="레이어_2" data-name="레이어 2"><g id="record_rating" data-name="record/rating"><rect class="cls-6" x="51.4" y="11.9" width="3.74" height="8.96" rx="0.63"/><path class="cls-1" d="M63.64,11.9h2.93a1.16,1.16,0,0,1,1.16,1.16h0a1.16,1.16,0,0,1-1.16,1.16H63.64"/><path class="cls-1" d="M64.54,14.22h2.93a1.15,1.15,0,0,1,1.16,1.15h0a1.16,1.16,0,0,1-1.16,1.16H64.54"/><path class="cls-1" d="M63.64,16.53h2.93a1.16,1.16,0,0,1,1.16,1.16h0a1.16,1.16,0,0,1-1.16,1.15H63.64"/><path class="cls-1" d="M63.3,18.84h2A1.16,1.16,0,0,1,66.44,20h0a1.15,1.15,0,0,1-1.16,1.15h-2"/><path class="cls-1" d="M64.87,11.88H60.7a5.69,5.69,0,0,0,.78-1.74,3.72,3.72,0,0,0-.31-3,3.16,3.16,0,0,0-.47-.49c-1.68-1.24-2,.68-2,.68a5.83,5.83,0,0,1-3.5,5.13l0,7.53c1.2,1.2,5.31,1.25,6,1.23l2.39-.07"/><line class="cls-1" x1="54.57" y1="7.63" x2="55.77" y2="7.63"/><line class="cls-1" x1="55.77" y1="4.3" x2="56.62" y2="5.15"/><line class="cls-1" x1="59.99" y1="4.07" x2="59.99" y2="2.86"/><line class="cls-1" x1="63.33" y1="5.15" x2="64.18" y2="4.3"/><line class="cls-1" x1="64.23" y1="7.63" x2="65.43" y2="7.63"/><line class="cls-1" x1="53.27" y1="13.92" x2="53.27" y2="13.92"/></g><g id="record_category" data-name="record/category"><path class="cls-2" d="M105.34,14.05a.51.51,0,0,1,.5.5V20a.5.5,0,0,1-.5.5H99.86a.5.5,0,0,1-.5-.5V14.55a.5.5,0,0,1,.5-.5h5.48m0-1.5H99.86a2,2,0,0,0-2,2V20a2,2,0,0,0,2,2h5.48a2,2,0,0,0,2-2V14.55a2,2,0,0,0-2-2Z"/><path class="cls-2" d="M113.11,14.05a3.24,3.24,0,1,1-3.24,3.24,3.25,3.25,0,0,1,3.24-3.24m0-1.5a4.74,4.74,0,1,0,4.74,4.74,4.74,4.74,0,0,0-4.74-4.74Z"/><path class="cls-2" d="M108.09,3.47a.5.5,0,0,1,.42.22l3.73,5.45a.51.51,0,0,1-.42.8h-7.46a.51.51,0,0,1-.42-.8l3.73-5.45a.5.5,0,0,1,.42-.22m0-1.5a2,2,0,0,0-1.66.87L102.71,8.3a2,2,0,0,0,1.65,3.14h7.46a2,2,0,0,0,1.65-3.14l-3.72-5.46A2,2,0,0,0,108.09,2Z"/></g><g id="record_edit" data-name="record/edit"><path class="cls-1" d="M89.16,27.3h2.63a1,1,0,0,1,1,1v3.5a0,0,0,0,1,0,0H88.16a0,0,0,0,1,0,0V28.3A1,1,0,0,1,89.16,27.3Z" transform="translate(47.39 -55.32) rotate(45)"/><rect class="cls-7" x="81.92" y="29.21" width="4.63" height="13.15" transform="translate(49.98 -49.08) rotate(45)"/><polygon class="cls-8" points="76.8 43.24 81.25 42.1 77.94 38.79 76.8 43.24"/></g></g></svg>