<svg id="레이어_1" data-name="레이어 1" xmlns="http://www.w3.org/2000/svg" viewBox="0 0 96.01 24"><defs><style>.cls-1,.cls-3{fill:none;stroke:#2f3645;stroke-width:1.5px;}.cls-1{stroke-linecap:round;stroke-linejoin:round;}.cls-2{fill:#2f3645;}.cls-3{stroke-miterlimit:10;}</style></defs><g id="registration_select_date" data-name="registration/select_date"><path class="cls-1" d="M84,21.13H76.74a2,2,0,0,1-2-2V6.54a2,2,0,0,1,2-2H91.28a2,2,0,0,1,2,2v6.55"/><line class="cls-1" x1="74.74" y1="9.43" x2="93.09" y2="9.43"/><line class="cls-1" x1="78.83" y1="2.87" x2="78.83" y2="6.19"/><line class="cls-1" x1="89.32" y1="2.87" x2="89.32" y2="6.19"/><line class="cls-1" x1="86.26" y1="18.93" x2="88.46" y2="21.13"/><line class="cls-1" x1="93.28" y1="16.31" x2="88.51" y2="21.08"/></g><g id="registration_reading" data-name="registration/reading"><path class="cls-2" d="M36.09,3.64a4.79,4.79,0,1,1-4.78,4.78,4.78,4.78,0,0,1,4.78-4.78m0-1.62a6.41,6.41,0,1,0,6.41,6.4A6.41,6.41,0,0,0,36.09,2Z"/><line class="cls-1" x1="29.07" y1="18.97" x2="35.57" y2="18.97"/><line class="cls-1" x1="36.09" y1="5.65" x2="36.09" y2="8.95"/><line class="cls-1" x1="38.22" y1="9.87" x2="36.21" y2="9.02"/><path class="cls-2" d="M43,17.46a1.51,1.51,0,1,1,0,3H29a1.51,1.51,0,0,1,0-3H43M43,16H29a3,3,0,0,0-3,3h0a3,3,0,0,0,3,3H43a3,3,0,0,0,3-3h0a3,3,0,0,0-3-3Z"/></g><g id="registration_finished_readring" data-name="registration/finished_readring"><path class="cls-1" d="M5.92,19.14v-4.7s3.32-1.84,3.16,0v3.4a.77.77,0,0,1-.72.75A5.51,5.51,0,0,0,6,19.18,0,0,0,0,1,5.92,19.14Z"/><path class="cls-1" d="M5.92,19.15v-4.7s-3.33-1.86-3.16,0v3.44a.77.77,0,0,0,.72.76,5,5,0,0,1,2.4.52S5.92,19.17,5.92,19.15Z"/><path class="cls-1" d="M6,21.24H18a3.19,3.19,0,0,0,3.19-3.19h0A3.19,3.19,0,0,0,18,14.86H14.87"/><path class="cls-1" d="M18.41,9.62H14.3a2.62,2.62,0,0,0-2.63,2.62h0a2.63,2.63,0,0,0,2.63,2.63h3"/><path class="cls-3" d="M21,6.15H17a.25.25,0,0,1-.22-.26V3A.24.24,0,0,1,17,2.77h4c.12,0,.39,0,.22.26l-.7,1.43.7,1.43C21.29,6.09,21.11,6.15,21,6.15Z"/><line class="cls-1" x1="16.74" y1="9" x2="16.74" y2="2.91"/></g><g id="registration_wish" data-name="registration/wish"><line class="cls-1" x1="50.75" y1="20.25" x2="68.9" y2="20.25"/><path class="cls-3" d="M64,3.83c-1.49-.37-3.2.56-4.34,2.18-1.13-1.62-2.84-2.55-4.34-2.18-2,.48-3.35,3.08-2.44,5.73a7.45,7.45,0,0,0,2.77,3.09s0,0,0,0l3.71,3a.44.44,0,0,0,.57,0l3.71-3s0,0,0,0a8.6,8.6,0,0,0,2.91-3.4A4,4,0,0,0,64,3.83Z"/><path class="cls-1" d="M51.53,17.7h5.31a2.55,2.55,0,0,1,2.55,2.55v0a0,0,0,0,1,0,0H51.53a0,0,0,0,1,0,0V17.7A0,0,0,0,1,51.53,17.7Z"/><path class="cls-1" d="M60.25,17.7h7.86a0,0,0,0,1,0,0v0a2.55,2.55,0,0,1-2.55,2.55H60.25a0,0,0,0,1,0,0V17.7a0,0,0,0,1,0,0Z" transform="translate(128.37 37.95) rotate(-180)"/></g></svg>