<svg width="48" height="48" viewBox="0 0 48 48" fill="none" xmlns="http://www.w3.org/2000/svg">
<path d="M30.4414 23.3458C25.9452 19.8087 19.1703 20.4276 15.4707 25.2013L15.2686 25.4708L15.2266 25.5353C15.0353 25.8636 15.1198 26.2903 15.4336 26.5187C15.7476 26.7469 16.1801 26.6963 16.4336 26.4132L16.4814 26.3536L16.6553 26.1222C19.7938 22.0719 25.5092 21.5028 29.3711 24.4161L27.7285 26.0587C27.4138 26.3737 27.6367 26.9122 28.082 26.9122H32.375C32.651 26.9122 32.8748 26.6882 32.875 26.4122V22.1193C32.875 21.6738 32.3365 21.4508 32.0215 21.7657L30.4414 23.3458Z" fill="#303030"/>
</svg>
