<svg width="48" height="48" viewBox="0 0 48 48" fill="none" xmlns="http://www.w3.org/2000/svg">
<path d="M17.5586 23.3458C22.0548 19.8087 28.8297 20.4276 32.5293 25.2013L32.7314 25.4708L32.7734 25.5353C32.9647 25.8636 32.8802 26.2903 32.5664 26.5187C32.2524 26.7469 31.8199 26.6963 31.5664 26.4132L31.5186 26.3536L31.3447 26.1222C28.2062 22.0719 22.4908 21.5028 18.6289 24.4161L20.2715 26.0587C20.5862 26.3737 20.3633 26.9122 19.918 26.9122H15.625C15.349 26.9122 15.1252 26.6882 15.125 26.4122V22.1193C15.125 21.6738 15.6635 21.4508 15.9785 21.7657L17.5586 23.3458Z" fill="#303030"/>
</svg>
