<svg width="24" height="24" viewBox="0 0 24 24" fill="none" xmlns="http://www.w3.org/2000/svg">
<path d="M7.96143 5.12891C8.3739 5.12897 8.70839 5.46351 8.7085 5.87598V16.1992C8.7085 16.4575 8.66678 16.7163 8.58643 16.9648L8.49268 17.21C8.34773 17.535 8.13608 17.8332 7.86963 18.084C7.60321 18.3346 7.28585 18.5347 6.93311 18.6719C6.58035 18.809 6.204 18.8798 5.81982 18.8799C5.43547 18.8799 5.05847 18.8091 4.70557 18.6719C4.35667 18.5347 4.03541 18.3346 3.76904 18.084C3.56629 17.8959 3.39836 17.681 3.26611 17.4482L3.146 17.21C3.00496 16.8887 2.93018 16.5476 2.93018 16.1992V5.87598C2.93028 5.46354 3.26481 5.12901 3.67725 5.12891C4.09051 5.12891 4.42506 5.46104 4.42432 5.87402C4.42166 7.10413 4.41686 9.60688 4.4126 11.8018C4.41047 12.8992 4.40786 13.9198 4.40674 14.666C4.40618 15.039 4.40589 15.3435 4.40576 15.5547V15.8623C4.40579 15.8695 4.4067 15.8752 4.40674 15.8789V16.2041C4.41075 16.3762 4.44684 16.5485 4.51904 16.709C4.59498 16.8728 4.69847 17.0214 4.83057 17.1455C4.96266 17.2696 5.11896 17.3657 5.28662 17.4336C5.45498 17.5017 5.63996 17.5332 5.81982 17.5332C5.99955 17.5332 6.18383 17.5017 6.35205 17.4336C6.51973 17.3657 6.67599 17.2696 6.80811 17.1455C6.94004 17.0215 7.04746 16.8724 7.11963 16.708C7.19163 16.5477 7.22786 16.3757 7.23584 16.2041V15.8838L7.21436 5.87793C7.21345 5.4647 7.54819 5.12891 7.96143 5.12891Z" fill="#303030" stroke="#303030" stroke-width="0.0394672"/>
<path d="M5.4165 11.1516C5.78835 11.1516 6.08727 11.4507 6.0874 11.8225V14.7434C6.08736 15.1153 5.78841 15.4143 5.4165 15.4143C5.04471 15.4142 4.74565 15.1152 4.74561 14.7434V11.8225C4.74574 11.4508 5.04477 11.1517 5.4165 11.1516Z" fill="#303030" stroke="#303030" stroke-width="0.0394672"/>
<path d="M14.1016 5.125C14.5146 5.125 14.8496 5.46002 14.8496 5.87305V16.1758H14.8457V16.1953C14.8457 16.4536 14.804 16.7124 14.7236 16.9609L14.6299 17.2061C14.4849 17.5311 14.2733 17.8293 14.0068 18.0801C13.7404 18.3307 13.4231 18.5308 13.0703 18.668C12.7176 18.8051 12.3412 18.8759 11.957 18.876C11.5727 18.876 11.1957 18.8052 10.8428 18.668C10.4939 18.5308 10.1726 18.3307 9.90625 18.0801C9.7035 17.892 9.53557 17.6771 9.40332 17.4443L9.2832 17.2061C9.14217 16.8848 9.06738 16.5437 9.06738 16.1953V5.87305C9.06741 5.46004 9.40242 5.12503 9.81543 5.125C10.2285 5.125 10.5634 5.46002 10.5635 5.87305V16.1992C10.5635 16.3719 10.6038 16.545 10.6719 16.7012C10.744 16.8655 10.8485 17.0098 10.9805 17.1338C11.1125 17.2577 11.2645 17.3539 11.4326 17.418C11.6008 17.486 11.7812 17.5176 11.9609 17.5176C12.1409 17.5175 12.3207 17.4818 12.4883 17.418C12.6565 17.3539 12.8093 17.2579 12.9414 17.1338C13.0733 17.0098 13.1769 16.8654 13.249 16.7012H13.25C13.3181 16.541 13.3533 16.3721 13.3613 16.2002V15.8604H13.3535V5.87305C13.3535 5.46004 13.6886 5.12503 14.1016 5.125Z" fill="#303030" stroke="#303030" stroke-width="0.0394672"/>
<path d="M11.5337 11.1516C11.9055 11.1516 12.2045 11.4507 12.2046 11.8225V14.7434C12.2045 15.1153 11.9056 15.4143 11.5337 15.4143C11.1619 15.4142 10.8628 15.1152 10.8628 14.7434V11.8225C10.8629 11.4508 11.162 11.1517 11.5337 11.1516Z" fill="#303030" stroke="#303030" stroke-width="0.0394672"/>
<path d="M21.0889 19.3805V5.37752C21.0889 4.95902 20.7496 4.61975 20.3311 4.61975C19.9126 4.61975 19.5733 4.95902 19.5733 5.37752V17.0874L19.151 16.9375C18.8392 16.827 18.5117 16.7717 18.1841 16.7717C17.8565 16.7717 17.5447 16.823 17.2448 16.9296L16.8264 17.0717V5.39331C16.8264 4.96608 16.4801 4.61975 16.0529 4.61975C15.6256 4.61975 15.2793 4.96608 15.2793 5.39331V19.3805H16.8383C16.854 19.3015 16.8777 19.2266 16.9093 19.1555C16.9803 18.9898 17.079 18.8358 17.2092 18.7095C17.3355 18.5832 17.4895 18.4806 17.6552 18.4096C17.821 18.3385 18.0025 18.303 18.1801 18.303C18.3577 18.303 18.5393 18.3385 18.705 18.4096C18.8708 18.4806 19.0247 18.5793 19.151 18.7095C19.2773 18.8358 19.3799 18.9898 19.451 19.1555C19.4786 19.2226 19.5023 19.2937 19.5181 19.3647H19.5654V19.3805H21.081H21.0889Z" fill="#303030"/>
<path d="M17.6436 5.31052C17.6436 5.01451 17.8804 4.77771 18.1764 4.77771C18.4724 4.77771 18.7092 5.01451 18.7092 5.31052V16.1443H17.6436V5.31052Z" fill="#303030"/>
</svg>
