<svg width="24" height="24" viewBox="0 0 24 24" fill="none" xmlns="http://www.w3.org/2000/svg">
<path d="M18.7974 11.4666C19.9119 11.4667 20.981 11.9165 21.7691 12.7166C22.5571 13.5167 22.9996 14.6018 22.9996 15.7332C22.9996 16.577 22.7532 17.4018 22.2916 18.1034C21.8298 18.8049 21.1737 19.3527 20.4058 19.6756C19.6379 19.9986 18.7924 20.0824 17.9771 19.9178C17.162 19.7532 16.4135 19.3465 15.8258 18.7498C15.238 18.1531 14.8375 17.3929 14.6754 16.5653C14.5133 15.7377 14.5966 14.8799 14.9146 14.1004C15.2327 13.3209 15.7714 12.6542 16.4625 12.1854C17.1535 11.7167 17.9663 11.4666 18.7974 11.4666ZM18.7974 12.8953C18.051 12.8953 17.335 13.1964 16.8072 13.7323C16.2795 14.2681 15.983 14.9951 15.983 15.7528C15.9831 16.3177 16.1484 16.8699 16.4576 17.3397C16.7668 17.8094 17.2061 18.1762 17.7203 18.3924C18.2345 18.6086 18.8004 18.6648 19.3463 18.5545C19.8921 18.4443 20.3931 18.1718 20.7867 17.7723C21.1803 17.3727 21.4486 16.8636 21.5572 16.3094C21.6657 15.7553 21.61 15.181 21.397 14.659C21.1841 14.137 20.8236 13.6907 20.3609 13.3768C19.8982 13.0629 19.3539 12.8954 18.7974 12.8953ZM17.5875 3.26449C17.755 3.27898 17.8897 3.30168 17.9888 3.32406C18.0382 3.33521 18.0792 3.34697 18.1109 3.35628C18.1266 3.3609 18.1406 3.36529 18.1519 3.36898C18.1574 3.37078 18.1631 3.37234 18.1676 3.37386L18.1763 3.37679L18.1773 3.37777C18.1765 3.382 18.1595 3.43376 17.9254 4.08382L18.1793 3.37777C18.4766 3.48496 18.6753 3.76771 18.6754 4.08382V5.76351C18.9916 5.76346 19.3051 5.82376 19.5982 5.9432C19.8995 6.06602 20.1729 6.24806 20.4039 6.47738C20.6349 6.70682 20.8186 6.97988 20.9449 7.28011C21.0712 7.58033 21.1387 7.90261 21.1422 8.22835V10.1903C21.142 10.6042 20.8061 10.9401 20.3922 10.9403C19.9781 10.9402 19.6423 10.6043 19.6422 10.1903V8.24496L19.6363 8.14632C19.6258 8.04852 19.601 7.9526 19.5631 7.86214C19.5123 7.74148 19.4385 7.63247 19.3472 7.54183C19.2561 7.45126 19.1487 7.38052 19.0318 7.33285C18.9182 7.28654 18.7972 7.26256 18.6754 7.26253V10.4452C18.6754 10.8592 18.3393 11.1948 17.9254 11.1952C17.5112 11.1952 17.1754 10.8594 17.1754 10.4452V4.75179C16.9977 4.75626 16.7734 4.77634 16.5054 4.83187C15.6729 5.00448 14.3799 5.51428 12.69 6.91781V15.5848C12.7892 15.539 12.8947 15.4921 13.0074 15.4461C13.3907 15.29 13.8284 15.4741 13.9849 15.8573C14.1412 16.2407 13.9572 16.6784 13.5738 16.8348C13.397 16.9069 13.2521 16.977 13.1324 17.0389H13.7877C14.2018 17.039 14.5377 17.3747 14.5377 17.7889C14.5375 18.2029 14.2017 18.5388 13.7877 18.5389H4.73493V18.5379C4.08253 18.5429 3.45613 18.2876 2.99177 17.8289C2.58406 17.4262 2.32953 16.8959 2.26521 16.3309L2.24958 16.0868V8.27425C2.24713 7.94703 2.3084 7.62188 2.43025 7.3182C2.55334 7.01175 2.73672 6.73211 2.96833 6.49691C3.19989 6.26183 3.47611 6.07533 3.78083 5.94906C4.08317 5.82389 4.40783 5.76104 4.73493 5.76351V5.76253H5.19587V4.08382C5.19592 3.76725 5.39494 3.48462 5.69294 3.37777L5.94587 4.08382C5.69272 3.37784 5.69326 3.37703 5.69392 3.37679H5.69587L5.69782 3.37581C5.69973 3.37519 5.70258 3.37457 5.70466 3.37386C5.70915 3.3723 5.71473 3.36981 5.72029 3.368C5.73158 3.36433 5.74564 3.35988 5.7613 3.35531C5.79306 3.34604 5.83406 3.33515 5.88337 3.32406C5.98261 3.30176 6.11722 3.27895 6.28474 3.26449C6.62139 3.2355 7.08884 3.24229 7.67341 3.36312C8.7474 3.58524 10.1885 4.18538 11.939 5.59456C13.6895 4.18497 15.1296 3.58531 16.2017 3.36312C16.7854 3.24222 17.2514 3.23543 17.5875 3.26449ZM18.7974 13.6912C19.2116 13.6913 19.5474 14.027 19.5474 14.4412V15.1258H20.232L20.3092 15.1297C20.687 15.1683 20.9818 15.4878 20.982 15.8758C20.982 16.264 20.6871 16.5833 20.3092 16.6219L20.232 16.6258H19.5474V17.3211L19.5435 17.3983C19.5049 17.7762 19.1856 18.0711 18.7974 18.0711C18.4093 18.0711 18.09 17.7763 18.0513 17.3983L18.0474 17.3211V16.6258H17.3521C16.9381 16.6256 16.6021 16.2899 16.6021 15.8758C16.6023 15.4619 16.9382 15.126 17.3521 15.1258H18.0474V14.4412C18.0474 14.027 18.3832 13.6912 18.7974 13.6912ZM4.72712 7.26253C4.60007 7.26114 4.47333 7.28583 4.35505 7.3348C4.23679 7.3838 4.12818 7.45676 4.03669 7.54964C3.94532 7.64252 3.87227 7.75373 3.82282 7.87679C3.77338 8.00001 3.74814 8.13275 3.74958 8.26644V16.0623L3.75642 16.161C3.78242 16.3898 3.88514 16.6022 4.04646 16.7616C4.23033 16.9431 4.47547 17.0417 4.72712 17.0389H10.4693C9.18607 16.3181 7.76248 15.8852 6.2945 15.7772L5.9195 15.7567C5.51608 15.7422 5.196 15.4113 5.19587 15.0077V7.26253H4.72712ZM6.69587 14.3075C8.27594 14.4643 9.80483 14.9472 11.19 15.7225V6.91781C9.50012 5.51448 8.20461 5.00456 7.3697 4.83187C7.10002 4.77613 6.87455 4.75616 6.69587 4.75179V14.3075ZM17.6793 4.79281C17.6815 4.79358 17.6837 4.7943 17.6851 4.79476C17.6862 4.79503 17.6876 4.7946 17.6881 4.79476C17.6867 4.79437 17.6834 4.79315 17.6783 4.79183L17.6793 4.79281Z" fill="#303030"/>
</svg>
