<svg width="24" height="24" viewBox="0 0 24 24" fill="none" xmlns="http://www.w3.org/2000/svg">
<path d="M4 14.8236L4.00195 14.8529L4.00879 14.9681L4.00977 14.9954L4.01367 15.0228L4.0459 15.2201C4.25296 16.1826 5.12773 16.8325 6.06543 16.846L6.08984 16.847L6.11328 16.846L6.22949 16.8421L6.25781 16.8411L6.28613 16.8382C7.02124 16.7716 7.84516 16.7596 8.4502 16.889L8.69531 16.9535C8.71016 16.9587 8.73038 16.9659 8.75293 16.974C8.80273 16.9918 8.85683 17.0122 8.89453 17.0267L9.07422 17.1038C9.50388 17.3052 10.0118 17.6542 10.4678 18.0111C10.7167 18.206 10.9312 18.3879 11.083 18.5208C11.1586 18.5871 11.219 18.6408 11.2588 18.6771C11.2786 18.6951 11.2932 18.7093 11.3027 18.7181C11.3074 18.7224 11.3114 18.726 11.3135 18.7279L11.3145 18.7298H11.3154L11.3145 18.7288L11.6035 19.0013H5L4.8457 18.9974C3.26075 18.9171 2.00032 17.6061 2 16.0013V10.0013C2 8.69514 2.83488 7.58408 4 7.1722V14.8236ZM15.1318 17.016C15.3367 17.7972 15.7713 18.4854 16.3613 19.0013H12.3975L12.6875 18.7269L12.6895 18.7259C12.6912 18.7242 12.6941 18.721 12.6982 18.7171C12.7072 18.7088 12.7214 18.6953 12.7402 18.6781C12.7781 18.6435 12.8355 18.5925 12.9082 18.5286C13.0541 18.4006 13.2614 18.2238 13.5059 18.0326C14.0079 17.6398 14.6008 17.2358 15.1104 17.0247L15.1318 17.016ZM14 4.00131C15.2047 3.33202 17.2 3.60746 18.2695 3.82748C18.7058 3.91749 19 4.3087 19 4.75424V12.0257C18.9928 12.0257 18.9857 12.0257 18.9785 12.0257C16.7827 12.0258 15.0023 13.8049 15 16.0003V16.0013L14.7451 16.0941C13.4647 16.6176 12.0152 17.9869 12 18.0013L11.7422 17.7689C11.2555 17.3426 10.1681 16.4465 9.25488 16.0941C9.15774 16.0566 9.00517 16.0031 9 16.0013C8.17928 15.7387 7.04678 15.766 6.19629 15.8431L6.08008 15.847L5.97949 15.8402C5.4837 15.7879 5.06416 15.4069 5.00684 14.9095L5 14.7943V4.75424C5 4.3087 5.29419 3.91749 5.73047 3.82748C6.8 3.60746 8.79528 3.33202 10 4.00131C10.9655 4.53789 12 6.00131 12 6.00131C12 6.00131 12.9092 4.7145 13.8184 4.11166L14 4.00131ZM20 7.1722C21.1651 7.58408 22 8.69514 22 10.0013V13.4173C21.4834 12.8146 20.7902 12.3679 20 12.1585V7.1722Z" fill="#303030"/>
<path d="M18.9785 13.0259C20.6236 13.0259 21.957 14.3593 21.957 16.0044C21.957 16.5611 21.8011 17.0801 21.5352 17.5259L22.7803 18.7632L22.832 18.8188C23.0713 19.1106 23.0549 19.5425 22.7832 19.8159C22.5115 20.089 22.0802 20.1079 21.7871 19.8706L21.7305 19.8188L20.4785 18.5747C20.0377 18.8325 19.5261 18.9829 18.9785 18.9829C17.3336 18.9828 16.0001 17.6494 16 16.0044C16 14.3594 17.3335 13.026 18.9785 13.0259ZM18.9785 14.5151C18.1561 14.5152 17.4893 15.1819 17.4893 16.0044C17.4893 16.8268 18.1561 17.4936 18.9785 17.4937C19.801 17.4937 20.4677 16.8269 20.4678 16.0044C20.4678 15.1819 19.8011 14.5151 18.9785 14.5151Z" fill="#303030"/>
</svg>
