<svg width="24" height="24" viewBox="0 0 24 24" fill="none" xmlns="http://www.w3.org/2000/svg">
<path d="M12.1699 19.4399V6.93994C12.1699 6.93994 20.9999 1.99994 20.5699 6.93994V15.9399C20.5704 16.4551 20.3721 16.9507 20.0163 17.3233C19.6605 17.6959 19.1746 17.9168 18.6599 17.9399C18.6599 17.9399 14.6599 18.0199 12.3299 19.4899C12.3171 19.5006 12.3018 19.5078 12.2855 19.511C12.2691 19.5142 12.2523 19.5133 12.2364 19.5083C12.2205 19.5034 12.2061 19.4945 12.1945 19.4826C12.1829 19.4706 12.1744 19.456 12.1699 19.4399Z" stroke="#303030" stroke-width="1.5" stroke-miterlimit="10"/>
<path d="M12.1698 19.4599V6.99993C12.1698 6.99993 3.3298 1.99993 3.7698 6.99993V16.0999C3.78579 16.6117 3.99091 17.0995 4.34552 17.4688C4.70014 17.8382 5.17908 18.0631 5.6898 18.0999C5.6898 18.0999 9.7698 17.9999 12.0598 19.5199C12.0705 19.5274 12.083 19.5317 12.096 19.5324C12.109 19.5331 12.1219 19.5302 12.1334 19.524C12.1448 19.5177 12.1543 19.5084 12.1607 19.4971C12.1671 19.4858 12.1703 19.4729 12.1698 19.4599Z" stroke="#303030" stroke-width="1.51" stroke-miterlimit="10"/>
</svg>
