<svg width="24" height="24" viewBox="0 0 24 24" fill="none" xmlns="http://www.w3.org/2000/svg">
<path d="M20.54 6.46997C20.54 5.77963 19.9804 5.21999 19.29 5.21997H4.75C4.05964 5.21997 3.5 5.77961 3.5 6.46997V19.0696C3.5 19.7599 4.05964 20.3196 4.75 20.3196H19.29C19.9804 20.3196 20.54 19.7599 20.54 19.0696V6.46997ZM22.04 19.0696C22.04 20.5884 20.8088 21.8196 19.29 21.8196H4.75C3.23122 21.8196 2 20.5884 2 19.0696V6.46997C2 4.95119 3.23122 3.71997 4.75 3.71997H19.29C20.8088 3.71999 22.04 4.9512 22.04 6.46997V19.0696Z" fill="#303030"/>
<path d="M21.0303 8.60999L21.1064 8.61389C21.4849 8.65208 21.7803 8.9715 21.7803 9.35999C21.7803 9.74847 21.4849 10.0679 21.1064 10.1061L21.0303 10.11H2.99023C2.57602 10.11 2.24023 9.7742 2.24023 9.35999C2.24023 8.94577 2.57602 8.60999 2.99023 8.60999H21.0303Z" fill="#303030"/>
<path d="M6.35986 5.83984V2.75C6.35986 2.33579 6.69565 2 7.10986 2C7.52408 2 7.85986 2.33579 7.85986 2.75V5.83984C7.85986 6.25406 7.52408 6.58984 7.10986 6.58984C6.69565 6.58984 6.35986 6.25406 6.35986 5.83984Z" fill="#303030"/>
<path d="M8.06006 12.4L8.13623 12.4039C8.51459 12.4422 8.81006 12.7616 8.81006 13.15C8.81006 13.5385 8.51459 13.8579 8.13623 13.8961L8.06006 13.9H6.3999C5.98569 13.9 5.6499 13.5642 5.6499 13.15C5.6499 12.7358 5.98569 12.4 6.3999 12.4H8.06006Z" fill="#303030"/>
<path d="M13.02 12.4L13.0962 12.4039C13.4746 12.4422 13.77 12.7616 13.77 13.15C13.77 13.5385 13.4746 13.8579 13.0962 13.8961L13.02 13.9H11.3599C10.9456 13.9 10.6099 13.5642 10.6099 13.15C10.6099 12.7358 10.9456 12.4 11.3599 12.4H13.02Z" fill="#303030"/>
<path d="M17.4902 12.4L17.5664 12.4039C17.9448 12.4422 18.2402 12.7616 18.2402 13.15C18.2402 13.5385 17.9448 13.8579 17.5664 13.8961L17.4902 13.9H15.8301C15.4159 13.9 15.0801 13.5642 15.0801 13.15C15.0801 12.7358 15.4159 12.4 15.8301 12.4H17.4902Z" fill="#303030"/>
<path d="M8.08008 16.54L8.15625 16.5439C8.53461 16.5822 8.83008 16.9016 8.83008 17.29C8.83008 17.6785 8.53461 17.9979 8.15625 18.0361L8.08008 18.04H6.41992C6.00571 18.04 5.66992 17.7043 5.66992 17.29C5.66992 16.8758 6.00571 16.54 6.41992 16.54H8.08008Z" fill="#303030"/>
<path d="M13.04 16.54L13.1162 16.5439C13.4946 16.5822 13.79 16.9016 13.79 17.29C13.79 17.6785 13.4946 17.9979 13.1162 18.0361L13.04 18.04H11.3799C10.9657 18.04 10.6299 17.7043 10.6299 17.29C10.6299 16.8758 10.9657 16.54 11.3799 16.54H13.04Z" fill="#303030"/>
<path d="M17.4902 16.52L17.5664 16.5239C17.9448 16.5622 18.2402 16.8816 18.2402 17.27C18.2402 17.6585 17.9448 17.9779 17.5664 18.0161L17.4902 18.02H15.8301C15.4159 18.02 15.0801 17.6842 15.0801 17.27C15.0801 16.8558 15.4159 16.52 15.8301 16.52H17.4902Z" fill="#303030"/>
<path d="M16.1001 5.83984V2.75C16.1001 2.33579 16.4359 2 16.8501 2C17.2643 2 17.6001 2.33579 17.6001 2.75V5.83984C17.6001 6.25406 17.2643 6.58984 16.8501 6.58984C16.4359 6.58984 16.1001 6.25406 16.1001 5.83984Z" fill="#303030"/>
</svg>
