<svg width="48" height="48" viewBox="0 0 48 48" fill="none" xmlns="http://www.w3.org/2000/svg">
<path d="M26.9514 15H31.0551C31.571 15 32.0657 15.2046 32.4304 15.5687C32.7951 15.9329 33 16.4268 33 16.9417V21.068" stroke="#303030" stroke-width="2" stroke-linecap="round" stroke-linejoin="round"/>
<path d="M21.0583 33H16.9449C16.4291 33 15.9344 32.7955 15.5696 32.4313C15.2049 32.0672 15 31.5733 15 31.0583V26.7767" stroke="#303030" stroke-width="2" stroke-linecap="round" stroke-linejoin="round"/>
<path d="M21.0583 15H16.9449C16.4291 15 15.9344 15.2046 15.5696 15.5687C15.2049 15.9329 15 16.4268 15 16.9417V21.068" stroke="#303030" stroke-width="2" stroke-linecap="round" stroke-linejoin="round"/>
<path d="M26.8931 33H31.0357C31.5515 33 32.0462 32.7955 32.4109 32.4313C32.7757 32.0672 32.9806 31.5733 32.9806 31.0583V26.7767" stroke="#303030" stroke-width="2" stroke-linecap="round" stroke-linejoin="round"/>
<circle cx="24" cy="24" r="4" stroke="#303030" stroke-width="2"/>
</svg>
