<svg width="24" height="24" viewBox="0 0 24 24" fill="none" xmlns="http://www.w3.org/2000/svg">
<path d="M14.9514 3H19.0551C19.571 3 20.0657 3.20458 20.4304 3.56872C20.7951 3.93287 21 4.42676 21 4.94175V9.06796" stroke="#303030" stroke-width="2" stroke-linecap="round" stroke-linejoin="round"/>
<path d="M9.05835 21H4.94489C4.42908 21 3.93438 20.7955 3.56965 20.4313C3.20491 20.0672 3 19.5733 3 19.0583V14.7767" stroke="#303030" stroke-width="2" stroke-linecap="round" stroke-linejoin="round"/>
<path d="M9.05835 3H4.94489C4.42908 3 3.93438 3.20458 3.56965 3.56872C3.20491 3.93287 3 4.42676 3 4.94175V9.06796" stroke="#303030" stroke-width="2" stroke-linecap="round" stroke-linejoin="round"/>
<path d="M14.8931 21H19.0357C19.5515 21 20.0462 20.7955 20.4109 20.4313C20.7757 20.0672 20.9806 19.5733 20.9806 19.0583V14.7767" stroke="#303030" stroke-width="2" stroke-linecap="round" stroke-linejoin="round"/>
<circle cx="12" cy="12" r="4" stroke="#303030" stroke-width="2"/>
</svg>
