<svg width="24" height="24" viewBox="0 0 24 24" fill="none" xmlns="http://www.w3.org/2000/svg">
<g clip-path="url(#clip0_1762_15808)">
<rect x="2" y="2" width="20" height="20" rx="10" fill="#CACACA"/>
<path d="M16.0659 7.93415C16.3586 8.22706 16.3587 8.70197 16.0659 8.99481L13.0676 11.9931L16.0728 14.9983L16.1246 15.0556C16.3643 15.3502 16.3472 15.7846 16.0728 16.059C15.7983 16.3331 15.3639 16.3505 15.0694 16.1108L15.0121 16.059L12.0069 13.0538L8.9948 16.0659C8.70195 16.3585 8.22699 16.3585 7.93414 16.0659C7.6413 15.773 7.64141 15.2981 7.93414 15.0052L10.9462 11.9931L7.94104 8.9879C7.64826 8.69513 7.64849 8.22017 7.94104 7.92724C8.23394 7.63442 8.70883 7.63438 9.0017 7.92724L12.0069 10.9324L15.0052 7.93415C15.2981 7.64126 15.773 7.64126 16.0659 7.93415Z" fill="white"/>
</g>
<defs>
<clipPath id="clip0_1762_15808">
<rect width="24" height="24" fill="white"/>
</clipPath>
</defs>
</svg>
