<svg width="24" height="24" viewBox="0 0 24 24" fill="none" xmlns="http://www.w3.org/2000/svg">
<rect x="2.75" y="2.75" width="18.5" height="18.5" rx="9.25" stroke="#303030" stroke-width="1.5"/>
<path d="M11.75 6.25C12.1641 6.25013 12.5 6.58586 12.5 7V11.2402H16.75L16.8271 11.2441C17.205 11.2829 17.5 11.6022 17.5 11.9902C17.4998 12.3781 17.2049 12.6976 16.8271 12.7363L16.75 12.7402H12.5V17C12.4999 17.414 12.164 17.7499 11.75 17.75C11.3359 17.75 11.0001 17.4141 11 17V12.7402H6.75C6.33595 12.7402 6.00026 12.4042 6 11.9902C6.00005 11.5761 6.33582 11.2402 6.75 11.2402H11V7C11 6.58579 11.3358 6.25 11.75 6.25Z" fill="#303030"/>
</svg>
