<svg width="24" height="24" viewBox="0 0 24 24" fill="none" xmlns="http://www.w3.org/2000/svg">
<mask id="path-1-outside-1_1556_12630" maskUnits="userSpaceOnUse" x="1.17871" y="3.5" width="22" height="18" fill="black">
<rect fill="white" x="1.17871" y="3.5" width="22" height="18"/>
<path d="M14.7568 5.5C18.1064 5.50002 20.8213 8.21587 20.8213 11.5654C20.821 14.9148 18.1062 17.6299 14.7568 17.6299H9.24316L5.93457 18.5L6.37891 16.9102C4.47436 15.8874 3.17889 13.8785 3.17871 11.5654C3.17871 8.21587 5.89361 5.50002 9.24316 5.5H14.7568Z"/>
</mask>
<path d="M14.7568 5.5L14.7568 4H14.7568V5.5ZM20.8213 11.5654L22.3213 11.5655V11.5654H20.8213ZM14.7568 17.6299V19.1299H14.7568L14.7568 17.6299ZM9.24316 17.6299V16.1299H9.04922L8.86166 16.1792L9.24316 17.6299ZM5.93457 18.5L4.48993 18.0962L3.78566 20.6161L6.31608 19.9507L5.93457 18.5ZM6.37891 16.9102L7.82355 17.3139L8.14689 16.157L7.08855 15.5886L6.37891 16.9102ZM3.17871 11.5654H1.67871V11.5655L3.17871 11.5654ZM9.24316 5.5V4H9.24315L9.24316 5.5ZM14.7568 5.5L14.7568 7C17.2777 7.00002 19.3213 9.04399 19.3213 11.5654H20.8213H22.3213C22.3213 7.38775 18.9351 4.00003 14.7568 4L14.7568 5.5ZM20.8213 11.5654L19.3213 11.5653C19.3211 14.0864 17.2777 16.1299 14.7568 16.1299L14.7568 17.6299L14.7568 19.1299C18.9348 19.1299 22.321 15.7431 22.3213 11.5655L20.8213 11.5654ZM14.7568 17.6299V16.1299H9.24316V17.6299V19.1299H14.7568V17.6299ZM9.24316 17.6299L8.86166 16.1792L5.55306 17.0493L5.93457 18.5L6.31608 19.9507L9.62467 19.0806L9.24316 17.6299ZM5.93457 18.5L7.37921 18.9038L7.82355 17.3139L6.37891 16.9102L4.93427 16.5064L4.48993 18.0962L5.93457 18.5ZM6.37891 16.9102L7.08855 15.5886C5.65063 14.8165 4.67885 13.3036 4.67871 11.5653L3.17871 11.5654L1.67871 11.5655C1.67894 14.4534 3.2981 16.9584 5.66927 18.2317L6.37891 16.9102ZM3.17871 11.5654H4.67871C4.67871 9.04399 6.72234 7.00002 9.24317 7L9.24316 5.5L9.24315 4C5.06487 4.00003 1.67871 7.38775 1.67871 11.5654H3.17871ZM9.24316 5.5V7H14.7568V5.5V4H9.24316V5.5Z" fill="#303030" mask="url(#path-1-outside-1_1556_12630)"/>
<rect width="9" height="2" transform="translate(7.5 11)" fill="white"/>
<circle cx="8.5" cy="12" r="1" fill="#303030"/>
<circle cx="12" cy="12" r="1" fill="#303030"/>
<circle cx="15.5" cy="12" r="1" fill="#303030"/>
</svg>
