<svg width="48" height="48" viewBox="0 0 48 48" fill="none" xmlns="http://www.w3.org/2000/svg">
<mask id="path-1-outside-1_1556_12630" maskUnits="userSpaceOnUse" x="13.1787" y="15.5" width="22" height="18" fill="black">
<rect fill="white" x="13.1787" y="15.5" width="22" height="18"/>
<path d="M26.7568 17.5C30.1064 17.5 32.8213 20.2159 32.8213 23.5654C32.821 26.9148 30.1062 29.6299 26.7568 29.6299H21.2432L17.9346 30.5L18.3789 28.9102C16.4744 27.8874 15.1789 25.8785 15.1787 23.5654C15.1787 20.2159 17.8936 17.5 21.2432 17.5H26.7568Z"/>
</mask>
<path d="M26.7568 17.5L26.7568 16H26.7568V17.5ZM32.8213 23.5654L34.3213 23.5655V23.5654H32.8213ZM26.7568 29.6299V31.1299H26.7568L26.7568 29.6299ZM21.2432 29.6299V28.1299H21.0492L20.8617 28.1792L21.2432 29.6299ZM17.9346 30.5L16.4899 30.0962L15.7857 32.6161L18.3161 31.9507L17.9346 30.5ZM18.3789 28.9102L19.8235 29.3139L20.1469 28.157L19.0885 27.5886L18.3789 28.9102ZM15.1787 23.5654H13.6787V23.5655L15.1787 23.5654ZM21.2432 17.5V16H21.2432L21.2432 17.5ZM26.7568 17.5L26.7568 19C29.2777 19 31.3213 21.044 31.3213 23.5654H32.8213H34.3213C34.3213 19.3877 30.9351 16 26.7568 16L26.7568 17.5ZM32.8213 23.5654L31.3213 23.5653C31.3211 26.0864 29.2777 28.1299 26.7568 28.1299L26.7568 29.6299L26.7568 31.1299C30.9348 31.1299 34.321 27.7431 34.3213 23.5655L32.8213 23.5654ZM26.7568 29.6299V28.1299H21.2432V29.6299V31.1299H26.7568V29.6299ZM21.2432 29.6299L20.8617 28.1792L17.5531 29.0493L17.9346 30.5L18.3161 31.9507L21.6247 31.0806L21.2432 29.6299ZM17.9346 30.5L19.3792 30.9038L19.8235 29.3139L18.3789 28.9102L16.9343 28.5064L16.4899 30.0962L17.9346 30.5ZM18.3789 28.9102L19.0885 27.5886C17.6506 26.8165 16.6788 25.3036 16.6787 23.5653L15.1787 23.5654L13.6787 23.5655C13.6789 26.4534 15.2981 28.9584 17.6693 30.2317L18.3789 28.9102ZM15.1787 23.5654H16.6787C16.6787 21.044 18.7223 19 21.2432 19L21.2432 17.5L21.2432 16C17.0649 16 13.6787 19.3877 13.6787 23.5654H15.1787ZM21.2432 17.5V19H26.7568V17.5V16H21.2432V17.5Z" fill="#303030" mask="url(#path-1-outside-1_1556_12630)"/>
<rect width="9" height="2" transform="translate(19.5 23)" fill="white"/>
<circle cx="20.5" cy="24" r="1" fill="#303030"/>
<circle cx="24" cy="24" r="1" fill="#303030"/>
<circle cx="27.5" cy="24" r="1" fill="#303030"/>
</svg>
