<svg width="24" height="24" viewBox="0 0 24 24" fill="none" xmlns="http://www.w3.org/2000/svg">
<path d="M19.0153 10.9882V17.7282C19.0153 17.9707 18.9674 18.2108 18.8743 18.4347C18.7812 18.6586 18.6447 18.8619 18.4728 19.0329C18.3009 19.2039 18.0969 19.3392 17.8725 19.4311C17.6481 19.5229 17.4077 19.5696 17.1653 19.5682H6.26527C6.02233 19.5696 5.7815 19.523 5.55654 19.4313C5.33159 19.3395 5.12691 19.2043 4.95419 19.0335C4.78147 18.8626 4.6441 18.6594 4.54992 18.4355C4.45573 18.2115 4.40658 17.9712 4.40527 17.7282V6.88824C4.40658 6.6453 4.45573 6.40499 4.54992 6.18104C4.6441 5.95709 4.78147 5.75388 4.95419 5.58302C5.12691 5.41216 5.33159 5.27699 5.55654 5.18523C5.7815 5.09348 6.02233 5.04693 6.26527 5.04824H13.0053" stroke="#303030" stroke-width="1.5" stroke-linecap="round" stroke-linejoin="round"/>
<path d="M17.9115 5.13875L18.8873 6.11455C19.0748 6.30209 19.1802 6.55644 19.1802 6.82166C19.1802 7.08688 19.0748 7.34123 18.8873 7.52877L17.2326 9.1834L14.8426 6.79338L16.4619 5.1741C16.6494 4.98657 16.9038 4.88121 17.169 4.88121C17.4342 4.88121 17.6886 4.98657 17.8761 5.1741L17.9115 5.13875Z" stroke="#303030" stroke-width="1.5" stroke-linecap="round" stroke-linejoin="round"/>
<path d="M8.05518 13.5782L14.8452 6.78821L17.2352 9.17821L10.4452 15.9682" stroke="#303030" stroke-width="1.5" stroke-linecap="round" stroke-linejoin="round"/>
<path d="M8.04533 13.5682L7.21533 16.8182L10.4653 15.9882" stroke="#303030" stroke-width="1.5" stroke-linecap="round" stroke-linejoin="round"/>
</svg>
