<svg width="48" height="48" viewBox="0 0 48 48" fill="none" xmlns="http://www.w3.org/2000/svg">
<path d="M31.0153 22.9882V29.7282C31.0153 29.9707 30.9674 30.2108 30.8743 30.4347C30.7812 30.6586 30.6447 30.8619 30.4728 31.0329C30.3009 31.2039 30.0969 31.3392 29.8725 31.4311C29.6481 31.5229 29.4077 31.5696 29.1653 31.5682H18.2653C18.0223 31.5696 17.7815 31.523 17.5565 31.4313C17.3316 31.3395 17.1269 31.2043 16.9542 31.0335C16.7815 30.8626 16.6441 30.6594 16.5499 30.4355C16.4557 30.2115 16.4066 29.9712 16.4053 29.7282V18.8882C16.4066 18.6453 16.4557 18.405 16.5499 18.181C16.6441 17.9571 16.7815 17.7539 16.9542 17.583C17.1269 17.4122 17.3316 17.277 17.5565 17.1852C17.7815 17.0935 18.0223 17.0469 18.2653 17.0482H25.0053" stroke="#303030" stroke-width="1.5" stroke-linecap="round" stroke-linejoin="round"/>
<path d="M29.9115 17.1387L30.8873 18.1146C31.0748 18.3021 31.1802 18.5564 31.1802 18.8217C31.1802 19.0869 31.0748 19.3412 30.8873 19.5288L29.2326 21.1834L26.8426 18.7934L28.4619 17.1741C28.6494 16.9866 28.9038 16.8812 29.169 16.8812C29.4342 16.8812 29.6886 16.9866 29.8761 17.1741L29.9115 17.1387Z" stroke="#303030" stroke-width="1.5" stroke-linecap="round" stroke-linejoin="round"/>
<path d="M20.0552 25.5782L26.8452 18.7882L29.2352 21.1782L22.4452 27.9682" stroke="#303030" stroke-width="1.5" stroke-linecap="round" stroke-linejoin="round"/>
<path d="M20.0453 25.5682L19.2153 28.8182L22.4653 27.9882" stroke="#303030" stroke-width="1.5" stroke-linecap="round" stroke-linejoin="round"/>
</svg>
