<svg width="48" height="48" viewBox="0 0 48 48" fill="none" xmlns="http://www.w3.org/2000/svg">
<path d="M29.3901 31.44V31.74C29.3822 32.2157 29.1863 32.6689 28.8453 33.0005C28.5042 33.3322 28.0458 33.5154 27.5701 33.51H17.9101C17.4334 33.5154 16.9739 33.3325 16.6313 33.0012C16.2887 32.6698 16.0906 32.2166 16.0801 31.74V18.74C16.0958 18.2679 16.2964 17.8208 16.6388 17.4953C16.9811 17.1698 17.4377 16.9919 17.9101 17H18.4801" stroke="#303030" stroke-width="1.56" stroke-linecap="round" stroke-linejoin="round"/>
<path d="M31.0501 19.47H27.7401C27.6337 19.47 27.5284 19.4491 27.4301 19.4084C27.3318 19.3677 27.2425 19.308 27.1673 19.2328C27.0921 19.1576 27.0324 19.0683 26.9917 18.97C26.951 18.8717 26.9301 18.7664 26.9301 18.66V15.35C26.9251 15.1892 26.9681 15.0306 27.0536 14.8943C27.1391 14.7581 27.2633 14.6504 27.4102 14.5849C27.5572 14.5195 27.7203 14.4993 27.8788 14.5269C28.0373 14.5545 28.1839 14.6287 28.3001 14.74L31.6001 18.04C31.7293 18.1485 31.8215 18.2946 31.8637 18.458C31.9059 18.6214 31.896 18.7938 31.8355 18.9513C31.7749 19.1088 31.6667 19.2435 31.5258 19.3365C31.385 19.4295 31.2187 19.4762 31.0501 19.47Z" stroke="#303030" stroke-width="1.5" stroke-linecap="round" stroke-linejoin="round"/>
<path d="M31.9203 18.82V29.2C31.9203 29.432 31.8744 29.6616 31.7854 29.8758C31.6963 30.09 31.5658 30.2845 31.4013 30.448C31.2368 30.6116 31.0416 30.741 30.8269 30.8289C30.6122 30.9168 30.3823 30.9613 30.1503 30.96H20.8203C20.5883 30.9613 20.3584 30.9168 20.1437 30.8289C19.929 30.741 19.7338 30.6116 19.5693 30.448C19.4048 30.2845 19.2743 30.09 19.1852 29.8758C19.0961 29.6616 19.0503 29.432 19.0503 29.2V16.26C19.0503 15.7906 19.2368 15.3404 19.5687 15.0084C19.9007 14.6765 20.3509 14.49 20.8203 14.49H27.6203" stroke="#303030" stroke-width="1.5" stroke-linecap="round" stroke-linejoin="round"/>
</svg>
