<svg width="24" height="24" viewBox="0 0 24 24" fill="none" xmlns="http://www.w3.org/2000/svg">
<g clip-path="url(#clip0_1725_19574)">
<path d="M17.5652 8.74506H14.2552C14.1488 8.74506 14.0435 8.72411 13.9452 8.6834C13.847 8.64269 13.7577 8.58303 13.6825 8.50781C13.6072 8.4326 13.5476 8.3433 13.5069 8.24503C13.4662 8.14676 13.4452 8.04143 13.4452 7.93506V4.62506C13.4402 4.46426 13.4832 4.30563 13.5687 4.16936C13.6542 4.0331 13.7784 3.92539 13.9254 3.85995C14.0723 3.79452 14.2354 3.77432 14.3939 3.80195C14.5524 3.82957 14.6991 3.90376 14.8152 4.01506L18.1152 7.31506C18.2445 7.42351 18.3367 7.56963 18.3789 7.73301C18.4211 7.89639 18.4112 8.06887 18.3506 8.22636C18.29 8.38386 18.1818 8.5185 18.041 8.61149C17.9002 8.70448 17.7338 8.75118 17.5652 8.74506Z" stroke="#303030" stroke-width="1.5" stroke-linecap="round" stroke-linejoin="round"/>
<path d="M18.4349 8.09501V18.475C18.4349 18.707 18.3891 18.9367 18.3 19.1509C18.2109 19.365 18.0804 19.5595 17.9159 19.7231C17.7514 19.8866 17.5562 20.0161 17.3415 20.1039C17.1268 20.1918 16.8969 20.2363 16.6649 20.235H7.33494C7.10297 20.2363 6.87304 20.1918 6.65835 20.1039C6.44366 20.0161 6.24846 19.8866 6.08396 19.7231C5.91947 19.5595 5.78894 19.365 5.69986 19.1509C5.61079 18.9367 5.56494 18.707 5.56494 18.475V5.53501C5.56494 5.06558 5.75142 4.61538 6.08336 4.28344C6.4153 3.9515 6.86551 3.76501 7.33494 3.76501H14.1349" stroke="#303030" stroke-width="1.5" stroke-linecap="round" stroke-linejoin="round"/>
</g>
<defs>
<clipPath id="clip0_1725_19574">
<rect width="24" height="24" fill="white"/>
</clipPath>
</defs>
</svg>
