<svg width="24" height="24" viewBox="0 0 24 24" fill="none" xmlns="http://www.w3.org/2000/svg">
<path d="M18.1 12V15.86C18.1079 16.3393 18.0214 16.8155 17.8452 17.2614C17.6691 17.7073 17.4069 18.1141 17.0735 18.4586C16.7401 18.8032 16.3421 19.0786 15.9023 19.2693C15.4624 19.46 14.9893 19.5622 14.51 19.57H9.29997C8.82063 19.5622 8.34752 19.46 7.90767 19.2693C7.46781 19.0786 7.06984 18.8032 6.73646 18.4586C6.40309 18.1141 6.14085 17.7073 5.96472 17.2614C5.78859 16.8155 5.70203 16.3393 5.70997 15.86V11.86" stroke="#303030" stroke-width="1.5" stroke-linecap="round" stroke-linejoin="round"/>
<path d="M11.4701 4.84994L3.41005 8.44994C3.22494 8.54331 3.06937 8.68623 2.96068 8.86279C2.85198 9.03935 2.79443 9.24261 2.79443 9.44994C2.79443 9.65727 2.85198 9.86054 2.96068 10.0371C3.06937 10.2136 3.22494 10.3566 3.41005 10.4499L11.4701 14.0499C11.6148 14.1145 11.7716 14.1478 11.9301 14.1478C12.0886 14.1478 12.2453 14.1145 12.3901 14.0499L20.4501 10.4499C20.6352 10.3566 20.7907 10.2136 20.8994 10.0371C21.0081 9.86054 21.0657 9.65727 21.0657 9.44994C21.0657 9.24261 21.0081 9.03935 20.8994 8.86279C20.7907 8.68623 20.6352 8.54331 20.4501 8.44994L12.3901 4.84994C12.2453 4.78542 12.0886 4.75208 11.9301 4.75208C11.7716 4.75208 11.6148 4.78542 11.4701 4.84994Z" stroke="#303030" stroke-width="1.5" stroke-miterlimit="10"/>
<path d="M12.6099 9.46997L19.6599 10.72" stroke="#303030" stroke-width="1.5" stroke-linecap="round" stroke-linejoin="round"/>
<path d="M20.1802 18.2899V10.9299" stroke="#303030" stroke-width="1.5" stroke-linecap="round" stroke-linejoin="round"/>
</svg>
