<svg width="48" height="48" viewBox="0 0 48 48" fill="none" xmlns="http://www.w3.org/2000/svg">
<path d="M29.8061 15.6641C30.1966 15.2736 30.8298 15.2736 31.2203 15.6641L32.3356 16.7794C32.7261 17.1699 32.7261 17.8031 32.3356 18.1936L30.5132 20.016L27.9837 17.4865L29.8061 15.6641Z" stroke="#303030" stroke-width="1.5"/>
<path d="M23.3044 28.2369L30.3869 20.1426L27.8575 17.6131L19.7631 24.6956M23.3044 28.2369L19.7631 24.6956M23.3044 28.2369L21.3575 29.3185C21.1624 29.4269 20.919 29.3928 20.7612 29.235L18.765 27.2389C18.6072 27.081 18.5731 26.8376 18.6815 26.6425L19.7631 24.6956" stroke="#303030" stroke-width="1.5"/>
<path d="M19.8183 29.8099L18.1629 28.1545C17.9423 27.9339 17.5758 27.9669 17.3982 28.2234L15.8329 30.4845C15.646 30.7544 15.7657 31.1282 16.0746 31.2395L17.2452 31.661C17.5293 31.7633 17.8446 31.7317 18.1028 31.575L19.7242 30.5909C20.0013 30.4226 20.0476 30.0391 19.8183 29.8099Z" fill="#303030"/>
</svg>
