<svg width="24" height="24" viewBox="0 0 24 24" fill="none" xmlns="http://www.w3.org/2000/svg">
<path d="M17.8061 3.66414C18.1966 3.27361 18.8298 3.27361 19.2203 3.66414L20.3356 4.77941C20.7261 5.16994 20.7261 5.8031 20.3356 6.19363L18.5132 8.01601L15.9837 5.48652L17.8061 3.66414Z" stroke="#303030" stroke-width="1.5"/>
<path d="M11.3044 16.2369L18.3869 8.14256L15.8575 5.61308L7.7631 12.6956M11.3044 16.2369L7.7631 12.6956M11.3044 16.2369L9.35753 17.3185C9.16238 17.4269 8.91901 17.3928 8.76115 17.235L6.76504 15.2389C6.60718 15.081 6.5731 14.8376 6.68151 14.6425L7.7631 12.6956" stroke="#303030" stroke-width="1.5"/>
<path d="M7.8183 17.8099L6.16289 16.1545C5.94231 15.9339 5.57581 15.9669 5.39824 16.2234L3.8329 18.4845C3.64599 18.7544 3.76565 19.1282 4.07461 19.2395L5.24515 19.661C5.52935 19.7633 5.84457 19.7317 6.10279 19.575L7.72417 18.5909C8.00135 18.4226 8.04756 18.0391 7.8183 17.8099Z" fill="#303030"/>
</svg>
