<svg width="24" height="24" viewBox="0 0 24 24" fill="none" xmlns="http://www.w3.org/2000/svg">
<path d="M5.08182 14.2002H4.38297C3.87637 14.2004 3.38258 14.0392 2.97391 13.7392C2.5649 13.4389 2.26201 13.0149 2.10966 12.5302C1.95749 12.0459 1.96401 11.5255 2.12723 11.0447C2.28114 10.5917 2.56792 10.1968 2.94807 9.90933L10.5413 2.51279L10.6395 2.43095C11.0397 2.15032 11.5167 2.00006 12.0051 2C12.4328 2 12.8516 2.11552 13.2178 2.33253L13.3708 2.43095L13.4721 2.51486L21.0498 9.96113C21.4299 10.2479 21.7171 10.6411 21.8717 11.0934C22.0354 11.5728 22.0426 12.092 21.8923 12.5758C21.742 13.0597 21.4418 13.4832 21.0353 13.7847C20.6289 14.0862 20.137 14.2501 19.6314 14.253H18.9284V19.1436C18.9284 19.6359 18.7331 20.108 18.3857 20.4561C18.0383 20.8042 17.5671 21 17.0759 21H14.3136C13.8751 21 13.5197 20.6437 13.5196 20.2044V15.7282C13.4901 15.3181 13.3076 14.9339 13.0079 14.6529C12.7437 14.4051 12.4059 14.2539 12.0486 14.2198L11.8945 14.2126C11.4808 14.2126 11.0821 14.3696 10.7801 14.6529C10.4827 14.9318 10.301 15.3123 10.2694 15.7188V20.2044C10.2692 20.6436 9.91378 21 9.47544 21H6.93437C6.44317 20.9999 5.9719 20.8042 5.62456 20.4561C5.27722 20.1081 5.0819 19.6358 5.08182 19.1436V14.2002Z" fill="#303030"/>
</svg>
