<svg width="24" height="24" viewBox="0 0 24 24" fill="none" xmlns="http://www.w3.org/2000/svg">
<path d="M14.2695 15.7012L14.2676 15.6738C14.2244 15.0766 13.9581 14.5159 13.5205 14.1055C13.1347 13.7439 12.6416 13.5234 12.1201 13.4736L12.1016 13.4717L12.084 13.4707L11.9297 13.4639L11.9121 13.4629H11.8945C11.291 13.4629 10.7083 13.6912 10.2666 14.1055C9.8319 14.5132 9.56752 15.0693 9.52148 15.6611L9.51953 15.6895V20.2041C9.51952 20.231 9.498 20.2499 9.47559 20.25H6.93457C6.64284 20.2499 6.36214 20.134 6.15527 19.9268C5.94835 19.7194 5.8321 19.4373 5.83203 19.1436V13.4502H4.38281L4.25293 13.4453C3.95183 13.4215 3.6625 13.3142 3.41797 13.1348C3.13808 12.9293 2.92988 12.6384 2.8252 12.3057C2.72093 11.9738 2.7247 11.6156 2.83691 11.2852C2.94221 10.9756 3.13927 10.7053 3.40039 10.5078L3.4375 10.4795L3.47168 10.4463L11.042 3.07129L11.085 3.03516C11.3212 2.87334 11.5954 2.77683 11.8799 2.75488L12.0049 2.75C12.2973 2.75 12.5841 2.82899 12.835 2.97754L12.9248 3.03613L12.9678 3.07031L20.5244 10.4961L20.5586 10.5303L20.5977 10.5596C20.8595 10.7571 21.0566 11.0273 21.1621 11.3359C21.2744 11.6649 21.2789 12.0215 21.1758 12.3535C21.0726 12.6854 20.8671 12.9761 20.5889 13.1826C20.3106 13.389 19.9732 13.501 19.627 13.5029H18.1787V19.1436C18.1787 19.4373 18.0615 19.7193 17.8545 19.9268C17.6475 20.1339 17.3674 20.2499 17.0762 20.25H14.3135C14.2909 20.2499 14.2695 20.2308 14.2695 20.2041V15.7012Z" stroke="#303030" stroke-width="1.5" stroke-linecap="round"/>
</svg>
