<svg width="32" height="32" viewBox="0 0 32 32" fill="none" xmlns="http://www.w3.org/2000/svg">
<path d="M7.3335 12.6667H12.6668V7.33337H7.3335V12.6667ZM14.6668 13.0521L14.659 13.2175C14.5762 14.0315 13.8881 14.6666 13.0522 14.6667H6.94808L6.78271 14.6589C6.02306 14.5816 5.41864 13.9771 5.34131 13.2175L5.3335 13.0521V6.94796C5.33359 6.1121 5.9687 5.42405 6.78271 5.34119L6.94808 5.33337H13.0522C13.9439 5.33347 14.6667 6.05629 14.6668 6.94796V13.0521Z" fill="#303030"/>
<path d="M7.3335 24.6667H12.6668V19.3334H7.3335V24.6667ZM14.6668 25.0521L14.659 25.2175C14.5762 26.0315 13.8881 26.6666 13.0522 26.6667H6.94808L6.78271 26.6589C6.02306 26.5816 5.41864 25.9771 5.34131 25.2175L5.3335 25.0521V18.948C5.33359 18.1121 5.9687 17.4241 6.78271 17.3412L6.94808 17.3334H13.0522C13.9439 17.3335 14.6667 18.0563 14.6668 18.948V25.0521Z" fill="#303030"/>
<path d="M22.6668 11L22.7697 11.0052C23.2737 11.0567 23.6668 11.4824 23.6668 12C23.6668 12.5176 23.2737 12.9433 22.7697 12.9948L22.6668 13H17.3335C16.7812 13 16.3335 12.5523 16.3335 12C16.3335 11.4477 16.7812 11 17.3335 11H22.6668Z" fill="#303030"/>
<path d="M22.6668 23L22.7697 23.0052C23.2737 23.0567 23.6668 23.4824 23.6668 24C23.6668 24.5176 23.2737 24.9433 22.7697 24.9948L22.6668 25H17.3335C16.7812 25 16.3335 24.5523 16.3335 24C16.3335 23.4477 16.7812 23 17.3335 23H22.6668Z" fill="#303030"/>
<path d="M25.3335 7L25.4364 7.00521C25.9403 7.0567 26.3335 7.48244 26.3335 8C26.3335 8.51756 25.9403 8.9433 25.4364 8.99479L25.3335 9H17.3335C16.7812 9 16.3335 8.55228 16.3335 8C16.3335 7.44772 16.7812 7 17.3335 7H25.3335Z" fill="#303030"/>
<path d="M25.3335 19L25.4364 19.0052C25.9403 19.0567 26.3335 19.4824 26.3335 20C26.3335 20.5176 25.9403 20.9433 25.4364 20.9948L25.3335 21H17.3335C16.7812 21 16.3335 20.5523 16.3335 20C16.3335 19.4477 16.7812 19 17.3335 19H25.3335Z" fill="#303030"/>
</svg>
