<svg width="24" height="24" viewBox="0 0 24 24" fill="none" xmlns="http://www.w3.org/2000/svg">
<path d="M7.49023 4.75C7.49023 4.61201 7.3782 4.50013 7.24023 4.5H5.75C5.61193 4.5 5.5 4.61193 5.5 4.75V19.3496C5.5 19.4877 5.61193 19.5996 5.75 19.5996H7.24023C7.3782 19.5995 7.49023 19.4876 7.49023 19.3496V4.75ZM8.99023 19.3496C8.99023 20.316 8.20663 21.0995 7.24023 21.0996H5.75C4.7835 21.0996 4 20.3161 4 19.3496V4.75C4 3.7835 4.7835 3 5.75 3H7.24023C8.20663 3.00013 8.99023 3.78358 8.99023 4.75V19.3496Z" fill="#303030"/>
<path d="M10.9805 4.75C10.9805 4.61201 10.8684 4.50013 10.7305 4.5H9.24023C9.10216 4.5 8.99023 4.61193 8.99023 4.75V19.3496C8.99023 19.4877 9.10216 19.5996 9.24023 19.5996H10.7305C10.8684 19.5995 10.9805 19.4876 10.9805 19.3496V4.75ZM12.4805 19.3496C12.4805 20.316 11.6969 21.0995 10.7305 21.0996H9.24023C8.27374 21.0996 7.49023 20.3161 7.49023 19.3496V4.75C7.49023 3.7835 8.27374 3 9.24023 3H10.7305C11.6969 3.00013 12.4805 3.78358 12.4805 4.75V19.3496Z" fill="#303030"/>
<path d="M14.8737 4.73983C14.8385 4.60641 14.7016 4.52686 14.5681 4.56198L13.1274 4.94266C12.9939 4.97793 12.9142 5.11473 12.9495 5.24823L16.6789 19.3635C16.7142 19.497 16.851 19.5766 16.9845 19.5413L18.4253 19.1606C18.5586 19.1253 18.6384 18.9885 18.6031 18.8551L14.8737 4.73983ZM20.0534 18.4719C20.3002 19.4063 19.7427 20.3639 18.8084 20.6109L17.3677 20.9915C16.4332 21.2384 15.4756 20.6811 15.2287 19.7466L11.4993 5.63139C11.2524 4.69696 11.8098 3.73931 12.7442 3.49242L14.185 3.11175C15.1193 2.86501 16.0771 3.4223 16.324 4.35666L20.0534 18.4719Z" fill="#303030"/>
</svg>
