<svg width="24" height="24" viewBox="0 0 24 24" fill="none" xmlns="http://www.w3.org/2000/svg">
<path d="M7.41895 3.00879C7.53045 3.02011 7.63884 3.04197 7.74316 3.07324C7.28193 3.48528 6.99023 4.08286 6.99023 4.75V19.3496C6.99023 20.016 7.28183 20.6124 7.74219 21.0244C7.58301 21.0721 7.4149 21.0996 7.24023 21.0996H5.75C4.7835 21.0996 4 20.3161 4 19.3496V4.75C4 3.7835 4.7835 3 5.75 3H7.24023L7.41895 3.00879Z" fill="#303030"/>
<path d="M10.7305 2.99988C11.1479 2.99999 11.5312 3.14644 11.832 3.3905C11.1271 3.92499 10.7758 4.85031 11.0156 5.75867L12.4805 11.3026V19.3495C12.4805 20.3158 11.6968 21.0992 10.7305 21.0995H9.24023C8.27374 21.0995 7.49023 20.316 7.49023 19.3495V4.74988C7.4903 3.78344 8.27378 2.99988 9.24023 2.99988H10.7305Z" fill="#303030"/>
<path d="M20.0534 18.472C20.3002 19.4064 19.7427 20.364 18.8084 20.611L17.3677 20.9917C16.4332 21.2386 15.4756 20.6812 15.2287 19.7468L11.4993 5.63152C11.2524 4.69708 11.8098 3.73943 12.7442 3.49255L14.185 3.11187C15.1193 2.86513 16.0771 3.42242 16.324 4.35678L20.0534 18.472Z" fill="#303030"/>
</svg>
