<svg width="24" height="24" viewBox="0 0 24 24" fill="none" xmlns="http://www.w3.org/2000/svg">
<path d="M16.6972 7.18559L12.978 10.2295H10.144C9.82967 10.2295 9.52639 10.3303 9.27466 10.5119L13.4883 14.7255C13.6414 14.5133 13.7371 14.2647 13.7631 14.0032L13.7707 13.8562V11.0222L16.8146 7.30298L16.9099 7.18697L16.8132 7.0903L16.6972 7.18559ZM19.4559 8.78142C19.1613 9.02137 18.727 9.0041 18.4525 8.72963L17.9754 8.25247L15.2706 11.5581V13.8562C15.2705 14.6484 14.9558 15.4082 14.3957 15.9685L14.2997 16.0548C13.8368 16.4324 13.1688 16.4324 12.7059 16.0548L12.6099 15.9685L10.8511 14.2097L7.31561 17.7452L6.07818 17.922L6.25495 16.6846L9.79049 13.149L8.0317 11.3903L7.94538 11.2943C7.5678 10.8314 7.5678 10.1634 7.94538 9.70052L8.0317 9.60453C8.52202 9.11429 9.16518 8.81197 9.84918 8.74413L10.144 8.72963H12.4421L15.7477 6.02481L15.2706 5.54765C14.9777 5.25475 14.9777 4.77988 15.2706 4.48699C15.545 4.21251 15.9793 4.19524 16.2739 4.4352L16.3312 4.48699L19.5132 7.66897L19.565 7.72628C19.805 8.02086 19.7877 8.45515 19.5132 8.72963L19.4559 8.78142Z" fill="#303030"/>
</svg>
