<svg width="48" height="48" viewBox="0 0 48 48" fill="none" xmlns="http://www.w3.org/2000/svg">
<path d="M28.6972 19.1856L24.978 22.2295H22.144C21.8297 22.2295 21.5264 22.3303 21.2747 22.5119L25.4883 26.7255C25.6414 26.5133 25.7371 26.2647 25.7631 26.0032L25.7707 25.8562V23.0222L28.8146 19.303L28.9099 19.187L28.8132 19.0903L28.6972 19.1856ZM31.4559 20.7814C31.1613 21.0214 30.727 21.0041 30.4525 20.7296L29.9754 20.2525L27.2706 23.5581V25.8562C27.2705 26.6484 26.9558 27.4082 26.3957 27.9685L26.2997 28.0548C25.8368 28.4324 25.1688 28.4324 24.7059 28.0548L24.6099 27.9685L22.8511 26.2097L19.3156 29.7452L18.0782 29.922L18.255 28.6846L21.7905 25.149L20.0317 23.3903L19.9454 23.2943C19.5678 22.8314 19.5678 22.1634 19.9454 21.7005L20.0317 21.6045C20.522 21.1143 21.1652 20.812 21.8492 20.7441L22.144 20.7296H24.4421L27.7477 18.0248L27.2706 17.5476C26.9777 17.2548 26.9777 16.7799 27.2706 16.487C27.545 16.2125 27.9793 16.1952 28.2739 16.4352L28.3312 16.487L31.5132 19.669L31.565 19.7263C31.805 20.0209 31.7877 20.4552 31.5132 20.7296L31.4559 20.7814Z" fill="#303030"/>
</svg>
