<svg width="24" height="24" viewBox="0 0 24 24" fill="none" xmlns="http://www.w3.org/2000/svg">
<path d="M3.75977 20.3785H6.14453V12.5436H3.75977V20.3785ZM7.66504 20.4811C7.66501 21.2641 7.03007 21.899 6.24707 21.899H3.6582C2.87521 21.899 2.24026 21.2641 2.24023 20.4811V12.442C2.24023 11.659 2.87519 11.024 3.6582 11.024H6.24707C7.03008 11.024 7.66504 11.659 7.66504 12.442V20.4811Z" fill="#303030"/>
<path d="M18.8394 11.0338V11.0348C19.1038 11.0347 19.3656 11.0874 19.6089 11.191C19.8523 11.2948 20.0722 11.4464 20.2554 11.6373C20.4386 11.8285 20.5819 12.0556 20.6753 12.3033C20.7654 12.5426 20.8058 12.797 20.7983 13.0524L20.8003 13.0533C20.8002 13.0588 20.7984 13.0645 20.7983 13.0699C20.7982 13.0731 20.7995 13.0766 20.7993 13.0797L20.7983 13.0787C20.7875 13.5868 20.5806 14.0711 20.2192 14.4293C19.8979 14.7478 19.4781 14.9438 19.0317 14.9879L18.8394 14.9977H15.7798C15.3656 14.9977 15.0298 14.6619 15.0298 14.2477C15.0299 13.8335 15.3656 13.4977 15.7798 13.4977H18.8394L18.9292 13.4889C19.0172 13.4713 19.0989 13.428 19.1636 13.3639C19.2499 13.2783 19.2992 13.1622 19.3003 13.0406L19.3013 13.0153C19.3039 12.9532 19.2938 12.8908 19.272 12.8326C19.25 12.7744 19.2164 12.7204 19.1733 12.6754C19.1303 12.6305 19.0782 12.5953 19.021 12.5709C18.9923 12.5587 18.9625 12.5488 18.9321 12.5426L18.8394 12.5338H15.7798C15.3656 12.5338 15.0298 12.198 15.0298 11.7838C15.0298 11.3696 15.3656 11.0338 15.7798 11.0338H18.8394Z" fill="#303030"/>
<path d="M20.2495 15.4065C20.2495 15.3458 20.2377 15.2858 20.2144 15.2297C20.191 15.1736 20.1569 15.1222 20.1138 15.0793C20.0705 15.0365 20.0188 15.0027 19.9624 14.9797C19.906 14.9568 19.8455 14.945 19.7847 14.9456H16.7192C16.305 14.9456 15.9692 14.6098 15.9692 14.1956C15.9693 13.7814 16.305 13.4456 16.7192 13.4456H19.7788V13.4465C20.0354 13.4452 20.2901 13.4934 20.5278 13.5901C20.7676 13.6876 20.9856 13.8317 21.1694 14.0139C21.3533 14.1962 21.4995 14.4135 21.5991 14.6526C21.6986 14.8915 21.7495 15.1477 21.7495 15.4065L21.7407 15.6008C21.6961 16.0497 21.4971 16.4715 21.1753 16.7932C20.8075 17.161 20.3087 17.3674 19.7886 17.3674H16.7192C16.305 17.3674 15.9692 17.0316 15.9692 16.6174C15.9695 16.2034 16.3052 15.8674 16.7192 15.8674H19.7886C19.9109 15.8674 20.0283 15.8191 20.1147 15.7327C20.1795 15.6679 20.223 15.5859 20.2407 15.4973L20.2495 15.4065Z" fill="#303030"/>
<path d="M19.3003 17.819C19.3003 17.7595 19.288 17.7001 19.2651 17.6451C19.2422 17.5902 19.2087 17.5405 19.1665 17.4987C19.1242 17.4568 19.0742 17.4234 19.019 17.401C18.9639 17.3786 18.9047 17.3673 18.8452 17.3678H15.7798C15.3656 17.3678 15.0298 17.032 15.0298 16.6178C15.0298 16.2036 15.3656 15.8678 15.7798 15.8678H18.8394V15.8688C19.0946 15.8675 19.348 15.9152 19.5845 16.0114C19.823 16.1084 20.0403 16.2519 20.2231 16.4332C20.4059 16.6145 20.5509 16.8304 20.6499 17.068C20.749 17.3058 20.8003 17.5614 20.8003 17.819L20.7905 18.0123C20.746 18.4613 20.5479 18.8839 20.2261 19.2057C19.8584 19.5734 19.3593 19.7798 18.8394 19.7799H15.7798C15.3656 19.7799 15.0299 19.444 15.0298 19.0299C15.0298 18.6157 15.3656 18.2799 15.7798 18.2799H18.8394C18.9615 18.2798 19.0782 18.2305 19.1646 18.1442C19.2295 18.0793 19.2738 17.9975 19.2915 17.9088L19.3003 17.819Z" fill="#303030"/>
<path d="M17.5024 18.2797C18.0197 18.2797 18.5156 18.4853 18.8813 18.851C19.2472 19.2168 19.4526 19.7135 19.4526 20.2308C19.4526 20.2372 19.4528 20.244 19.4526 20.2504C19.4392 20.7616 19.2258 21.2477 18.8579 21.6029C18.4914 21.9567 18.0009 22.1517 17.4917 22.1488V22.1498H15.4038C14.9896 22.1498 14.6538 21.814 14.6538 21.3998C14.6538 20.9856 14.9896 20.6498 15.4038 20.6498H17.4985L17.5864 20.642C17.6721 20.6258 17.7522 20.5852 17.8159 20.5238C17.8978 20.4448 17.9454 20.3373 17.9517 20.224C17.95 20.1068 17.9038 19.9945 17.8208 19.9115C17.7363 19.8271 17.6219 19.7797 17.5024 19.7797H15.4146C15.0003 19.7797 14.6646 19.4439 14.6646 19.0297C14.6646 18.6154 15.0003 18.2797 15.4146 18.2797H17.5024Z" fill="#303030"/>
<path d="M11.604 5.11028C12.0496 5.09503 12.5009 5.25069 12.9546 5.54094L13.1489 5.67375L13.2036 5.71672C13.3578 5.85132 13.5038 5.99481 13.6411 6.14641L13.7759 6.30168L13.853 6.41203C14.172 6.97338 14.3706 7.595 14.437 8.23723C14.5034 8.87968 14.4363 9.52954 14.2388 10.1445C14.1602 10.4405 14.0619 10.7302 13.9458 11.0126H17.0532L17.1304 11.0165C17.5083 11.0551 17.8031 11.3745 17.8032 11.7626C17.8032 12.1508 17.5084 12.4701 17.1304 12.5087L17.0532 12.5126H12.7095C12.4345 12.5125 12.1814 12.3618 12.0503 12.12C11.9194 11.8783 11.9316 11.5839 12.0815 11.3534C12.4067 10.8537 12.649 10.3046 12.7983 9.72746L12.8101 9.68547C12.9441 9.26826 12.9899 8.82742 12.9448 8.39153C12.9021 7.9785 12.7777 7.57876 12.5806 7.21379C12.4736 7.09052 12.359 6.97441 12.2368 6.86614C11.8954 6.62677 11.7123 6.60732 11.6548 6.6093C11.6162 6.61069 11.5812 6.62142 11.5249 6.68254C11.4569 6.75643 11.3955 6.87032 11.3491 6.99309C11.3278 7.04974 11.313 7.09877 11.3042 7.13176C11.2407 8.38903 10.8316 9.60532 10.1206 10.6454C9.48896 11.5693 8.64117 12.3208 7.65479 12.8388V19.87C7.86004 20.0012 8.15265 20.1333 8.5376 20.2519C9.07194 20.4165 9.70227 20.5336 10.3384 20.6142C11.6109 20.7753 12.8165 20.7793 13.1343 20.7655L15.6089 20.6503L15.686 20.6513C16.0655 20.6723 16.3751 20.9773 16.3931 21.3652C16.4122 21.7788 16.0919 22.1301 15.6782 22.1493L13.2036 22.2636H13.2026C12.8074 22.281 11.5137 22.2751 10.1499 22.1025C9.46693 22.016 8.74363 21.8849 8.09619 21.6855C7.46726 21.4917 6.82071 21.2069 6.37451 20.7607C6.23386 20.62 6.15479 20.4293 6.15479 20.2304V12.3681C6.15492 12.0697 6.3323 11.7996 6.60596 11.6806C7.52669 11.28 8.31562 10.6277 8.88232 9.79875C9.44903 8.96974 9.77104 7.9975 9.81006 6.99406L9.82275 6.88176L10.5591 7.02239C9.8604 6.88844 9.82453 6.88148 9.82275 6.88078V6.87883L9.82568 6.86418C9.82729 6.85645 9.82993 6.84637 9.83252 6.83489C9.83768 6.81205 9.84446 6.7819 9.854 6.74602C9.87322 6.67384 9.90344 6.57506 9.9458 6.46281C10.0271 6.24758 10.1724 5.93746 10.4214 5.66692C10.682 5.38375 11.074 5.12852 11.604 5.11028Z" fill="#303030"/>
<path d="M7.56299 6.57556L7.63916 6.57947C8.01744 6.61779 8.31299 6.93718 8.31299 7.32556C8.31299 7.71395 8.01744 8.03333 7.63916 8.07166L7.56299 8.07556H6.29932C5.8851 8.07556 5.54932 7.73978 5.54932 7.32556C5.54932 6.91135 5.8851 6.57556 6.29932 6.57556H7.56299Z" fill="#303030"/>
<path d="M7.03234 3.3081C7.30695 3.0335 7.74167 3.01603 8.03625 3.25634L8.09289 3.3081L8.98059 4.1958L9.03234 4.25244C9.27244 4.54701 9.25511 4.98181 8.98059 5.25634C8.70606 5.53087 8.27126 5.5482 7.97668 5.3081L7.92004 5.25634L7.03234 4.36865L6.98059 4.31201C6.74028 4.01743 6.75774 3.5827 7.03234 3.3081Z" fill="#303030"/>
<path d="M11.2085 3.59814V2.34521C11.2085 1.931 11.5443 1.59521 11.9585 1.59521C12.3727 1.59521 12.7085 1.931 12.7085 2.34521V3.59814C12.7085 4.01234 12.3727 4.34814 11.9585 4.34814C11.5443 4.34814 11.2085 4.01234 11.2085 3.59814Z" fill="#303030"/>
<path d="M15.8031 3.30799C16.096 3.01521 16.5708 3.01514 16.8637 3.30799C17.1564 3.60086 17.1564 4.07567 16.8637 4.36854L15.976 5.25623C15.6831 5.54898 15.2083 5.54898 14.9154 5.25623C14.6226 4.96338 14.6226 4.48859 14.9154 4.19569L15.8031 3.30799Z" fill="#303030"/>
<path d="M17.6382 6.57556L17.7144 6.57947C18.0928 6.61766 18.3882 6.93707 18.3882 7.32556C18.3882 7.71405 18.0928 8.03347 17.7144 8.07166L17.6382 8.07556H16.3853C15.971 8.07556 15.6353 7.73978 15.6353 7.32556C15.6353 6.91135 15.971 6.57556 16.3853 6.57556H17.6382Z" fill="#303030"/>
</svg>
