<svg width="48" height="48" viewBox="0 0 48 48" fill="none" xmlns="http://www.w3.org/2000/svg">
<path d="M27.0352 14.73H31.2552C31.7856 14.73 32.2943 14.9407 32.6694 15.3158C33.0444 15.6908 33.2552 16.1995 33.2552 16.73V20.98" stroke="#303030" stroke-width="2" stroke-linecap="round" stroke-linejoin="round"/>
<path d="M20.9751 33.27H16.7451C16.2147 33.27 15.706 33.0593 15.3309 32.6842C14.9558 32.3091 14.7451 31.8004 14.7451 31.27V26.86" stroke="#303030" stroke-width="2" stroke-linecap="round" stroke-linejoin="round"/>
<path d="M20.9751 14.73H16.7451C16.2147 14.73 15.706 14.9407 15.3309 15.3158C14.9558 15.6908 14.7451 16.1995 14.7451 16.73V20.98" stroke="#303030" stroke-width="2" stroke-linecap="round" stroke-linejoin="round"/>
<path d="M26.9751 33.27H31.2351C31.7655 33.27 32.2742 33.0593 32.6493 32.6842C33.0244 32.3091 33.2351 31.8004 33.2351 31.27V26.86" stroke="#303030" stroke-width="2" stroke-linecap="round" stroke-linejoin="round"/>
<path d="M19.4351 19.5499H28.5251" stroke="#303030" stroke-width="2" stroke-linecap="round" stroke-linejoin="round"/>
<path d="M23.9851 30.07V19.76" stroke="#303030" stroke-width="2" stroke-linecap="round" stroke-linejoin="round"/>
</svg>
