<svg width="24" height="24" viewBox="0 0 24 24" fill="none" xmlns="http://www.w3.org/2000/svg">
<path d="M19.9751 17.9551L19.9653 18.1572C19.9189 18.6254 19.712 19.0657 19.3765 19.4014C18.993 19.7848 18.4725 20 17.9302 20H5.97607C5.44495 19.9833 4.94049 19.7606 4.5708 19.3789C4.24739 19.045 4.04885 18.6122 4.00439 18.1533L3.99463 17.9551V17.7393L4.00244 17.5049C4.06879 16.3346 4.56419 15.2262 5.39795 14.3945C6.28725 13.5076 7.49058 13.0062 8.74658 13H15.5903L15.8071 13.0059C16.8911 13.0596 17.9199 13.5141 18.6909 14.2852C19.5131 15.1075 19.9751 16.2229 19.9751 17.3857V17.9551Z" fill="#303030"/>
<circle cx="12" cy="8" r="4" fill="#303030"/>
</svg>
