<svg width="24" height="24" viewBox="0 0 24 24" fill="none" xmlns="http://www.w3.org/2000/svg">
<path d="M15.5698 13.75L15.7808 13.7549C16.6752 13.8018 17.524 14.1788 18.1606 14.8154C18.8422 15.4971 19.2251 16.4219 19.2251 17.3857V17.9385L19.2173 18.0938C19.1898 18.3492 19.087 18.591 18.9214 18.7881L18.8462 18.8711C18.6037 19.1136 18.274 19.25 17.9302 19.25H5.99951C5.66293 19.2393 5.34358 19.0986 5.10986 18.8574C4.90793 18.6489 4.78184 18.3791 4.75146 18.0928L4.74463 17.9375V17.7646L4.75146 17.5469C4.80748 16.5609 5.22466 15.6268 5.92725 14.9258C6.63006 14.2248 7.56584 13.8094 8.55225 13.7559L8.75049 13.75H15.5698Z" stroke="#303030" stroke-width="1.5" stroke-miterlimit="10"/>
<circle cx="12" cy="8" r="3.25" stroke="#303030" stroke-width="1.5"/>
</svg>
